<?xml version="1.0" encoding="utf-8"?>
<!-- Generator: Adobe Illustrator 19.0.0, SVG Export Plug-In . SVG Version: 6.00 Build 0)  -->
<svg version="1.1" id="图层_1" xmlns="http://www.w3.org/2000/svg" xmlns:xlink="http://www.w3.org/1999/xlink" x="0px" y="0px"
	 viewBox="0 0 595.3 595.3" style="enable-background:new 0 0 595.3 595.3;" xml:space="preserve">
<style type="text/css">
	.st0{fill:#FFFFFF;}
</style>
<path id="XMLID_71_" class="st0" d="M383.4,556.6c-0.4-1-0.9-2.1-1.3-3.1c-17.3,1.3-34.6,2.7-52,4c-3.2,0.2-4.5,1.8-4.1,5.3
	c8.4-1.1,16.6-2.1,25.1-3.1c0,5.5,0,10,0,14.9c-4.4-0.5-8.5-1-13.2-1.6c2.1-3.1,3.8-5.6,6.5-9.5c-3.1,0-6.2-0.9-7,0.1
	c-4.1,5.1-7.8,10.6-11.1,16.2c-0.7,1.2,1.1,3.7,1.7,5.7c1.2-0.9,3-1.5,3.6-2.7c1.8-4.1,4.2-5.5,8.9-4.4c6.4,1.5,12.9,2,19.4,3.1
	c7.2,1.3,14.4,2.8,21.6,4.3c0.6-5.3,0.6-5.5-3.7-6.4c-6.7-1.5-13.4-2.8-20.1-4.1c-0.6-3.6,0.4-5.1,3.9-5.2c6-0.1,12-0.7,18.2-1.1
	c-0.3-1.4-0.4-3.2-0.7-3.2c-7-0.5-13.9-0.8-21.4-1.2c-0.1-1.3-0.3-2.9-0.5-5.6c7.8,0,15,0.1,22.2-0.1
	C380.7,558.9,382,557.4,383.4,556.6z"/>
<path id="XMLID_67_" class="st0" d="M103.4,568.1c4.5-3.2,4.2-6.1,1.2-9.4c-3.8-4.1-8.8-7.7-10.7-12.6c-2.1-5.2-1.2-11.6-1.6-17.4
	c0-0.3-0.3-0.6-0.5-0.9c-1.8,0-3.6,0-5.3,0c0.6,19.4,1.2,38.5,1.8,57.8c1.5,0,3.1,0,5.8,0c0-9.4,0-18.7,0-28c0.4,0,0.8-0.1,1.2-0.1
	C98,561,100.6,564.4,103.4,568.1z"/>
<path id="XMLID_66_" class="st0" d="M196.5,532.8c0,12-0.1,23.4,0,34.8c0,3.8,0.3,3.8,4.7,2.9c0-12.5,0-25,0-37.7
	C199.3,532.8,197.7,532.8,196.5,532.8z"/>
<path id="XMLID_65_" class="st0" d="M542.9,532.8c0,11.9,0.1,23.2,0,34.6c0,3.6,1.2,4.6,4.8,3.3c0-12.6,0-25.1,0-37.9
	C545.9,532.8,544.2,532.8,542.9,532.8z"/>
<path id="XMLID_64_" class="st0" d="M479.2,570.9c0-12.8,0-25.3,0-38.3c-2.1,0.1-3.8,0.2-4.8,0.2c0,12,0.1,23.4-0.1,34.7
	C474.4,570.9,475.7,571.9,479.2,570.9z"/>
<path id="XMLID_63_" class="st0" d="M267.1,529.7c0.3,1.6,0.6,2.9,0.9,4.1c-4.1,2.1-10.3-1-12.3,6.3c10.6-0.9,20.2-1.8,29.9-2.6
	c0.8-4-1.1-4.7-4.4-4.2c-2.6,0.3-5.7,1.5-7.1-2.1C272.7,527.4,270.2,528.1,267.1,529.7z"/>
<path id="XMLID_62_" class="st0" d="M196.1,583c1.8,0,3.4,0,5,0c0-2.8,0-5.3,0-7.9c-1.8,0-3.3,0-5,0
	C196.1,577.8,196.1,580.3,196.1,583z"/>
<path id="XMLID_61_" class="st0" d="M474.1,582.8c5.9,0.7,6.6-0.6,4.5-8c-1.4,0.1-2.8,0.2-4.5,0.3
	C474.1,577.8,474.1,580.1,474.1,582.8z"/>
<path id="XMLID_60_" class="st0" d="M547.7,574.8c-2,0.1-3.6,0.2-5,0.2c0,3,0,5.5,0,8.3c1.9-0.1,3.3-0.2,5-0.4
	C547.7,580.3,547.7,578,547.7,574.8z"/>
<path id="XMLID_59_" d="M374.4,1.2c-2.1,4.5-4.1,9.2-6.4,13.6c-2.3,4.5-5.2,8.7-7.4,13.3c-3.5,7.5-7,15-9.8,22.7
	c-2.9,7.9-5,16.1-7.3,24.2c-1.6,5.6-2.8,11.3-4.8,16.8c-0.5,1.5-3.5,3-5.2,3c-7.7-0.2-15.5-1.2-23.2-1.4
	c-15.3-0.4-30.6-0.7-45.9-0.6c-7.4,0.1-14.8,1.3-22.2,2c-15.3,1.5-30,5.6-44,12c-7.3,3.3-15.3,5.4-22.2,9.4
	c-10.4,6.1-21.3,11.7-29.7,20.9c-6.3,7-14.1,12.7-19.9,20c-6.3,7.9-11,17.1-16.3,25.8c-0.9,1.5-1.6,3.1-2.5,4.5
	c-13.9,22.5-17.9,47.2-15.8,73.1c1.6,20.3,8.5,39.1,20.6,55.4c10.4,13.9,23,25.6,38.3,34.7c16.6,10,34.5,16.1,52.4,22.4
	c5.9,2.1,12.4,2.6,18.7,3.7c24.6,4.1,49.3,6.6,74.2,4.1c17.5-1.7,35-4.2,52.1-7.7c9.7-2,18.8-6.9,28.1-10.5c3-1.2,6.3-1.9,9-3.6
	c5.4-3.4,11.1-6.8,15.7-11.1c6.9-6.4,13.5-13.2,19.1-20.7c5-6.6,9.3-14.1,12.3-21.7c6.2-15.6,12.3-31.4,13.7-48.4
	c1.7-21,0.1-41.4-6.6-61.9c-4.4-13.7-11.3-25.9-18.9-37.5c-7.7-11.7-18.5-21.6-28.6-31.6c-6.2-6.2-13.6-11.2-20.1-17.2
	c-1.1-1.1-0.9-4.9,0.1-6.8c12.9-23.5,24.9-47.4,30.9-73.8c2.2-9.1,1.2-18.2-1.4-27.1c3.5,0,6.9,0,10.4,0c6,13.3,2.5,26.4-1.3,39.4
	c-1.2,4.1-2.1,8.4-3.8,12.3c-4,9.2-8.3,18.3-12.7,27.4c-3.3,7-7.1,13.9-10.2,21c-0.6,1.3,0.4,4.5,1.6,5.3
	c17.6,12.2,31.8,27.8,44.1,45.1c9.6,13.6,16.9,28.7,22,44.6c2.8,8.9,2.9,18.7,4.6,28.1c3.6,20.5-0.5,40.4-4.5,60.2
	c-1.8,9.1-7.5,17.3-10.7,26.1c-3.9,10.9-11,19.6-17.4,28.8c-1.9,2.8-4.7,5-7.1,7.5c-12.6,13-26.7,23.7-44.5,28.5
	c-0.3,0.1-0.4,0.5-1.2,1.4c7,3.3,13.8,6.8,20.7,9.8c25.6,11.2,50.1,24.6,72.9,40.8c12.3,8.7,23.9,18.5,32.7,31.2
	c5,7.3,8.8,15,9.5,23.7c0.2,2.8-0.9,7-2.9,8.4c-2.1,1.5-7,1.6-9,0.1c-6.2-4.7-11.7-10.5-17.3-16c-0.5-0.4-0.6-1.3-0.5-1.1
	c-7,5.7-13,11.3-19.8,15.8c-8.4,5.6-18.2,2.2-22.8-7.2c-5-10.2-9.7-20.6-14.4-30.9c-2.9-6.4-9-8.9-14.4-11.8
	c-8.3-4.3-17.1-7.9-26-11.1c-2.2-0.8-5.5,0.4-7.8,1.6c-13.2,7-22.9,17.1-28.3,31.3c-3.3,8.6-6,17.2-6,26.5c0,1.3-3.2,3.2-5.1,3.6
	c-1,0.2-3.7-2.5-3.6-3.6c0.8-7.6,0.7-15.9,3.8-22.7c5.6-12.4,12.2-24.6,20.2-35.6c8.8-12,17.8-14.8,32.5-10.2
	c12.8,4,24.4,10.3,35.7,17.2c7.3,4.5,8.8,12,12,18.8c3.1,6.5,6,13.2,9.2,19.7c3.5,7,6.9,8.1,13,3.2c5.3-4.3,9.9-9.5,14.5-14.5
	c4.3-4.7,8.2-5,12.4-0.1c3.8,4.3,7.4,8.8,11.1,13.2c0.5-0.3,1.1-0.7,1.6-1c-2-3.6-3.6-7.4-5.9-10.6c-10.4-14.5-24.1-25.4-38.7-35.1
	c-23.3-15.5-48.2-28-73.8-39.1c-5.4-2.3-10.6-5.2-16.2-6.8c-3.8-1.1-8.4-1.9-12-0.8c-16,5.1-32.4,7.2-48.9,7.3
	c-23.8,0.2-47.6-1.2-71.4-1.9c-0.8,0-1.7-0.3-2.5-0.5c-11.3-3-18.1,0.5-22.5,11.4c-0.6,1.6-1.7,2.9-2.7,4.4
	c-9.3,13.8-12.4,29.6-14.4,45.8c-1.1,8.9-1.9,17.9-2.9,26.8c-0.2,1.6-0.6,3.2-1,5c-7.9-4.3-8.9-6.1-7.5-14.3
	c2.4-14.1,4.3-28.4,8-42.2c3.7-13.6,7.6-27.5,18.7-37.6c1.1-1,1.6-2.7,2.1-3.6c-14.7-5.6-29.2-10.1-42.8-16.6
	c-11.5-5.5-22.4-12.6-32.6-20.1c-13.4-9.9-24.4-22.8-31.7-37.4c-11.9-23.6-18.8-48.7-15.5-75.9c1.6-13.7,5.2-26.5,11.3-38.7
	c3.1-6.1,5.1-12.8,8.4-18.8c10.7-19.3,23.6-37.2,41.4-50.4c8.5-6.4,15.9-14.7,27.1-17.9c7.5-2.2,13.9-8.1,21.4-11
	c9.7-3.8,19.9-6.3,29.9-9c2.7-0.7,3.1-1.9,3.2-4.3c0.7-12.9,0.9-26,2.7-38.8c1.5-10.9,4.7-21.5,7.4-32.2c1-4.1,2.9-8.1,4.3-12.1
	c4.1,0,8.3,0,12.4,0c-1,2.5-1.7,5.1-2.9,7.4c-6.9,13.6-10.1,28.3-11.5,43.3c-1,10.7-1.2,21.5-1.7,33.1c4.2-0.7,7-1.3,9.8-1.6
	c10.1-1.1,20.2-1.9,30.3-3.2c1.7-0.2,4.3-2.2,4.6-3.7c2.2-12,4.8-24,5.7-36.1c0.9-13.1,2.6-26.6-3.2-39.2c4.5,0,9,0,13.5,0
	c4.1,26.5,1.3,52.6-6.6,78.4c13.9,1.2,27.1,2.4,40.7,3.6c3-9.6,5.9-19,9.1-28.4c2.8-8.1,5.6-16.2,9.2-24c4.6-10.1,10-19.8,15-29.6
	C366.1,1.2,370.3,1.2,374.4,1.2z"/>
<path id="XMLID_57_" d="M137.8,537.9c0.4-7.9,7.1-3.8,10.1-6.2c1.9-1.7,3.9-3.4,6.3-5.5c1.7,5.3,1.5,5.1,4.7,2.4
	c1-0.9,4.6-0.6,4.6-0.5c0.9,5.5,5.1,2.9,7.9,3.2c2.8,0.4,4.7,0.8,3.1,4.9c-3.2,0-6.4,0-9.7,0c-0.2,0.5-0.3,1-0.5,1.5
	c4,1.6,10.1,0.5,10.5,6.7c0.3,4.5,0.1,9,0.1,13.8c-11.7,0.7-23.7,1.4-36,2.2c-0.1-1.5-0.3-3.2-0.3-4.2c-2.3-0.7-4.3-1.4-6.8-2.2
	c0,10.1,0,20.7,0,31.5c-2.3,0-3.9,0-5.8,0c0-8.9,0-17.5,0-26.1c-0.2-0.1-0.5-0.2-0.7-0.3c-1.1,2.7-2.1,5.3-3.2,8.1
	c-4.3-0.5-5.1-2.9-3.9-6.2c2.1-5.7,4.5-11.2,6.9-17.4c-2.3,0.2-4.4,0.4-8.3,0.7c1.8-2.4,2.9-5.3,3.9-5.2c6.4,0.4,6.2-3.9,6.5-8.1
	c0.1-1,0.2-2,0.3-3.3c1.8,0,3.4,0,5.3,0c0,3.1,0,6.1,0,9.8c1.9,0,3.5,0,5.2,0c-0.2,1.3-0.3,2.7-0.5,4c-1.4,0.4-2.8,0.8-4.1,1.1
	c1.7,2.4,3.4,4.8,5.1,7.2c0.3-0.1,0.6-0.2,0.9-0.4c-0.6-2.7-1.3-5.4-1.9-8.1c4-1,8-1.9,12-2.9c-0.1-0.6-0.3-1.1-0.4-1.7
	C145.2,537.3,141.5,537.6,137.8,537.9z"/>
<path id="XMLID_53_" d="M262.7,580.2c7,0.8,7,0.8,7-6.1c0-4.1,0-8.2,0-12.9c-3.6,0.3-6.5,0.6-9.4,0.8c-0.3-5.4-0.7-10.5-0.8-15.5
	c0-0.9,1.1-2.1,2-2.7c4.8-2.8,17.3-2.2,21.9,1c0.4-0.7,0.8-2,1.3-2c9.3-0.3,7.7-8.4,9.8-13.8c0.2-0.5,0.4-0.9,0.9-1.7
	c1.6,0.5,3.2,0.9,5.1,1.5c-0.8,4-1.6,7.6-2.6,12c2.9-0.2,5.3-0.4,8.5-0.6c-1.6-3.3-2.9-6-4.4-9.1c1.4-0.9,2.8-1.7,4.6-2.9
	c2.1,3.9,7.1,6.5,2.3,11.9c1.9,0.2,3.4,0.4,5.2,0.6c0.1,1.4,0.2,2.7,0.3,4.6c-3.7,0-7,0-11.1,0c-0.4,10.4-0.9,20.4-1.1,30.4
	c0,1.3,1.6,2.5,2.5,3.8c1.1-1.3,2.4-2.5,3.1-4c0.6-1.1,0.3-2.7,0.6-5.7c2.4,2.2,5.3,3.7,5.2,4.9c-0.3,3.1-1.2,7.6-3.3,8.9
	c-7.9,4.7-14.3,0.5-14.3-8.6c0-9.3,0-18.6,0-27.4c-2.3,12.3-4.8,25.2-7.2,38.3c-4.8,0-6.2-2.6-5-7c-6.6,0.6-4.4-6-7.7-8.7
	c-0.2,3.4-0.3,6.5-0.5,9.7c-0.2,4.6-2.9,6-7.2,6.3C263.7,586.5,262.8,583.9,262.7,580.2L262.7,580.2z M284.8,571.7
	c1.7-8.5,3.2-15.9,4.6-23.3c0.1-0.5-0.1-1-0.3-1.9c-1.8,0.3-3.5,0.6-5,0.8c0,4.5,0,8.4,0,12.2c-8.8,1.7-8.8,1.7-8.2,5.2
	c1.4-0.4,2.8-0.8,4.4-1.3C281.8,565.9,283,568.2,284.8,571.7z M278.9,555.1c-1.2-3-1.5-6.7-3.4-7.8c-1.8-1.1-6.1-0.7-7.6,0.8
	c-1.6,1.6-1.2,5.2-1.7,8.5C270.7,556.1,274.2,555.7,278.9,555.1z"/>
<path id="XMLID_50_" d="M441.3,564c6.2-3.1,7-6.8,4.2-17.5c-3.8-1-5.2,0.5-5.1,4.4c0.2,6.9,0.1,13.8,0.1,21.1c-2.2,0-3.8,0-5.7,0
	c0-7.7,0-15.3,0-23c-4.3-0.2-6.5,1.1-6.2,5.7c0.3,5.5-0.1,11.1,0.1,16.6c0.2,6.4,0.8,7,7.4,6.9c2.1,0,4.1-0.4,6.2-0.4
	c4.2,0,6.7-1.5,5.4-8.2c2.8,1.9,5.2,2.7,5.6,4c0.8,3,0.8,7.2-3.1,7.6c-7.3,0.8-14.8,0.9-22.1,0.5c-3.9-0.2-4.9-4-4.9-7.5
	c-0.1-7.1,0-14.1,0-21.3c-3.1-0.6-5,0-5.3,3.3c-0.1,1.2-0.5,2.4-1.1,3.4c-2.9,5-2.6,9.2,2.3,12.8c1.1,0.8,1.8,2.6,1.9,4
	c0.1,0.9-0.9,2.2-1.8,2.8c-0.5,0.3-1.9-0.4-2.5-1c-1.8-1.8-3.4-3.9-5.5-6.2c-2.2,3-4,5.9-6.3,8.5c-0.9,1-2.7,1.1-4.1,1.7
	c-0.2-1.7-1.2-3.8-0.5-5c1.8-3.3,4.3-6.1,7.1-9.9c-13.3-6.1-4.9-15.4-3.6-24c-1.6,0-2.8,0-5.3,0c3-6.1,12.1-6.8,9.9-15.2
	c2.8,0.7,4.4,1.1,6.2,1.6c-0.8,2.6-1.5,4.9-2.2,7.1c8,1.8,8,1.8,8.1,10.4c2.4-0.8,2.4-0.8,4.1-13.5c1.5-0.2,3-0.4,4.9-0.6
	c0,4,0,7.4,0,12.1c2.1-1.2,4.5-1.8,4.9-3.1c0.7-2,0.1-4.4,0.1-6.7c-0.1-2-0.2-4.1-0.3-6.6c1.9,0.1,3.5,0.2,5.6,0.3
	c0.1,2.3,0.2,4.3,0.3,6.3c0.1,1.9,0.2,3.8,0.2,5.4c0.5,0.4,0.8,0.7,1.1,0.7c9.4-0.2,10.7,1,10.9,10.4c0.1,3.1,0.2,6.3-0.1,9.3
	c-0.4,3.1-2.1,5.3-5.5,4.8C444.8,566,443.1,564.8,441.3,564z M415.5,542.6c-4.2-1.2-6,0.4-6.2,3.3c-0.4,5.4-7.4,10.9,0.9,17.2
	C412.1,555.8,413.8,549.3,415.5,542.6z"/>
<path id="XMLID_45_" d="M73,543.4c10.3,2.6,12.8,7.8,10.7,22.7c-3.1,0.2-6.3,0.4-9.7,0.6c0,4.1,0,7.6,0,11.7c3.7,0,7.3,0,10.8,0
	c0.3,0.4,0.7,0.8,1,1.2c-1,1.2-1.9,3.5-3,3.6c-10.8,1-21.6,1.6-32.9,2.3c0-9.1-0.2-18.6,0.1-28c0.1-6,0.8-12.1,1.2-18.1
	c0.1-1-0.1-2.5-0.7-3.1c-2.6-2.8-2.4-5.2,1.2-5.6c10.1-1.1,20.3-1.6,30.4-2.2c0.8,0,1.7,1.5,2.6,2.2c-0.9,0.7-1.8,2-2.8,2.1
	c-2.9,0.3-5.8,0.1-8.9,0.1C73,536.8,73,540.1,73,543.4z M77.6,561.3c0-2.3,0.4-4.5-0.1-6.4c-0.6-2-2.2-5.3-3.1-5.2
	c-5.7,0.6-11.7,1.3-16.9,3.5c-1.4,0.6-0.8,6.3-1,9.6c0,0.1,0.2,0.3,0.2,0.5C63.4,562.7,70.3,562.1,77.6,561.3z M67,567.5
	c-11.8,0.7-13,2-10.5,12C68.5,579.7,68.6,579.5,67,567.5z M66.1,534.3c-8.5-0.6-9.6,1.2-8.4,12.6c3-0.7,5.9-1.5,9.1-2.3
	C66.5,541.1,66.3,537.9,66.1,534.3z"/>
<path id="XMLID_44_" d="M383.4,556.6c-1.4,0.8-2.8,2.3-4.2,2.3c-7.2,0.2-14.4,0.1-22.2,0.1c0.3,2.7,0.4,4.3,0.5,5.6
	c7.5,0.4,14.5,0.7,21.4,1.2c0.3,0,0.4,1.8,0.7,3.2c-6.3,0.4-12.2,1-18.2,1.1c-3.5,0.1-4.6,1.6-3.9,5.2c6.6,1.4,13.4,2.7,20.1,4.1
	c4.4,1,4.4,1.1,3.7,6.4c-7.2-1.4-14.4-3-21.6-4.3c-6.4-1.2-13-1.6-19.4-3.1c-4.6-1.1-7,0.4-8.9,4.4c-0.5,1.2-2.3,1.8-3.6,2.7
	c-0.6-1.9-2.4-4.5-1.7-5.7c3.3-5.7,7-11.1,11.1-16.2c0.8-1,3.9-0.1,7-0.1c-2.7,4-4.4,6.5-6.5,9.5c4.7,0.6,8.7,1,13.2,1.6
	c0-5,0-9.4,0-14.9c-8.4,1.1-16.7,2.1-25.1,3.1c-0.5-3.6,0.8-5.1,4.1-5.3c17.3-1.3,34.6-2.6,52-4C382.6,554.5,383,555.6,383.4,556.6z
	"/>
<path id="XMLID_40_" d="M331.9,552.7c0.3-3.1,0.9-6.2,0.7-9.2c-0.2-2.7,2.6-6.2-1.5-8.2c0.9-1.6,1.6-4.5,2.6-4.6
	c12.2-1,24.3-1.8,36.5-1.9c1.8,0,4.6,3.7,5.2,6.1c1.2,4.8,1.3,9.8,1.8,15.1C361.9,551,347.2,551.8,331.9,552.7z M338,545.9
	c0.4,0.5,0.8,1.1,1.2,1.6c10.3-0.5,20.6-1,30.9-1.6c0.8-3.1,0.1-4.8-3.3-4.5c-8.4,0.6-16.9,1.1-25.3,1.9
	C340.2,543.4,339.1,545,338,545.9z M369.2,536.6c-1.9-4.4-11.6-5.3-26.4-2.6c-1.4,0.3-2.5,1.8-3.8,2.7c0.3,0.4,0.6,0.8,0.9,1.3
	C349.7,537.5,359.4,537.1,369.2,536.6z"/>
<path id="XMLID_39_" d="M207.4,451.2c0,9.2,0,18.3,0,27.5c0,3,0.1,6.3-4.1,6.4c-3.6,0-4.5-2.6-4.5-5.7c-0.2-19-0.4-38.1-0.6-57.1
	c0-3.1,1-5.5,4.7-5.5c3.8,0.1,4.2,2.8,4.2,5.8c0,9.5,0,19,0,28.6C207.2,451.2,207.3,451.2,207.4,451.2z"/>
<path id="XMLID_35_" d="M173.6,585.4c-10.9,0.6-21.1,1.1-31.4,1.7c0-4,0-8,0-11.9c0-0.9,0.1-1.7,0-2.6c-0.5-8.2-0.5-8.4,7.7-9.1
	c5.3-0.5,10.7-0.7,16-0.1c2.3,0.3,5.6,2.8,6.1,4.9C173.2,573.8,173.1,579.6,173.6,585.4z M146.4,581.4c7.8,0,14,0,20.6,0
	c-0.1-2-0.2-3.5-0.4-5.5c-5.8,0.4-11.2,0.6-16.6,1.3C149,577.4,148.1,579.5,146.4,581.4z M166.8,571.7c-1.9-4.4-6.2-5.4-14.7-3.6
	c-1.5,0.3-2.7,1.9-4.1,2.9c0.3,0.5,0.6,1,0.9,1.6C154.6,572.3,160.4,572,166.8,571.7z"/>
<path id="XMLID_34_" d="M103.4,568.1c-2.9-3.7-5.5-7.1-8.1-10.5c-0.4,0-0.8,0.1-1.2,0.1c0,9.3,0,18.5,0,28c-2.7,0-4.3,0-5.8,0
	c-0.6-19.3-1.2-38.4-1.8-57.8c1.6,0,3.4,0,5.3,0c0.2,0.3,0.5,0.6,0.5,0.9c0.4,5.9-0.4,12.2,1.6,17.4c1.9,4.8,7,8.5,10.7,12.6
	C107.6,562,108,565,103.4,568.1z"/>
<path id="XMLID_33_" d="M196.5,532.8c1.2,0,2.8,0,4.8,0c0,12.6,0,25.2,0,37.7c-4.4,0.9-4.7,0.9-4.7-2.9
	C196.4,556.2,196.5,544.9,196.5,532.8z"/>
<path id="XMLID_32_" d="M542.9,532.8c1.3,0,2.9,0,4.8,0c0,12.8,0,25.3,0,37.9c-3.6,1.3-4.9,0.2-4.8-3.3
	C543,556.1,542.9,544.7,542.9,532.8z"/>
<path id="XMLID_31_" d="M479.2,570.9c-3.6,1-4.9,0.1-4.8-3.3c0.1-11.4,0.1-22.7,0.1-34.7c1,0,2.7-0.1,4.8-0.2
	C479.2,545.5,479.2,558.1,479.2,570.9z"/>
<path id="XMLID_30_" d="M267.1,529.7c3.1-1.6,5.5-2.3,7,1.5c1.4,3.6,4.6,2.4,7.1,2.1c3.3-0.4,5.1,0.3,4.4,4.2
	c-9.7,0.9-19.4,1.7-29.9,2.6c1.9-7.4,8.1-4.3,12.3-6.3C267.8,532.6,267.5,531.3,267.1,529.7z"/>
<path id="XMLID_29_" d="M262.9,580c-0.9,1.3-1.8,2.5-2.8,3.9c-4-0.8-5.3-3-3.6-6.6c2.1-4.5,4.4-8.9,6.8-13.8c1.9,1,3.3,1.8,5,2.6
	c-2,4.9-3.8,9.4-5.6,14C262.7,580.2,262.9,580,262.9,580z"/>
<path id="XMLID_28_" d="M196.1,583c0-2.7,0-5.1,0-7.9c1.7,0,3.2,0,5,0c0,2.6,0,5,0,7.9C199.6,583,198,583,196.1,583z"/>
<path id="XMLID_27_" d="M474.1,582.8c0-2.7,0-5,0-7.7c1.7-0.1,3.1-0.2,4.5-0.3C480.7,582.2,480,583.5,474.1,582.8z"/>
<path id="XMLID_26_" d="M547.7,574.8c0,3.1,0,5.5,0,8.2c-1.7,0.1-3.1,0.2-5,0.4c0-2.8,0-5.3,0-8.3
	C544.2,575,545.7,574.9,547.7,574.8z"/>
<path id="XMLID_22_" d="M268,244.1c10.2,0.7,20.3,1.3,30.5,2c5.2,0.3,8.1,3.2,9.2,8.2c3.5,15.4,7.2,30.8,10.5,46.3
	c2,9.4,3.5,19,5.1,28.5c0.3,1.9,0.2,3.8,0.2,5.7c-0.3,9.9-4.4,12.7-14.2,10.5c-5.1-1.1-10.5-1.5-15.8-1.5c-6.3,0-12.6,0.8-18.9,1.3
	c-1,0.1-2,0.4-3.1,0.4c-14.7-0.3-29.4-0.7-44.2-1.1c-0.7,0-1.4,0-2-0.2c-3.1-1.2-9.5-14.7-8.4-18c1.1-3.6,1.7-7.6,3.8-10.5
	c5.8-7.9,4.7-16.2,3.8-25.1c-1-8.8-0.6-17.8,0.4-26.6c1.2-11.2,6.7-16.2,17.9-18c4.2-0.7,8.5-1.2,12.8-1.4c4.1-0.2,8.3-0.1,12.4-0.1
	C268,244.3,268,244.2,268,244.1z M314.4,339.5c5.1-3.7,1-8.7,1.5-13.2c0.9-8.5-5.1-10.7-11-13c-3.8-1.5-7.2-0.5-11.3,0.8
	c-8,2.6-16.6,3.5-24.9,5.1c-0.8,0.1-1.7-0.5-2.5-0.5c-4.2,0.2-8.5-0.1-12.5,0.9c-4,0.9-7.4,1.4-10.5-1.8c-3.1-3.2-6.4-2.8-10.5-1.8
	c-5.5,1.3-6.2,5.5-7.6,9.7c-1.2,3.6,2,11.3,5.5,11.8c7.4,0.9,14.7,3.4,22.5,0.7c3.3-1.1,7.4-0.7,11,0c4.1,0.8,7.8,1.1,12-0.1
	c5.2-1.5,10.9-0.9,16.4-1.8C299.2,335.2,306.7,338.2,314.4,339.5z M231.7,265c23.9,6.1,47.6,7.3,70.6-1.8c-0.3-9.5-4.8-12-12.7-11.8
	c-15.6,0.6-31.3,0-46.9,0.8C234.9,252.6,231.3,257.6,231.7,265z"/>
<path id="XMLID_21_" d="M249.3,190.2c-0.8,1.3-1.4,3-2.5,3.7c-0.8,0.5-2.7,0-3.6-0.7c-3.7-3-7.6-6-10.8-9.6
	c-5.7-6.4-13.4-8.9-21.2-10.2c-6.9-1.1-14.1-0.9-21.2-0.6c-8.9,0.4-16.6,3.1-21.9,11.3c-3.5,5.3-8.7,9.5-12.7,14.6
	c-2.3,2.9-3.2,6.9-5.4,9.8c-1,1.3-3.9,1.2-6,1.7c-0.4-2-1.8-4.5-1.1-5.8c7.3-14.2,15.7-27.8,30.4-35.6c4.6-2.4,9.9-4.3,15-4.8
	c15.7-1.7,30.5,0.2,44.3,9.5c6.1,4.1,11.7,7.9,15.3,14.3C248.2,188.4,248.7,189.1,249.3,190.2z"/>
<path id="XMLID_20_" d="M285.2,188.2c1.7-1.9,3.6-3.5,4.8-5.5c8.2-14.1,20.6-20.1,36.6-19.8c10.9,0.2,20.2,4,29.4,9.5
	c8.4,5,14.1,12.2,20.2,19.3c0.9,1,2.1,2.3,2.1,3.5c-0.1,2-1,3.9-1.5,5.9c-1.9-0.7-4.5-0.8-5.5-2.2c-8.7-11.1-18.3-21.2-32.1-25.4
	c-9.7-2.9-20-2.2-29.5,1.1c-3.9,1.3-7,5.6-9.9,9c-3,3.5-5.4,7.6-8.1,11.2c-3.2,4.2-6.7,4.1-12.3-0.5c-2.2-1.8-4.7-3.4-6.4-5.5
	c-0.9-1.1-1.1-3.9-0.3-5c0.8-1,3.6-1.6,4.8-1C280.2,184,282.5,186.2,285.2,188.2z"/>
<path id="XMLID_19_" d="M231.4,237c-9.9,0-19,0-28.1,0c-7.8,0-15.5,0.2-23.3,0c-1.4,0-2.8-1.7-4.1-2.6c1.5-0.9,2.9-2.6,4.4-2.6
	c15.7-0.4,31.4-0.6,47-0.8C232.5,230.9,232.4,233.9,231.4,237z"/>
<path id="XMLID_18_" d="M355.6,238.4c-7.3,0-14.5,0.2-21.6-0.1c-8.2-0.3-16.5-0.8-24.7-1.6c-1.5-0.1-2.9-1.9-4.4-3
	c1.6-0.9,3.2-2.7,4.8-2.7c13.9,0.6,27.8,1.5,41.7,2.3C355,233.6,356.5,235,355.6,238.4z"/>
<path id="XMLID_17_" d="M210.5,202.6c0.8,0.9,3.6,2.7,4.2,5c1,4-2.2,7.2-6.1,7c-3.5-0.2-5.8-1.8-5.8-5.8
	C202.8,205.1,204.2,202.6,210.5,202.6z"/>
<path id="XMLID_16_" d="M317.7,214.3c-5.3,0.6-6.1-3.2-6.2-6.5c-0.1-4,3.4-4.8,6.6-4.9c3.5-0.2,5.7,1.7,5.7,5.2
	C323.8,211.9,322,214.7,317.7,214.3z"/>
</svg>
