<?xml version="1.0" encoding="utf-8"?>
<!-- Generator: Adobe Illustrator 19.0.0, SVG Export Plug-In . SVG Version: 6.00 Build 0)  -->
<svg version="1.1" id="图层_1" xmlns="http://www.w3.org/2000/svg" xmlns:xlink="http://www.w3.org/1999/xlink" x="0px" y="0px"
	 viewBox="0 0 595.3 595.3" style="enable-background:new 0 0 595.3 595.3;" xml:space="preserve">
<style type="text/css">
	.st0{fill:#FFFFFF;}
</style>
<path id="XMLID_80_" class="st0" d="M3,604.3C3,405,3,205.7,3,6.3"/>
<path id="XMLID_79_" class="st0" d="M602.8,6.3c0,199.3,0,398.6,0,597.9"/>
<path id="XMLID_75_" class="st0" d="M338.7,511.1c-0.8-1.4-1.2-3.5-2-3.6c-1.5-0.2-3.7,0.1-4.8,1c-4.4,3.9-9.9,4.1-14,0.3
	c-1.1-1-3.2-1.3-4.7-1c-0.7,0.2-0.8,2.6-1.2,4.2c-3.2,1.4-8.7-1.3-10.8,5.1c6.3-0.5,12-1,17.8-1.2c1.3,0,2.5,1.1,4.4,2
	c-7.1,4.1-15.4-0.6-19.9,6.6c5.1,0.1,10-0.6,14.9-0.9c1.3-0.1,2.8,1.2,4.2,1.8c-1.3,0.8-2.6,2.2-4,2.5c-4.9,0.8-9.9,0.9-14.9,1.7
	c-1.7,0.3-3.1,2-4.7,3.1c0.3,0.4,0.5,0.9,0.8,1.3c7.5-0.8,14.9-1.6,22.2-2.5c1.5,3.8,0.3,5.2-3,5.4c-4.8,0.3-9.6,0.7-14.4,1.3
	c-2.3,0.3-4.7,0.9-3.4,4.5c5.3-0.5,10.3-1.1,15.4-1.6c-5.2,4.4-10.6,7.7-15.6,11.5c-1.2,0.9-1.3,3.2-1.8,4.9
	c1.5-0.1,3.4,0.2,4.6-0.5c5.8-3.6,11.6-7.2,17.1-11.2c3.2-2.3,5.7-2.2,8.9-0.1c6.4,4.4,13.1,8.4,19.6,12.6c3.1-3,2-5.2-0.9-7
	c-5.4-3.5-10.9-6.9-17.3-11c6.9-0.4,12.8-0.8,18.6-1.1c0.2-0.5,0.4-1.1,0.6-1.6c-1.3-0.7-2.5-1.9-3.8-1.9c-4.8-0.1-9.6,0.1-14.5,0.4
	c-3.6,0.2-4.2-1.6-3.4-5.3c6.4,0,12.7,0.1,19-0.1c1.3,0,2.5-1.3,3.8-2c-0.2-0.6-0.4-1.1-0.7-1.7c-6.3,0-12.6,0.1-18.9-0.1
	c-1.2,0-2.5-1.3-3.7-2c1.2-0.7,2.4-1.9,3.7-2.1c4.1-0.4,8.3-0.3,12.5-0.6c0.8-0.1,1.6-1.1,2.4-1.7c-0.8-0.6-1.6-1.6-2.4-1.7
	c-4.3-0.1-8.7,0.1-13,0c-1.1,0-2.2-1.1-3.4-1.7c1.1-0.6,2.1-1.8,3.2-1.9c6.1-0.2,12.2-0.1,19.6-0.1
	C347.5,508.3,341.7,513,338.7,511.1z"/>
<path id="XMLID_74_" class="st0" d="M129,513c-0.6,13.9-1.3,28.3-1.6,42.7c0,1.4,2.9,2.9,5.4,5.2c0.6-12.6,1.2-23.4,1.7-34.1
	c0.5,0,0.9-0.1,1.4-0.1c3.9,10.7,7.7,21.4,11.5,32c4.3,1.2,6.3-0.4,7.6-4.6c2.9-9.1,6.5-18,9.8-27c0.6,0.1,1.1,0.1,1.7,0.2
	c0,10.5,0,21.1,0,31.7c5,0.5,7-0.9,6.9-5.1c-0.3-6.5-0.3-13-0.7-19.4c-0.5-7.4-1.3-14.8-1.9-22c-5.9-1.2-6-1.2-8,3.7
	c-4.2,10.2-8.3,20.5-12.6,30.9c-4-10.2-8.1-20-11.7-30C137,512.8,134.7,510.9,129,513z"/>
<path id="XMLID_72_" class="st0" d="M361,435.6c-0.1,0-0.1,0-0.2,0c0,9,0.1,18,0,27c0,2.7,0.2,5.8,3.4,5.3c1.8-0.2,3.5-3.1,4.8-5
	c0.6-0.8,0.4-2.3,0.4-3.4c0.2-17,0.3-33.9,0.4-50.9c0-3.1-0.6-5.7-4.6-5.7c-4.3-0.1-4.2,2.9-4.2,5.8C361,417.7,361,426.7,361,435.6z
	"/>
<path id="XMLID_70_" class="st0" d="M82.2,518.1c0.3,0.4,0.6,0.9,0.9,1.3c5.2-0.6,10.3-1.3,16.2-2c0,14.2,0,27.7,0,41.1
	c2.6,0,4.5,0,6.5,0c0-14,0-27.6,0-41.8c5.4,0,10.5,0,15.6,0c0.4-0.5,0.7-1,1.1-1.5c-1.1-1.2-2.3-3.4-3.3-3.4
	c-10.9,0.5-21.8,1.2-32.7,2.3C84.9,514.4,83.6,516.8,82.2,518.1z"/>
<path id="XMLID_69_" class="st0" d="M509.8,546.9c0-12.3,0-24.4,0-36.8c-2,0.1-3.7,0.2-4.6,0.2c0,11.6,0.1,22.5,0,33.4
	C505.1,547,506.3,547.9,509.8,546.9z"/>
<path id="XMLID_68_" class="st0" d="M576.8,546.9c0-12.3,0-24.4,0-36.8c-2,0.1-3.7,0.2-4.6,0.2c0,11.6,0.1,22.5,0,33.4
	C572.1,547,573.4,547.9,576.8,546.9z"/>
<path id="XMLID_67_" class="st0" d="M438,510.2c0,12.5,0,24.6,0,36.8c1.9,0,3.2,0,4.8,0c0-12.3,0-24.5,0-36.8
	C441,510.2,439.5,510.2,438,510.2z"/>
<path id="XMLID_66_" class="st0" d="M259.9,527.5c3.2,6.3,6.4,12.6,9.7,19.1c3.9-1.6,5.4-3.9,3.2-7.8c-1.9-3.5-3.9-6.9-5.7-10.5
	C265.1,524.2,262.8,524.5,259.9,527.5z"/>
<path id="XMLID_65_" class="st0" d="M437.9,551c0,2.7,0,5.1,0,7.4c5.6,0.7,5.8,0.3,4.7-7.4C441.1,551,439.6,551,437.9,551z"/>
<path id="XMLID_64_" class="st0" d="M504.8,558.5c5.8,0.5,6.1,0,4.7-7.4c-1.5,0-3,0-4.7,0C504.8,553.7,504.8,556,504.8,558.5z"/>
<path id="XMLID_63_" class="st0" d="M576.9,551c-1.9,0-3.3,0-5,0c0,2.6,0,5,0,7.6c1.8,0,3.3,0,5,0
	C576.9,555.9,576.9,553.7,576.9,551z"/>
<path id="XMLID_53_" d="M398.8,0.1c-3.4,5.1-7.1,10-10.2,15.3c-2.5,4.2-4.4,8.8-6.3,13.4c-4.2,10-8.5,20-12.1,30.2
	c-3,8.4-5.5,17-7.3,25.8c-1,4.6-3.4,5.9-7.2,5.6c-6.6-0.4-13.2-1.4-19.8-1.6c-15.1-0.5-30.2-1.3-45.3-0.6c-12.4,0.5-24.8,2.2-37,4.7
	c-17.8,3.5-34.6,10.3-50.5,18.8c-18.5,9.9-34.4,23.6-47.3,40.1c-9.8,12.6-17.1,27-23.5,41.9c-7.8,18-9.6,36.5-7.9,55.5
	c0.8,8.5,3.1,16.9,5.4,25.2c5.4,19.6,18.2,34.6,32.3,48.3c5.7,5.6,13.3,9.1,19.9,13.8c11.3,8.1,24.5,12.1,37.3,16.8
	c6.2,2.2,12.9,3,19.4,4.1c13.6,2.3,27.1,5,40.8,6.3c24.6,2.3,49.2,0.9,73.6-3.6c11.7-2.2,23.7-3.8,34.8-7.8
	c16-5.8,31.1-13.6,42.8-27.2c14.1-16.4,23.4-34.7,30-55.2c6.5-20.2,6.9-40.3,4.4-60.6c-2.1-16.7-7.8-32.5-16.7-47.2
	c-9.2-15.1-19.4-29.1-32.8-40.7c-6.9-6-14.3-11.4-21-17.6c-1.3-1.2-1.5-5.2-0.6-7.1c3.5-7.4,7.5-14.6,11.5-21.8
	c8.6-15.4,14-31.9,18.6-48.8c2.4-8.8,1.2-17.5-1.2-26.1c3.7,0,7.3,0,11,0c3.7,13.5,1.8,26.5-3,39.3c-3.6,9.7-6.7,19.7-10.7,29.3
	c-3.3,7.8-7.6,15.1-11.5,22.6c-1.3,2.4-2.7,4.8-4.3,7.5c3.9,3.1,7.8,5.6,11,8.9c10.3,10.4,20.6,20.8,30.3,31.8
	c11.9,13.6,19.2,30,25,46.8c3.2,9.3,3.2,19.6,5,29.4c3.4,19.3-0.7,38.2-4.4,56.9c-1.7,8.5-6.9,16.3-10,24.6
	c-3.8,10.3-10,19.2-16.8,27.5c-7.8,9.6-17,17.9-27.4,25c-9.3,6.3-20.3,7.6-30.1,12.2c-3.5,1.7-7.5,2.6-11.4,3.3
	c-4.3,0.8-3.7,3.2-1.7,5.1c11.5,10.7,15.1,25.2,19.3,39.5c3.8,13,6,26.1,7.1,39.6c0.5,6.1-1.9,9.2-8,12.4
	c-0.6-7.1-0.9-13.6-1.7-20.1c-1.9-16.5-3.4-33.1-11.1-48.2c-3.4-6.7-7.8-12.9-12.3-19c-2.7-3.7-6.7-4.6-11.5-3.9
	c-36.2,5.1-72.4,4.6-108.5-0.3c-5-0.7-9.9-2.9-14.9-3.8c-3.3-0.6-7.2-1.2-10,0.1c-24.2,11.4-48.4,22.7-72.1,35.1
	c-17.5,9.1-33.2,21.1-46.9,35.4c-5.2,5.4-9.6,11.6-10.8,19.6c3.1-3.8,6.3-7.6,9.4-11.4c6.3-7.6,8.3-7.3,14.9,0.2
	c4.4,5,9.5,9.6,14.9,13.5c4.4,3.2,7,1.9,9.4-3.1c4.2-8.8,8.8-17.5,12.4-26.6c2.2-5.6,5.7-9.7,10.6-12.7c12.4-7.5,25.2-13.8,39.6-17
	c11.1-2.4,19.6,0.8,25.4,10c5.5,8.7,9.9,18.2,15.2,27.1c5.4,8.9,6.3,18.9,8.3,28.6c0.6,3.1,0,5.9-3.4,6.7c-3.4,0.8-5.6-1.1-6.7-4.4
	c-3.4-10.5-6.5-21.2-10.6-31.5c-3.5-8.8-7.1-17.7-14.6-24.5c-4-3.6-8.6-3.9-12.9-2.6c-11.9,3.5-23.2,8.8-33.9,15.3
	c-6,3.7-8.2,9.6-10.9,15.4c-3.2,6.9-6.1,14-9.5,20.8c-5,10.3-14.9,13.2-24.4,6.9c-5-3.4-9.3-7.8-13.9-11.8c-0.8-0.7-1.7-1.5-2.2-1.9
	c-5,4.8-9.8,9.4-14.6,13.9c-0.7,0.7-1.5,1.4-2.4,1.7c-3.3,1-6.5,3.8-10.2,0.7c-3.4-2.9-3.3-6.5-2.6-10.4
	c2.5-14.7,11.4-25.5,21.8-35.3c16.6-15.7,35.8-27.8,55.9-38.3c17.3-9,35-17.3,53.1-26.3c-4.7-1.8-9.4-3.5-14-5.3
	c-4-1.6-8.1-3.2-11.9-5.2c-6-3.1-12.1-6.3-17.7-9.9c-16.3-10.6-28.8-24.9-38.7-41.3c-4.5-7.4-6.9-16-9.9-24.2
	c-6.7-18.6-7.2-37.9-4.5-57.1c1.1-8.2,4.6-16.2,7.6-24c3.3-8.5,6.8-16.9,11.2-24.8c10.3-18.1,22.6-35,39.5-47.4
	c8.2-6,15.1-14,25.7-16.9c6.5-1.8,12-7,18.4-9.6c7.6-3.1,15.7-5.1,23.5-7.6c3.3-1,6.6-2,10.2-3c1.3-28.3,2.8-56.5,14.3-83.1
	c4,0,8,0,12,0c-0.5,1.7-0.8,3.4-1.5,5c-1,2.3-2.4,4.5-3.5,6.8c-5.6,12.4-7.9,25.6-9.2,38.9c-1,9.6-0.2,19.5-0.2,29.7
	c2.8-0.4,5.5-1,8.3-1.3c9.7-1,19.5-2,29.2-2.9c3.3-0.3,4.4-2,4.9-5.1c1.5-10.3,3.6-20.6,4.6-30.9c1.3-13.5,3-27.1-2.6-40.2
	c4.3,0,8.7,0,13,0c4.2,25.6,0.8,50.5-6.3,75.4c13.3,1.2,26.1,2.3,39.2,3.4c3.1-9.3,6-18.6,9.2-27.9c2.7-7.6,5.2-15.3,8.5-22.6
	c4.4-9.6,9.5-18.9,14.3-28.3C389.5,0.1,394.2,0.1,398.8,0.1z"/>
<path id="XMLID_48_" d="M39.7,536c-0.4,1.1-0.7,2.2-1.4,3.2c-2.7,4.2-2,7.2,1.9,10.6c4.4,3.8,4.1,5.5-0.1,8.7
	c-2.3-2.5-4.5-5.1-7.2-8.1c-2.6,3.4-4.8,6.6-7.4,9.6c-0.8,0.9-2.6,0.8-4,1.2c-0.2-1.6-1.2-3.7-0.6-4.7c2.2-3.5,5-6.6,7.3-9.5
	c-1.3-5-8.9-5.1-7.5-11.2c1-4.4,2.4-8.7,3.6-13c-1.2-0.5-3-0.7-3.4-1.6c-0.4-0.8,0.4-3.2,1-3.4c6.2-1.5,6.2-7,8.1-11.4
	c0.1-0.3,0.5-0.5,1.1-1.1c1.4,0.3,3.1,0.7,5,1.2c-0.9,2.8-1.6,5.1-2.4,7.4c0.4,0.3,0.7,0.6,1,0.7c9.7,1,10,1.4,7.7,11.1
	c-0.5,2.1-1,4.2-1.6,6.7c5-0.8,9.6-1.6,14.8-2.4c-0.7-2.3-1.3-4.4-1.9-6.6c4.9-3.7,9.6-7.2,14.4-10.8c-0.1-0.6-0.3-1.2-0.4-1.8
	c-8.1,1-16.3,2.1-24.4,3.1c-0.3-0.3-0.6-0.6-1-1c1.5-1.4,2.9-3.9,4.6-4.2c7.6-1,15.2-1.6,22.8-1.9c1.4-0.1,3.9,1.4,4.2,2.6
	c0.4,1.8,0,4.5-1.2,5.8c-2.8,3-6.4,5.3-9.5,8.1c-1,0.9-1.5,2.5-2.2,3.8c1.4,0.7,2.8,1.9,4.3,2.1c2.8,0.3,5.7,0,8.5-0.1
	c3.3-0.2,3.4,1.5,2.8,4.1c-4.4,0.4-8.7,0.7-12.7,1c0,6,0.2,11.6-0.1,17.2c-0.4,7.6-4.1,10.6-11.7,10c-3.2-0.2-4.5-1.6-4-4.7
	c10-1.1,10.9-2.2,10.2-12.9c-0.2-2.9-0.6-5.8-1-9.2c-3.4,0.5-6.3,0.8-9.3,1.3c-2.5,0.4-5,0.8-7.4,1.2C40.2,536.8,40,536.4,39.7,536z
	 M38.1,520.2c-4.9-1.6-7.1-0.2-8,3.8c-0.6,2.6-1.3,5.2-2.3,7.6c-1.9,4.4-0.5,7,4.4,9C34.2,533.7,36.1,527.1,38.1,520.2z"/>
<path id="XMLID_43_" d="M395.6,536.1c0-3.7,0.6-7.5-0.2-11c-0.7-3.5,0.2-4.9,3.2-5.9c7.9-2.5,11.4-0.6,12.2,7.5
	c0.5,4.6,0.1,9.2,0.1,13.9c-5.1,0.7-10.2,1.3-15.1,2c-1.4,8.3-2.4,9.1-10.3,8.9c-0.1,1.4-0.2,2.8-0.2,4.2c0,1.5,0,3,0,5
	c-1.6,0.1-3.1,0.2-4.6,0.2c0-14.5,0.1-28.6-0.1-42.7c0-2.1-1-4.2-1.3-6.3c-0.1-1.4,0.1-3.9,0.5-4c4.2-1,8.5-1.7,12.8-2.2
	c1.8-0.2,3.8,1,5.7,0.8c6.8-0.4,13.5-1.2,20.4-1.8c-0.5,4.9-1.3,9.5-1.4,14c-0.2,11.6,0.1,23.3,0,34.9c0,5.8-5,9.2-10.3,7
	c-1.3-0.5-2-2.5-3.2-4.2c8-0.9,8.1-0.9,8.1-8.4c0.1-10.5,0-21-0.1-31.5c0-2.1-0.5-4.2-0.8-6.9c-5,0.6-9.6,1.1-14.2,1.7
	c-0.7,0.1-2,0.7-2,1.1c-0.3,6.1-5.6,11.6-2.3,18.2c0.9,1.7,1.3,3.6,2,5.4C395,536.1,395.3,536.1,395.6,536.1z M406.3,536.6
	c-0.4-4.2-0.7-7.8-1.1-11.4c-0.1-0.8-1-1.5-1.5-2.2c-0.7,0.8-2,1.5-2,2.3c-0.2,3.8-0.1,7.5-0.1,11.5
	C402.9,536.7,404.2,536.7,406.3,536.6z M385.9,547.4c1.5-1.1,3.2-1.7,3.3-2.6c0.8-5-0.3-9.8-3.3-14.1c-0.6,4.5-0.6,8.9-0.6,13.3
	C385.3,544.9,385.6,545.7,385.9,547.4z M389.4,510.3c-0.6-0.1-1.2-0.2-1.8-0.3c-2.3,3.3-0.9,7.3-0.3,11.1
	C388,517.4,388.7,513.9,389.4,510.3z"/>
<path id="XMLID_39_" d="M242.7,506.3c-1.6,2.9-2.5,4.6-3.6,6.4c11.7-0.9,11.8-0.8,14.1,10.8c2.5-5.1,5-9.7,7.1-14.5
	c1.7-3.9,3.8-4.6,7.5-2c-1,2.3-1.9,4.6-2.9,7c4.3,0,8.3-0.1,12.2,0c4.1,0.1,6.9,2.2,7,6.3c0.4,11.5,0.6,22.9,0.3,34.4
	c-0.2,5.6-11.1,9.6-15.4,6c-0.9-0.8-1.1-2.6-1.6-3.8c0.7-0.3,1-0.6,1.3-0.6c10.5,0.4,10.6,0.4,10.5-10.5c0-7.3-0.3-14.6-0.3-21.9
	c0-4-1.8-5.7-5.8-5.5c-7.7,0.2-14.5,1.4-15,11.5c-2.2-0.9-3.5-1.4-5.1-2c0,10.2,0,20,0,30c-7.3,1-14.5,1.9-22.4,3
	c0-10,0.1-19.7-0.1-29.5c-0.1-2.8-1.3-5.5-1.9-8.2c-0.3-1.2-0.9-2.9-0.4-3.8c2.5-4.5,5.2-8.9,8.3-13
	C237.2,505.5,240,506.3,242.7,506.3z M236,554.6c3.5-0.3,6.1-0.2,8.4-0.7c1.1-0.2,2.6-1.7,2.7-2.6c0.3-4.7,0.1-9.5,0.1-14.9
	c-3.1,0.4-6,0.6-8.8,1.4c-1,0.3-2.2,1.9-2.3,3C235.8,545.2,236,549.7,236,554.6z M236.3,532.6c10.9-0.5,10.9-0.5,10.5-10.4
	c0-0.3,0.1-0.8,0-1c-0.9-1.4-2.3-4-2.9-3.8c-2.4,0.7-5.9,1.7-6.5,3.5C236.2,524.5,236.6,528.6,236.3,532.6z"/>
<path id="XMLID_38_" d="M338.7,511.1c3,1.9,8.8-2.8,12.1,4.3c-7.3,0-13.4-0.1-19.6,0.1c-1.1,0-2.2,1.2-3.2,1.9
	c1.1,0.6,2.2,1.7,3.4,1.7c4.3,0.2,8.7-0.1,13,0c0.8,0,1.6,1.1,2.4,1.7c-0.8,0.6-1.6,1.6-2.4,1.7c-4.1,0.3-8.3,0.2-12.5,0.6
	c-1.3,0.1-2.5,1.3-3.7,2.1c1.2,0.7,2.4,1.9,3.7,2c6.3,0.2,12.6,0.1,18.9,0.1c0.2,0.6,0.4,1.1,0.7,1.7c-1.3,0.7-2.5,1.9-3.8,2
	c-6.3,0.2-12.6,0.1-19,0.1c-0.8,3.7-0.2,5.5,3.4,5.3c4.8-0.2,9.6-0.5,14.5-0.4c1.3,0,2.6,1.2,3.8,1.9c-0.2,0.5-0.4,1.1-0.6,1.6
	c-5.8,0.3-11.7,0.7-18.6,1.1c6.5,4.1,11.9,7.5,17.3,11c2.9,1.8,3.9,4,0.9,7c-6.5-4.2-13.2-8.2-19.6-12.6c-3.2-2.2-5.7-2.3-8.9,0.1
	c-5.5,4-11.3,7.7-17.1,11.2c-1.2,0.7-3,0.4-4.6,0.5c0.6-1.7,0.7-4.1,1.8-4.9c5.1-3.7,10.5-7,15.6-11.5c-5.1,0.5-10.1,1-15.4,1.6
	c-1.3-3.6,1.2-4.2,3.4-4.5c4.8-0.6,9.6-1,14.4-1.3c3.3-0.2,4.5-1.6,3-5.4c-7.3,0.8-14.7,1.6-22.2,2.5c-0.3-0.4-0.5-0.9-0.8-1.3
	c1.6-1.1,3-2.8,4.7-3.1c4.9-0.8,9.9-1,14.9-1.7c1.4-0.2,2.7-1.6,4-2.5c-1.4-0.6-2.8-1.9-4.2-1.8c-4.9,0.3-9.8,1-14.9,0.9
	c4.6-7.1,12.9-2.5,19.9-6.6c-1.9-0.9-3.2-2.1-4.4-2c-5.8,0.2-11.5,0.7-17.8,1.2c2-6.4,7.6-3.7,10.8-5.1c0.4-1.6,0.6-4.1,1.2-4.2
	c1.4-0.3,3.6,0,4.7,1c4.1,3.7,9.6,3.6,14-0.3c1.1-1,3.2-1.3,4.8-1C337.5,507.6,338,509.7,338.7,511.1z"/>
<path id="XMLID_37_" d="M129,513c5.7-2.1,8-0.2,9.6,4.1c3.7,10,7.7,19.8,11.7,30c4.2-10.5,8.4-20.7,12.6-30.9c2-4.9,2.1-4.8,8-3.7
	c0.6,7.2,1.4,14.6,1.9,22c0.4,6.5,0.4,13,0.7,19.4c0.2,4.2-1.9,5.6-6.9,5.1c0-10.6,0-21.1,0-31.7c-0.6-0.1-1.1-0.1-1.7-0.2
	c-3.3,9-6.9,17.9-9.8,27c-1.3,4.2-3.3,5.8-7.6,4.6c-3.8-10.6-7.7-21.3-11.5-32c-0.5,0-0.9,0.1-1.4,0.1c-0.5,10.7-1.1,21.5-1.7,34.1
	c-2.5-2.3-5.4-3.8-5.4-5.2C127.7,541.3,128.5,526.9,129,513z"/>
<path id="XMLID_34_" d="M178.3,518.3c1.8-1.4,3.5-3.8,5.5-4.2c6.7-1.1,13.5-2.1,20.2-1.9c8.5,0.3,14.6,5.5,15.8,14
	c0.9,6.4,0.9,13.3-0.3,19.7c-1.5,7.7-7.7,11.4-15.2,12.4c-5.9,0.8-11.9,0.7-17.9,1.1c-3.8,0.3-5.4-1-5.2-5.1
	c0.6-9.9,0.8-19.9,1.4-29.9c0.2-2.7,0.1-4.6-3.8-4.2C178.6,519.6,178.4,518.9,178.3,518.3z M187.1,554.6c5.8-0.5,10.4-0.2,14.6-1.5
	c3.7-1.1,8.4-3.2,10-6.3c2.2-4.5,3.2-10.3,2.6-15.3c-1.6-14.4-11.9-16.3-22.9-13.9c-0.9,0.2-2.1,1.4-2.2,2.2
	C188.4,531.1,187.8,542.3,187.1,554.6z"/>
<path id="XMLID_33_" d="M361,435.6c0-9,0-18,0-27c0-2.9,0-5.9,4.2-5.8c3.9,0.1,4.6,2.7,4.6,5.7c-0.1,17-0.3,33.9-0.4,50.9
	c0,1.2,0.2,2.6-0.4,3.4c-1.4,1.9-3,4.7-4.8,5c-3.2,0.4-3.4-2.6-3.4-5.3c0.1-9,0-18,0-27C360.9,435.6,360.9,435.6,361,435.6z"/>
<path id="XMLID_30_" d="M360.4,553.9c0-11,0-21.6,0-32.2c0-1.3,0.6-3,0-3.9c-2.9-4-1-5.7,2.7-6.8c6.7-2,11.4-0.6,11.8,4.2
	c0.9,12,1.2,24.1,1.7,36.3C370.7,552.4,365.7,553.1,360.4,553.9z M365.3,547.9c3.2,0.3,5.7,0.5,5.5-3.4c-0.4-8.6-0.5-17.3-1-25.9
	c-0.1-1.3-1.4-2.5-2.1-3.7c-0.4,0.2-0.9,0.4-1.3,0.6c-0.4,4.4-0.9,8.9-1,13.3C365.2,535,365.3,541.3,365.3,547.9z"/>
<path id="XMLID_29_" d="M82.2,518.1c1.4-1.4,2.7-3.8,4.2-3.9c10.9-1.1,21.8-1.8,32.7-2.3c1.1,0,2.2,2.2,3.3,3.4
	c-0.4,0.5-0.7,1-1.1,1.5c-5.1,0-10.2,0-15.6,0c0,14.2,0,27.8,0,41.8c-2,0-3.9,0-6.5,0c0-13.4,0-26.9,0-41.1
	c-5.9,0.7-11.1,1.4-16.2,2C82.8,519,82.5,518.5,82.2,518.1z"/>
<path id="XMLID_28_" d="M509.8,546.9c-3.5,1-4.7,0-4.7-3.2c0.1-10.9,0-21.8,0-33.4c0.9,0,2.6-0.1,4.6-0.2
	C509.8,522.6,509.8,534.6,509.8,546.9z"/>
<path id="XMLID_27_" d="M576.8,546.9c-3.4,1-4.7,0.1-4.7-3.2c0.1-10.9,0-21.8,0-33.4c0.9,0,2.6-0.1,4.6-0.2
	C576.8,522.6,576.8,534.6,576.8,546.9z"/>
<path id="XMLID_26_" d="M438,510.2c1.5,0,3,0,4.8,0c0,12.3,0,24.5,0,36.8c-1.6,0-2.8,0-4.8,0C438,534.8,438,522.8,438,510.2z"/>
<path id="XMLID_25_" d="M259.9,527.5c2.9-3,5.2-3.2,7.3,0.8c1.8,3.6,3.8,7,5.7,10.5c2.1,3.8,0.7,6.1-3.2,7.8
	C266.3,540.1,263.1,533.8,259.9,527.5z"/>
<path id="XMLID_24_" d="M437.9,551c1.7,0,3.2,0,4.7,0c1.1,7.7,0.9,8.1-4.7,7.4C437.9,556.1,437.9,553.7,437.9,551z"/>
<path id="XMLID_23_" d="M504.8,558.5c0-2.5,0-4.8,0-7.4c1.7,0,3.2,0,4.7,0C510.8,558.5,510.5,559,504.8,558.5z"/>
<path id="XMLID_22_" d="M576.9,551c0,2.7,0,4.9,0,7.6c-1.7,0-3.3,0-5,0c0-2.6,0-4.9,0-7.6C573.5,551,574.9,551,576.9,551z"/>
<path id="XMLID_18_" d="M292.3,232.4c12,0.7,22.8,1.2,33.6,2c5.9,0.4,8.4,3,9.6,8.8c3.2,14.4,6.8,28.6,9.8,43
	c2.2,10.5,4.1,21.2,5.2,31.9c1.1,10.2-4,13.6-14.1,11.5c-6-1.2-12.3-0.9-18.5-1c-8.6-0.1-17.1,0.1-25.7,0.3
	c-6.1,0.2-12.2,0.8-18.3,0.9c-5.5,0-10.9-0.5-16.4-0.8c-0.7,0-1.4-0.1-1.9-0.3c-2.8-1.2-8.7-14.6-7.6-17.5c1.8-4.6,3.1-9.5,5.8-13.5
	c5.2-8,1.5-15.9,0.7-23.7c-1-9.6-0.4-18.9,2.3-28c2.3-7.8,9.1-10.2,16-11.4C279.5,233.2,286.5,232.9,292.3,232.4z M342,324.5
	c2.3-3.2,2.2-17.6-0.1-20.5c-0.3-0.4-0.7-0.7-1.1-0.9c-2.8-1.4-5.6-2.8-8.6-3.9c-3.7-1.4-6.9-0.2-10.7,1c-8.2,2.5-16.9,3.9-25.5,4.1
	c-4.6,0.1-9.1-1-13.5,1c-3.4,1.5-6.4,1.3-9.1-1.4c-3.2-3.2-6.6-3.3-10.9-2c-5,1.6-5.6,5.6-7,9.4c-1,2.8,2.2,10.9,5.1,11
	c7.5,0.5,14.9,3.7,22.6,0.6c2.5-1,5.9-0.6,8.7-0.1c4.7,0.8,9.2,2.8,13.9,0c0.8-0.5,2.2,0.1,3.3,0c2.9-0.3,5.7-0.6,8.6-0.9
	c1.1-0.1,2.2-1,3.2-0.8C327.9,322,334.8,323.3,342,324.5z M262.2,252.5c22.9,6.2,45.7,6.9,67.7-1.4c0.3-10.4-5.7-11.7-13.2-11.5
	c-14.6,0.4-29.2,0.1-43.8,0.7C265.7,240.5,261.7,245.7,262.2,252.5z"/>
<path id="XMLID_17_" d="M279.4,180.9c-1,1.3-1.6,3-2.7,3.5c-1.1,0.4-3.1,0-4-0.9c-4.2-3.7-7.7-8.2-12.2-11.5
	c-3.9-2.8-8.5-5.5-13.1-6.4c-13.1-2.4-26.9-5.1-38.9,2.5c-9.3,5.9-17.1,14.1-21.7,24.7c-0.8,1.9-1.8,4.1-3.4,5.4
	c-1.5,1.2-3.9,1.2-5.9,1.8c-0.4-1.9-1.6-4.1-1-5.7c1.2-3.2,3.4-6,5-9c13-23.2,32.5-34.7,60-29.4c13,2.5,24.5,8.2,33.5,18.2
	C276.7,175.9,277.8,178.3,279.4,180.9z"/>
<path id="XMLID_16_" d="M400,191.8c-1-0.9-2.2-1.7-3.2-2.9c-8.5-10.1-17.3-20.1-30.6-24.1c-9.6-2.9-19.6-2.2-28.9,0.8
	c-3.7,1.2-6.7,5.5-9.5,8.8c-2.7,3.1-4.8,6.7-7.2,10c-3.4,4.6-8.4,4.5-13.3-0.2c-1.7-1.7-3.7-3.1-5.2-5c-0.8-1-1.4-3-0.9-3.9
	c0.6-1.1,2.4-2.2,3.7-2.2c1.3,0,2.7,1.1,3.9,2c5.5,4,6.8,3.9,10.2-2.2c4.9-8.8,12.2-15.2,21.8-16.9c8.6-1.5,18.3-2,26.6,0.3
	c11.5,3.3,21.8,10.1,29.4,19.9c2.3,3,4.8,5.9,6.7,9.2C405,188.3,403.8,190.5,400,191.8z"/>
<path id="XMLID_15_" d="M261.6,225.8c-9.2,0-17.8,0-26.4,0c-7.5,0-14.9,0.2-22.4-0.1c-1.6,0-3.1-1.5-4.6-2.4
	c1.6-0.9,3.1-2.5,4.7-2.6c15.1-0.5,30.2-0.7,45.3-0.9C262,219.8,263,222,261.6,225.8z"/>
<path id="XMLID_14_" d="M375.4,227.8c-12.7-0.7-25.5-1.4-38.2-2.4c-1.5-0.1-2.9-1.7-4.4-2.6c1.6-1,3.3-2.9,4.8-2.8
	c13.1,0.6,26.1,1.5,39.2,2.3c1,0.1,2.2-0.1,2.9,0.4c0.9,0.6,2.1,1.8,2,2.8c0,0.8-1.4,2-2.4,2.3C378.1,228.2,376.7,227.9,375.4,227.8
	C375.4,227.9,375.4,227.9,375.4,227.8z"/>
<path id="XMLID_13_" d="M239.6,204.4c-3.2-0.6-5.4-1.8-5.3-6.1c0.1-4.3,2.3-5.7,5.9-5.6c3.2,0.1,5.8,1.3,5.7,5.3
	C245.9,202.2,243.8,204.1,239.6,204.4z"/>
<path id="XMLID_12_" d="M345.2,192.9c3.8,0,5.9,1.9,5.9,5.4c-0.1,3.7-2.1,5.6-6,5.7c-4.5,0.1-5.8-2.8-5.9-6.3
	C339,193.7,342.3,193.2,345.2,192.9z"/>
</svg>
