<?xml version="1.0" encoding="utf-8"?>
<!-- Generator: Adobe Illustrator 19.0.0, SVG Export Plug-In . SVG Version: 6.00 Build 0)  -->
<svg version="1.1" id="图层_1" xmlns="http://www.w3.org/2000/svg" xmlns:xlink="http://www.w3.org/1999/xlink" x="0px" y="0px"
	 viewBox="0 0 595.3 595.3" style="enable-background:new 0 0 595.3 595.3;" xml:space="preserve">
<style type="text/css">
	.st0{fill:#FFFFFF;}
</style>
<path id="XMLID_81_" class="st0" d="M567.9,12.8c0,199.3,0,398.6,0,597.9"/>
<path id="XMLID_77_" class="st0" d="M150.6,549.3c0.9,12.1,0.9,12.1-9.7,13.9c-0.1,3,1.2,4.4,4.4,4.5c8.7,0.3,11.5-1.6,11.3-10.9
	c-0.2-8.1,2-12.9,10.3-14.1c0.3,0,0.5-0.4,0.8-0.7c-1.5-8.2-6.9-0.7-10.4-2.6c0-2.1,0-4.3,0-7.2c4.1-0.2,8.1-0.4,11.3-0.6
	c5.5,10.4,3.8,18.7-5.1,25.2c-0.1,0.1-0.2,0.3-0.3,0.4c-2.9,3-2.3,5.8,0.7,8.9c3.7-4.3,7.2-8.3,10.7-12.3c3,4.1,5.2,8.1,8.3,11.2
	c1.7,1.7,6.6,3.1,7,2.4c1.9-2.6,3.2-6,3.7-9.2c0.2-1.4-2.3-3.2-4.2-5.6c-0.8,3.6-1.3,5.7-2.1,9.2c-2.3-3.7-3.9-6.3-5.6-8.9
	c-1.9-2.9-1.7-5.3,1.2-7.6c3-2.4,5.5-5.2,8.3-7.8c-2.5-4.2-5-4.1-7.9-0.7c-1.4,1.7-3.2,3.1-5.6,5.3c-0.7-4.2-1.2-7.3-1.9-11.3
	c6.5,0,12.2,0,17.9,0c0.2-5.1,0-5.1-4.2-4.9c-4.7,0.2-9.5,0-14.3,0c-0.5-4.9-1-9.3-1.5-13.8c-2,0-3.7,0-5.8,0
	c0.3,4.9,0.6,9.5,0.9,14.1c-4.1,0.3-7.7,0.6-11.6,0.9c-0.4-3-0.7-5.5-1-8.4c3.1-1,6-1.9,8.8-2.8c-0.8-3.5-2.1-4.8-5.4-3.8
	c-5.9,1.7-11.9,2.9-17.8,4.6c-3.7,1-4.5,3.3-2.3,6.8c3.6-1.1,7-2.2,10.5-3.2c0.3,1.4,0.6,2.2,0.7,3c0.1,1.3,0,2.6,0,3.8
	c-13.4,4.5-13.4,4.5-13.2,7.5c4.4-0.5,8.7-1,13-1.5c1.2,9.2,1.2,9.2-6.8,12.7c-1.1,0.5-2.1,1-3.2,1.4c-3.9,1.5-3.8,3.9-1.7,7.2
	C142.7,552.8,146.4,551.2,150.6,549.3z"/>
<path id="XMLID_75_" class="st0" d="M93.8,547.1c2.8-0.4,4.4-0.7,6-0.9c5.1-0.8,10.1-1.8,15.2-2.2c1.7-0.1,5,1,5.1,1.8
	c0.6,5.2,0.7,10.5,0.2,15.7c-0.1,0.8-4.9,1-7.5,1.5c-0.3,0.1-0.4,0.4-0.7,0.6c0.2,6.1,4.8,4.1,8,4.3c4.3,0.2,6.6-2.3,6.9-6.3
	c0.3-5.1,0.3-10.3,0-15.5c-0.1-1.6-1-3.8-2.3-4.6c-2.9-1.8-2.8-4.1-2.4-6.8c0.7-5.1,1.4-10.2,1.8-15.3c0.4-4.5-2.2-7.3-6.4-7.3
	c-6.6,0-13.2,0.7-19.8,1.5c-1.5,0.2-2.7,2.5-4,3.8c0.4,0.4,0.7,0.8,1.1,1.1c6-0.7,12.1-1.5,18.1-2.1c3.6-0.4,5.3,1.2,4.7,5
	c-0.8,5.1-1.3,10.2-2.1,15.3c-0.2,1-1.3,2.6-2.1,2.7c-4,0.6-8.1,0.8-12.6,1.1c0.8-6.9,1.5-13.2,2.2-19.5c-0.5-0.4-0.9-0.8-1.4-1.2
	c-1.6,1.2-4.5,2.1-4.7,3.6C95.6,530.9,94.9,538.4,93.8,547.1z"/>
<path id="XMLID_74_" class="st0" d="M194.9,435c0.1,0,0.3,0,0.4,0c0,9.6-0.1,19.3,0,28.9c0,2.8,0.4,5.7,4.4,5.6
	c4.3-0.1,4.2-3.4,4.2-6c-0.1-17.9-0.5-35.9-0.7-53.8c0-3-0.7-5.4-4.2-5.5c-3.7-0.1-4.2,2.3-4.2,5.3C194.9,418,194.9,426.5,194.9,435
	z"/>
<path id="XMLID_73_" class="st0" d="M551.9,553.4c0-12.3,0-24.4,0-36.6c-1.9,0-3.6,0-4.8,0c0,12.5,0,24.5,0,36.6
	C549.1,553.4,550.3,553.4,551.9,553.4z"/>
<path id="XMLID_72_" class="st0" d="M481.1,516.6c0,12.6,0,24.7,0,36.7c2,0,3.2,0,4.8,0c0-12.3,0-24.4,0-36.7
	C484.1,516.6,482.5,516.6,481.1,516.6z"/>
<path id="XMLID_71_" class="st0" d="M418.8,553.4c0-12.3,0-24.5,0-37c-1.7,0.1-3.1,0.2-4.5,0.3c0,12.4,0,24.5,0,36.7
	C416,553.4,417.2,553.4,418.8,553.4z"/>
<path id="XMLID_70_" class="st0" d="M177.2,516.1c2.5,2.3,4.9,4.8,7.6,6.9c1,0.8,2.7,0.7,4.1,1c0.1-1.8,0.9-4,0.1-5.3
	c-1-1.7-3.2-2.8-4.8-4.2C181.2,511.8,179,512.4,177.2,516.1z"/>
<path id="XMLID_69_" class="st0" d="M414.3,557.3c0,2.8,0,5.3,0,7.9c5.3-0.1,5.6-0.5,4.2-7.9C417.2,557.3,415.8,557.3,414.3,557.3z"
	/>
<path id="XMLID_68_" class="st0" d="M481,564.7c5.6,0.8,6.3-0.5,4.3-7.7c-1.3,0.1-2.7,0.2-4.3,0.2C481,560,481,562.4,481,564.7z"/>
<path id="XMLID_67_" class="st0" d="M547,557.3c0,2.9,0,5.3,0,7.6c5.6,0.5,5.9-0.2,4.5-7.6C550.2,557.3,548.8,557.3,547,557.3z"/>
<path id="XMLID_57_" d="M358.9,0.5c-4.7,7.8-10.1,15.3-14,23.5c-4.7,10-8.2,20.6-12.1,31c-2.8,7.6-5.3,15.4-7.8,23.1
	c-0.8,2.5-1.7,5-1.9,7.6c-0.2,3.4-2.2,5-5,4.9c-7.8-0.3-15.5-1.2-23.3-1.4c-14.4-0.4-28.8-0.9-43.2-0.7c-8.3,0.1-16.6,0.9-24.8,2.3
	c-9.7,1.7-19.4,4.1-28.8,6.9c-7.6,2.2-15.1,4.9-22.2,8.2c-7.8,3.7-15.3,8.3-22.7,12.8c-14.5,8.9-26.3,21-37.1,33.8
	c-4.8,5.7-9.2,12-12.7,18.6c-12,22.7-21.6,46.4-19,72.7c1.2,12.3,2.6,25.2,7.4,36.3c5.2,12.4,12.6,24.2,22.4,34.2
	c7.2,7.4,14.9,14.2,23.6,19.4c8.4,5.1,17.4,9.3,26.4,13.3c7.5,3.4,15.2,6.6,23.1,8.8c9.7,2.6,19.7,4.8,29.7,5.8
	c16.8,1.8,33.7,3.7,50.6,3.7c15.7-0.1,31.5-1.9,47.1-4.3c13.5-2.1,27-5,39.5-10.9c16-7.6,30.9-16.3,42-31
	c8-10.6,15.3-21.6,19.8-33.9c6.6-17.9,12.3-36.3,10.6-55.8c-0.8-8.9-1-17.9-2.8-26.7c-3.2-15.9-9.4-30.5-18-44.5
	c-11.8-19.1-26.8-34.7-44.2-48.4c-2.3-1.8-5.2-3.3-6.7-5.6c-1.2-1.9-1.4-5.3-0.5-7.3c3.3-7.2,7.6-14.1,11-21.3
	c5.2-11.2,10.8-22.3,14.7-33.9c3.4-10.2,7.1-20.9,5.2-32.1c-0.5-3.2-2-6.2-3-9.4c4,0,8,0,12,0c2.1,9.3,2.3,18.6,0.3,27.9
	c-0.9,4.1-2,8.2-3.4,12.2c-3.5,10.2-6.8,20.6-11.1,30.5c-3.4,7.7-8,15-12.5,22.2c-2.9,4.7-2.7,6.3,1.9,9.8
	c14,10.2,26.2,22.3,36.1,36.7c3,4.3,6.5,8.3,9.8,12.4c0.4,0.5,1,1,1.3,1.5c5,11.3,10.9,22.2,14.6,33.9c3,9.5,3.9,19.9,4.7,30
	c0.7,10,1,20.3-0.2,30.2c-1.2,10.4-3.5,20.8-6.6,30.8c-2.7,8.7-7.4,16.7-10.9,25.2c-5.7,13.6-15.1,24.3-26.1,33.8
	c-6.3,5.4-12.7,11.2-19.9,15.2c-8.2,4.5-17.4,7.2-26.1,10.7c-0.6,0.2-1.1,0.5-3,1.2c2.5,1.6,4,3.2,5.7,3.5
	c7.9,1.7,15.9,3.8,23.9,4.4c11.3,0.8,22.7,1.1,33.9,0.1c8.5-0.7,17-2.9,25.2-5.7c25.6-8.6,51.9-10.7,78.7-9.4
	c5.2,0.3,10.3,0.3,15.5,0.1c7.3-0.3,13.2,6.6,15.6,11.5c2.8,6-4.4,12.5-11,13.8c-8.9,1.8-18.1,2.6-27.2,3.4
	c-3.8,0.3-5.6,0.4-6.3,5.2c-1.9,12-7.3,20.7-22.6,19.4c-7.3-0.6-14.4-3.4-21.6-5.2c-1.4-0.4-2.9-1.1-4.3-1.1
	c-27.6-0.1-55.3-0.2-82.7,4.4c-10,1.7-18.9,5.8-25.5,13.8c-4.3,5.2-9.6,10.1-12,16.1c-3.5,8.7-5,18.3-6.9,27.6
	c-0.6,3.1-0.7,5.3-4.8,5.3c-2.7,0-3.6-0.7-3.8-3.2c-0.4-7.7-0.1-15.3,3.4-22.3c3.7-7.6,7.4-15.3,11.7-22.6c2-3.4,5.6-5.8,8.3-8.8
	c6.9-7.9,16-10.8,25.9-13c25.8-5.6,52-3.5,78.1-5.1c8.9-0.5,16.4,2.1,24.4,4.6c4.7,1.5,10.2,1.4,15.2,1c4.2-0.4,7-3.9,8-8
	c0.8-3.2,1-6.6,1-9.9c-0.1-5,2.5-7.6,7.5-8c10.4-0.7,20.8-1.6,31.2-2.5c1.7-0.2,3.4-1.1,5.6-3c-3.4-1.5-6.7-4.2-10.1-4.4
	c-14.8-0.8-29.6-1.4-44.5-1c-7.4,0.2-14.7,2.6-22,4.1c-9.7,2.1-19.4,4.4-29.1,6.6c-6.3,1.4-12.6,3.1-18.9,3.9
	c-6.4,0.8-12.9,1-19.4,0.7c-10.1-0.5-20.2-1.4-30.3-2.6c-4.9-0.6-9.8-1.8-14.4-3.5c-2.4-0.8-4.1-3.4-6.4-4.8
	c-1.9-1.1-4.5-2.8-6.3-2.3c-31.3,8.8-63.2,8.5-95.1,6.7c-10.1-0.6-20.1-2.2-30.2-3.1c-5.7-0.5-13.1,5.5-14.5,11.1
	c-0.3,1.2-1,2.4-1.7,3.5c-6.2,8.6-10.3,18.3-12.4,28.4c-2.7,13.4-3.5,27.3-5.1,41c-0.3,2.8-0.5,5.6-0.7,8.8
	c-1.4,0.3-3.4,0.7-5.7,1.1c-4.2-5.4-2.8-11.8-1.8-17.6c2-12.7,3.6-25.6,7.1-38c3.7-13.2,7.4-26.7,17.8-36.8c4.1-4,3.8-4.5-1.7-6.4
	c-12.1-4.3-24.6-8-36.2-13.5c-11.2-5.4-21.9-12-31.9-19.4c-10.2-7.4-18.1-17.3-25.5-27.7c-9-12.6-13.9-27-17.5-41.6
	c-2.8-10.9-2.5-22.7-2.7-34.1c-0.3-21.7,8.6-40.9,18.7-59.4c7.2-13.3,14.7-26.5,26.3-36.6c8.4-7.4,17-14.5,25.6-21.7
	c8.4-7.1,18.9-10.3,28.1-15.8c12-7.2,25.8-7.6,38.2-13.3c0.7-9,1.5-18.2,2.2-27.4c1.1-15,3-29.8,8.2-44c1.4-3.9,2.8-7.7,4.1-11.6
	c4.3,0,8.7,0,13,0c-2,3.4-4.7,6.6-6,10.3c-2.5,7.2-4.5,14.6-6.2,22c-1.5,6.3-2.7,12.7-3.1,19.1c-0.5,9.5-0.1,19.1-0.1,28.6
	c0.8,0.2,1.3,0.4,1.8,0.3c12.2-1.4,24.3-2.9,36.5-4.2c3.1-0.3,3.6-2.2,3.9-4.7c0.8-6.9,1.5-13.8,2.8-20.6c3.3-17,5.8-34-0.5-50.9
	c4.3,0,8.7,0,13,0c4.7,25.6,0.6,50.6-6.4,75.4c13.2,1.2,26,2.4,38.6,3.6c5-13.5,11-26.6,14.6-40.2c3.8-14.2,13.3-25.3,18.1-38.7
	C349.6,0.5,354.3,0.5,358.9,0.5z"/>
<path id="XMLID_48_" d="M232.5,536.4c-1.2,2.4-2.1,4-3.1,6c9.1,0,18-0.1,26.9,0.1c1.4,0,2.7,1.4,4,3.3c-9.5-1.5-14.4,4.7-20.2,10.4
	c5.8,1.9,11.5,3.5,16.9,5.6c1.3,0.5,2,2.8,2.9,4.3c-1.5,0.4-3.3,1.4-4.6,1c-6.8-2-13.5-6-20.3-6.2c-6.7-0.2-13.4,3.5-20.2,5.2
	c-3.6,0.9-7.3,1.3-11,2c-1-5.2,2.2-5.7,5.1-6.4c4.9-1.1,9.8-2.3,14.6-4.6c-4-1-8.1-2.1-12.5-3.2c1.1-1.6,2-3.1,3.5-5.3
	c-3.8,0.3-6.9,0.6-10,0.8c-0.3-0.3-0.7-0.6-1-0.9c1.1-1.3,2-3.2,3.5-3.7c2.5-0.9,5.3-1.3,7.8-1.1c4.6,0.4,6.9-2.1,9.5-6.2
	c-5.7,0.7-10.7,1.3-16.3,2c0-2.5,0-4.7,0-7c0-1.2,0.3-2.4,0-3.5c-1.9-5.3-1.6-5.9,4.1-6.6c2.6-0.3,5.3-0.5,7.9-1.1
	c1.3-0.3,2.3-1.6,3.4-2.5c-0.3-0.5-0.5-1.1-0.8-1.6c-5.5,0.7-11.1,1.3-16.9,2c-1.4-3.6,0.6-4.8,3.7-5c12.4-0.8,24.9-1.5,37.3-2.1
	c2.8-0.1,5.7-0.2,8.5,0.1c0.9,0.1,1.7,1.3,2.6,2c-0.9,0.7-1.7,2-2.6,2c-4.6,0.2-9.3,0.1-14.6,1.3c1,0.9,1.8,2.3,2.9,2.5
	c12,2.1,12.5,2.7,12.5,16.1C248,536.4,240.2,536.4,232.5,536.4z M241.2,546.2c-7.1,2.4-14.4-1.2-20.2,4.6
	C228.6,554,235.4,555.5,241.2,546.2z M227.7,532.6c1.4,0,2.7,0.1,4,0c1.2-0.1,2.5-0.3,3.6-0.4c0.8-8.1-0.4-9-7.6-6
	c-0.1,1.6-0.3,3.2-0.4,4.8C227.3,531.3,227.5,531.6,227.7,532.6z M249.3,532c-0.2-7.2-1.1-7.9-7.9-6.9c0,2.2,0,4.4,0,6.9
	C244.3,532,246.8,532,249.3,532z M221.6,525.9c-2.6,0.4-4.9,0.8-7.5,1.3c0,2.5,0,4.6,0,6.9c2.5-0.3,4.9-0.5,7.5-0.8
	C221.6,530.7,221.6,528.5,221.6,525.9z M227.8,518.6c0.4,0.9,0.8,1.8,1.2,2.6c1.9-0.8,3.9-1.6,5.8-2.5c-0.7-0.7-1.5-2-2.1-1.9
	C231.1,517.2,229.4,518,227.8,518.6z"/>
<path id="XMLID_42_" d="M278.7,549c1.9-1,3.6-2.4,5.6-2.8c3.2-0.7,6.7-0.3,9.9-1.2c1.6-0.4,2.7-2.6,4-4c-1.6-0.4-3.3-1.2-4.8-1
	c-4.5,0.8-9,1.9-14,3.1c-0.1-1.3-0.6-3.1-0.3-3.3c5.5-2.8,3.3-7.9,3.8-12.2c0.3-2.3,0.4-4.6,0.6-7.2c-1.5-0.2-2.9-0.4-6-0.8
	c2.2-1.8,3.3-3.4,4.5-3.6c7.1-0.8,14.9-3.2,21.2-1.2c7.3,2.4,14-0.5,20.8,1c1.5,0.3,3.5,1.1,3.9,2.1c0.4,1.1-0.6,3.1-1.5,4.2
	c-1.7,1.9-3.9,3.5-6.2,5.4c3.6,2.9,6.7,5,9.2,7.6c1,1.1,0.8,3.4,1.2,5.2c-1.5-0.3-3.4-0.2-4.6-1.1c-3.1-2.2-5.9-4.8-9.4-7.7
	c-3.3,3.9-6.5,7.5-9.8,11.4c-1.5-1.6-2.3-2.5-3.3-3.6c-0.3,0.8-0.9,2.3-0.8,2.4c2.1,1.1,4.3,2.8,6.5,2.9c7.1,0.4,14.2,0.1,23,0.1
	c-1.7,1.5-2.9,3.3-3.8,3.2c-6.9-1-10.3,4-14.8,8.3c5.3,1.5,10,2.8,14.8,4.1c3,0.9,4.2,2.6,2.1,5.8c-6.3-1.7-12.6-3.7-19-5
	c-2.7-0.6-5.8-0.3-8.6,0.3c-7.7,1.6-15.3,3.7-23.1,5.5c-0.7-5.2-0.4-5.3,3.6-5.9c4.7-0.7,9.3-1.6,13.9-3.5
	c-3.6-0.9-7.1-1.7-11.1-2.7c1.2-1.5,2.2-2.8,3.9-4.8c-4,0.3-7.1,0.6-10.2,0.9C279.3,550.3,279,549.6,278.7,549z M320.7,520.2
	c-5.9-2.4-12.2,4.9-17.1-2.6c-2,9.4-1,14.6,2.2,16.6c2.2-1.7,4.2-3.4,6.5-5.2c-2.1-1.5-3.7-2.7-5.2-3.8c2.5-3.6,2.5-3.6,9.4-0.1
	C317.8,523.7,319.1,522.1,320.7,520.2z M295.9,552.6c12,2,12.9,1.7,17.1-5C307.2,551,300.7,546.1,295.9,552.6z M298,534.2
	c-0.2-0.8-0.4-1.6-0.6-2.4c-2.7,0.4-5.4,0.7-8.1,1.2c-0.5,0.1-1.1,1-1.3,1.6c-0.1,0.3,0.8,1.2,1.1,1.2
	C292.1,535.4,295,534.8,298,534.2z M297.7,527.7c0-0.7-0.1-1.5-0.1-2.2c-3.1,0.2-6.2,0.5-9.3,0.7c0,0.5,0,1,0.1,1.5
	C291.4,527.7,294.5,527.7,297.7,527.7z"/>
<path id="XMLID_41_" d="M150.6,549.3c-4.2,1.9-7.9,3.5-11.8,5.2c-2.1-3.3-2.2-5.7,1.7-7.2c1.1-0.4,2.1-0.9,3.2-1.4
	c8-3.4,8-3.4,6.8-12.7c-4.3,0.5-8.7,1-13,1.5c-0.1-3-0.1-3,13.2-7.5c0-1.2,0.1-2.5,0-3.8c-0.1-0.8-0.3-1.6-0.7-3
	c-3.5,1.1-6.9,2.1-10.5,3.2c-2.2-3.5-1.4-5.8,2.3-6.8c5.9-1.6,11.9-2.9,17.8-4.6c3.3-0.9,4.6,0.3,5.4,3.8c-2.9,0.9-5.8,1.8-8.8,2.8
	c0.3,2.8,0.6,5.4,1,8.4c3.9-0.3,7.4-0.6,11.6-0.9c-0.3-4.7-0.6-9.2-0.9-14.1c2.1,0,3.8,0,5.8,0c0.5,4.5,0.9,8.9,1.5,13.8
	c4.9,0,9.6,0.2,14.3,0c4.2-0.2,4.3-0.2,4.2,4.9c-5.7,0-11.4,0-17.9,0c0.7,3.9,1.2,7.1,1.9,11.3c2.4-2.2,4.2-3.6,5.6-5.3
	c2.9-3.4,5.4-3.5,7.9,0.7c-2.7,2.6-5.3,5.4-8.3,7.8c-2.9,2.3-3.1,4.7-1.2,7.6c1.7,2.6,3.3,5.2,5.6,8.9c0.8-3.4,1.3-5.6,2.1-9.2
	c1.9,2.4,4.4,4.2,4.2,5.6c-0.4,3.2-1.7,6.6-3.7,9.2c-0.5,0.7-5.4-0.8-7-2.4c-3.1-3.1-5.3-7.1-8.3-11.2c-3.4,4-7,8-10.7,12.3
	c-3-3.1-3.6-5.8-0.7-8.9c0.1-0.1,0.2-0.3,0.3-0.4c8.9-6.5,10.6-14.8,5.1-25.2c-3.2,0.2-7.3,0.4-11.3,0.6c0,2.9,0,5.1,0,7.2
	c3.4,1.9,8.8-5.6,10.4,2.6c-0.3,0.3-0.6,0.7-0.8,0.7c-8.2,1.3-10.5,6-10.3,14.1c0.3,9.4-2.6,11.2-11.3,10.9
	c-3.2-0.1-4.5-1.5-4.4-4.5C151.5,561.4,151.5,561.4,150.6,549.3z"/>
<path id="XMLID_38_" d="M395.5,554.2c1.2,1.4,3.2,2.6,3.5,4.2c0.7,2.9,0,6.2-3.6,6.5c-6.6,0.6-13.3,0.9-19.9,0.7
	c-4.2-0.2-5.7-3.5-5.8-7.4c0-6.8,0-13.6,0-20.4c-0.4-0.4-0.8-0.7-1.2-1.1c-1.3,1.3-2.6,2.5-3.7,3.9c-0.5,0.6-0.5,1.6-0.9,2.3
	c-3,5.3-3.1,9.9,2.2,14.1c1,0.8,0.4,3.7,0.6,5.6c-1.6-0.7-3.3-1.2-4.6-2.2c-1.4-1.1-2.4-2.7-3.9-4.5c-1.8,2.4-3.1,4.8-4.9,6.6
	c-1.4,1.4-4.2,3.5-5,3c-3-1.9-1.1-4.1,0.5-6.2c1.8-2.3,3.5-4.8,5.6-7.9c-12.1-6-5.2-14.7-3.1-23c-1.5-0.1-2.7-0.1-4.7-0.2
	c0.6-1.5,0.9-3.7,1.5-3.8c6.2-0.7,6.5-6.2,8.4-10.6c1.8,0.5,3.3,0.9,5,1.4c-0.8,2.5-1.6,4.7-2.3,6.8c8,1.8,8,1.8,7.9,11.1
	c1.3-1.6,2.5-2.3,2.7-3.3c0.5-2.4,0.9-4.9,0.8-7.4c-0.1-3.9,1.8-4.5,5.4-3.8c0,1.8,0,3.6,0,5.3c0,1.6,0,3.3,0,5.7
	c8.8-3.4,2.6-10.5,4.9-15.4c1.3,0,2.9,0,5,0c0,4,0,7.8,0,11.1c0.9,0.6,1.1,0.9,1.4,0.9c9.2-0.1,10.4,1.1,10.6,10.5
	c0,3,0.5,6.2-0.4,8.9c-0.6,1.8-3.1,3.6-5,4.2c-1.4,0.4-3.4-1.2-4.9-2.5c5.6-2.4,6.3-5.1,4-16.6c-1.5,0.1-3,0.2-5.1,0.4
	c0,8.3,0,16.3,0,24.5c-2,0.1-3.4,0.2-5.2,0.3c0-7.7,0-15.1,0-22.6c-4.8-0.3-6.4,1.7-6.1,6.2c0.3,5.6,0.1,11.3,0.1,17
	c0,3.8,1.8,5.5,5.6,5.2c2.5-0.2,5-0.5,7.4-0.5c4,0,6.5-1.2,5.6-6.1C394.4,555,394.9,554.6,395.5,554.2z M362.4,527.7
	c-0.7-0.4-1.4-0.8-2.1-1.2c-5.6,2.3-4.7,8.7-6.8,13.2c-1.6,3.3,0.3,5.1,4,6.8C359.2,540,360.8,533.8,362.4,527.7z"/>
<path id="XMLID_37_" d="M93.8,547.1c1.1-8.6,1.8-16.2,3.2-23.7c0.3-1.4,3.1-2.4,4.7-3.6c0.5,0.4,0.9,0.8,1.4,1.2
	c-0.7,6.3-1.5,12.7-2.2,19.5c4.5-0.4,8.6-0.5,12.6-1.1c0.9-0.1,2-1.7,2.1-2.7c0.9-5.1,1.3-10.2,2.1-15.3c0.6-3.8-1.1-5.3-4.7-5
	c-6,0.6-12.1,1.4-18.1,2.1c-0.4-0.4-0.7-0.8-1.1-1.1c1.3-1.3,2.5-3.6,4-3.8c6.6-0.9,13.2-1.5,19.8-1.5c4.2,0,6.8,2.7,6.4,7.3
	c-0.5,5.1-1.1,10.2-1.8,15.3c-0.4,2.7-0.5,5,2.4,6.8c1.3,0.8,2.2,3,2.3,4.6c0.3,5.1,0.4,10.3,0,15.5c-0.3,3.9-2.6,6.5-6.9,6.3
	c-3.2-0.2-7.8,1.8-8-4.3c0.2-0.2,0.4-0.6,0.7-0.6c2.6-0.5,7.4-0.8,7.5-1.5c0.6-5.2,0.4-10.5-0.2-15.7c-0.1-0.8-3.4-1.9-5.1-1.8
	c-5.1,0.4-10.2,1.4-15.2,2.2C98.2,546.4,96.6,546.6,93.8,547.1z"/>
<path id="XMLID_34_" d="M92,557.8c0.2,1.3,0.6,2.6,0.5,3.9c-0.1,1-0.9,2.4-1.7,2.7c-0.7,0.3-2.1-0.5-2.9-1.2
	c-1.6-1.4-2.9-3.1-4.5-4.9c-2.5,2.8-4.7,5.5-7.3,7.8c-1,0.9-2.8,0.9-4.2,1.3c0-1.8-0.8-4,0-5.2c1.9-3,4.6-5.6,7-8.4
	c-9.6-6.3-9.1-14.2-5-22.8c0.5-1,0.7-2.2,1.1-3.7c-1.7,0.2-3,0.3-4.4,0.5c-0.4-0.3-0.8-0.6-1.2-0.9c1.1-1.5,2.1-4.2,3.4-4.4
	c4.2-0.5,5.5-3.2,6.3-6.5c1.1-4.6,3.6-5.1,7.6-2.5c-0.7,2.1-1.5,4.3-2.2,6.4c2.8,1.1,6.8,1.5,7.7,3.4c1.4,2.8,1.2,6.8,0.6,10.1
	c-0.8,4.7-1.8,9.6-4,13.8c-2.7,5.3-1,8.3,3.3,11L92,557.8z M87.9,526.5c-4.6-1.8-6.1-0.4-6.9,2.8c-0.8,3.4-2.1,6.6-3,10
	c-1.4,4.7-0.8,5.6,4.9,7.9C84.6,540.3,86.2,533.5,87.9,526.5z"/>
<path id="XMLID_33_" d="M194.9,435c0-8.5,0-17,0-25.4c0-3,0.5-5.5,4.2-5.3c3.5,0.1,4.2,2.5,4.2,5.5c0.2,17.9,0.6,35.9,0.7,53.8
	c0,2.6,0.1,5.9-4.2,6c-4,0.1-4.4-2.8-4.4-5.6c-0.1-9.6,0-19.3,0-28.9C195.2,435,195,435,194.9,435z"/>
<path id="XMLID_32_" d="M551.9,553.4c-1.6,0-2.8,0-4.8,0c0-12.1,0-24.2,0-36.6c1.2,0,2.9,0,4.8,0C551.9,529,551.9,541.1,551.9,553.4
	z"/>
<path id="XMLID_31_" d="M481.1,516.6c1.4,0,3,0,4.8,0c0,12.3,0,24.4,0,36.7c-1.6,0-2.8,0-4.8,0C481.1,541.3,481.1,529.3,481.1,516.6
	z"/>
<path id="XMLID_30_" d="M418.8,553.4c-1.6,0-2.8,0-4.5,0c0-12.3,0-24.3,0-36.7c1.3-0.1,2.7-0.2,4.5-0.3
	C418.8,528.9,418.8,541.1,418.8,553.4z"/>
<path id="XMLID_29_" d="M92.1,557.9c-1.2-3.9,1.7-4.7,4.3-5c7.2-0.8,14.5-1.2,21.7-1.8c0.4,0.5,0.8,0.9,1.2,1.4
	c-0.9,1.1-1.7,3-2.6,3.1C108.5,556.5,100.3,557.1,92.1,557.9C92,557.8,92.1,557.9,92.1,557.9z"/>
<path id="XMLID_28_" d="M177.2,516.1c1.8-3.6,4-4.3,7-1.6c1.6,1.4,3.8,2.5,4.8,4.2c0.7,1.3,0,3.5-0.1,5.3c-1.4-0.3-3.1-0.2-4.1-1
	C182.1,520.9,179.7,518.4,177.2,516.1z"/>
<path id="XMLID_27_" d="M414.3,557.3c1.5,0,2.9,0,4.2,0c1.3,7.3,1.1,7.8-4.2,7.9C414.3,562.6,414.3,560.1,414.3,557.3z"/>
<path id="XMLID_26_" d="M481,564.7c0-2.3,0-4.7,0-7.5c1.6-0.1,3-0.2,4.3-0.2C487.3,564.2,486.6,565.5,481,564.7z"/>
<path id="XMLID_25_" d="M547,557.3c1.7,0,3.2,0,4.5,0c1.4,7.5,1.1,8.1-4.5,7.6C547,562.5,547,560.1,547,557.3z"/>
<path id="XMLID_21_" d="M250.6,233c12.2,0.7,21,1.1,29.8,1.7c12.7,0.9,14.4,3.1,16.6,15.7c2,11.5,5.4,22.7,7.6,34.2
	c2.3,11.5,4.6,23.1,5.8,34.7c1,9.3-4.3,12.6-13.4,11c-6.7-1.2-13.6-1.1-20.4-1.1c-7.4-0.1-14.8,0.3-22.2,0.5
	c-7.1,0.2-14.2,0.4-21.3,0.5c-2.5,0-5.1-1.1-7.4-0.6c-10.5,2.5-14.5-4.9-16.9-12.3c-1.3-4,0.1-10,2.5-13.7
	c5.7-8.9,5.6-18.2,3.7-27.7c-2-9.7-1.1-19.1,1.5-28.4c1.6-5.7,5.5-9.9,11.7-11C236.8,235,245.3,233.8,250.6,233z M302.7,324.5
	c2.5-1.6,2.1-4.9,1.5-8.4c-1.3-6.5-0.4-14.4-9.7-15.9c-3.3-0.5-6.7-1.4-10-1.1c-3.9,0.4-7.8,1.9-11.6,3c-2.8,0.7-5.7,1.6-8.5,2.1
	c-2.9,0.5-6.1,1.3-8.7,0.5c-4.1-1.4-7.8-1.4-11.5,0.4c-4,1.9-7.5,2.1-10.7-1.5c-3-3.4-6.7-2.6-10.6-1.4c-4.9,1.5-6.1,5.1-7,9.6
	s1.7,10.8,6.2,11.4c7.5,1,15.1,3.2,22.6-0.1c1.2-0.5,2.7-1,3.9-0.7c6.3,1.3,12.3,1.9,19.1,1.1c6.7-0.7,14.1-3.2,21.3-0.4
	C292.6,324.4,297.1,324,302.7,324.5z M222.3,253.6c23,5.2,46,7,68.8-2.1c-1-2.7-2.1-4.4-2.4-6.3c-0.5-3.5-2.2-4.6-5.7-4.6
	c-5.6,0-11.3-0.8-16.9-0.8c-11.1,0.1-22.3,0.1-33.3,1.1C225,241.6,222,246,222.3,253.6z"/>
<path id="XMLID_20_" d="M263.1,173.1c1.9,1,3.9,1.7,5.6,2.9c5.2,3.5,6.6,3.6,9.7-1.9c3.9-7,9.6-11.8,16.5-15.2
	c10.9-5.3,22.4-5,33.4-1.5c10.2,3.2,19.3,9.1,26.4,17.5c2.6,3,5.2,5.9,7.6,9c1.8,2.4,2.7,5.6-0.1,7.6c-2.8,2.1-4.2-0.4-6.1-2.6
	c-8.7-9.6-16.9-20.1-30.5-23.3c-9.1-2.1-18.3-2.4-27,0.6c-4.2,1.5-7.6,5.7-10.9,9.2c-2.7,2.8-4.6,6.2-6.9,9.3
	c-3.7,5.3-10.8,4.8-14.3-1.2c-1.7-2.8-2.9-5.9-4.4-8.9C262.5,174.2,262.8,173.6,263.1,173.1z"/>
<path id="XMLID_19_" d="M236.1,185.4c-7.5-8.8-16.4-15.5-27.1-18.3c-14-3.6-29.1-6.1-41.9,2.6c-8.4,5.7-15.9,13.5-20.2,23.5
	c-0.6,1.5-1.6,2.9-2.4,4.4c-1.4,2.7-3,4.9-6.6,2.9c-3.8-2.2-1.8-4.7-0.5-7.2c1.6-3,3.2-6.1,5.1-8.9c4.9-7.4,10.7-13.9,17.8-19.5
	c10.3-8.2,21.6-10.3,34.1-9.3c10.1,0.8,18.1,7,26.9,11.2c6.1,3,12.2,5.9,16,12.2C239,181.7,239,183.4,236.1,185.4z"/>
<path id="XMLID_18_" d="M222.8,226.3c-16.8,0-32.7,0-48.5,0c-0.5,0-1.1,0.2-1.5,0.1c-1.5-0.6-3-1.3-4.5-2c1.6-1.1,3.1-3.1,4.7-3.1
	c12.1-0.3,24.2-0.2,36.4-0.3c2.5,0,5,0.2,7.4-0.3C221.3,219.6,222.2,222.1,222.8,226.3z"/>
<path id="XMLID_17_" d="M295,220.5c14.4,1.1,28.7,2.1,43.1,3.4c1.3,0.1,2.5,1.7,3.8,2.6c-1.3,0.6-2.6,1.8-3.9,1.7
	c-9.1-0.2-18.3-0.1-27.3-1.2c-5.5-0.7-10.8-3.2-16.2-4.9C294.6,221.6,294.8,221.1,295,220.5z"/>
<path id="XMLID_16_" d="M305.3,204.4c-4.6,0.5-5.9-2.2-6.1-5.6c-0.2-4.7,3.5-3.9,6.3-4c2.6,0,5.8-0.3,5.5,3.7
	C310.8,202.2,309.4,205.1,305.3,204.4z"/>
<path id="XMLID_15_" d="M199.3,203.5c-3.2,0.1-4.7-1-4.8-4.3c-0.1-4.3,2-6,6-5.9c3.5,0.1,5.5,2,5.6,5.5
	C206.3,204,202,202.8,199.3,203.5z"/>
</svg>
