<?xml version="1.0" encoding="utf-8"?>
<!-- Generator: Adobe Illustrator 19.0.0, SVG Export Plug-In . SVG Version: 6.00 Build 0)  -->
<svg version="1.1" id="图层_1" xmlns="http://www.w3.org/2000/svg" xmlns:xlink="http://www.w3.org/1999/xlink" x="0px" y="0px"
	 viewBox="0 0 595.3 595.3" style="enable-background:new 0 0 595.3 595.3;" xml:space="preserve">
<style type="text/css">
	.st0{fill:#FFFFFF;}
</style>
<path id="XMLID_73_" class="st0" d="M1,597.9C1,398.7,1,199.3,1,0"/>
<path id="XMLID_72_" class="st0" d="M600.8,0c0,199.3,0,398.6,0,597.9"/>
<path id="XMLID_69_" class="st0" d="M90.1,521.2c8.1-0.5,15.2-1,22.7-1.5c0,8,0.1,15.1,0,22.3c-0.2,10-0.2,10-10.8,11.7
	c1.5,1.8,2.6,4.1,3.9,4.3c7.7,0.8,13.3,0.7,13.1-9.8c-0.2-9.5,0-18.9,0-28.4c2.3-1.1,7.1,0.3,4.6-4.7c-1.6-0.3-3.2-0.6-4.7-0.9
	c-0.4-4.3-0.7-8.2-1.1-12.2c-2.2,0.1-4,0.2-5.5,0.3c0,4.5,0,8.4,0,12.4c-6.5,0.6-12.6,1.1-19.1,1.7c0.5-1.1,0.7-1.9,1.1-2.6
	c3.1-6.7,1.1-10.1-6.1-9.7c-5.6,0.3-11.2,1.5-16.8,2.4c-3,0.5-4.2,2.3-3.2,5.5c6.8-1.2,13.6-2.3,20.3-3.5c0.3,0.4,0.6,0.9,0.9,1.3
	c-2.7,4.9-5.4,9.8-8.4,15.3c-1.9-2.8-3.4-4.8-4.6-6.9c-2.2-4-4.4-3.8-7.2-0.2c2.1,3.3,4,6.6,6.2,9.7c1.8,2.5,2.2,4.6,0.5,7.6
	c-3,5.3-5.4,11.1-8.1,16.6c-1.2,2.5-1.5,5.2,1.5,6.2c0.9,0.3,3.3-1.8,4.1-3.3c2.7-5.3,5-10.8,7.9-17.2c3,5.6,5.5,10.4,8.3,15.1
	c0.8,1.4,3.1,3.4,3.8,3.1c2.7-1.2,3-3.6,1.5-6.2c-1.7-2.9-2.8-6.2-4.9-8.7C84.1,533.6,85.1,527,90.1,521.2z"/>
<path id="XMLID_68_" class="st0" d="M280.6,545.7c2.1-3.2,3.8-5.6,5.4-8c-4.8-2.8-4.9-2.9-7.8,1.1c-3.1,4.3-6.3,8.6-8.8,13.3
	c-0.7,1.2,0.9,3.6,1.4,5.5c1.2-0.8,3-1.3,3.5-2.4c1.8-4.2,4.5-5.5,9-4.3c3.7,1,7.6,1.1,11.3,1.7c9.3,1.7,18.5,3.4,27.9,5.2
	c1.3-3.6,0.2-5.4-3.5-6.1c-6.6-1.2-13.2-2.7-19.6-4c-0.5-3.9,1.1-4.9,4.2-4.9c5.6-0.1,11.2-0.6,16.8-1c0.2-0.5,0.5-1,0.7-1.4
	c-1.4-0.9-2.7-2.4-4.1-2.5c-4.5-0.3-9-0.1-13.5,0.1c-2.3,0.1-4.9,0.6-4.3-2.7c0.2-1.2,2.5-2.8,3.9-2.9c5.8-0.3,11.7-0.2,17.5-0.2
	c3.6,0,3.8-1.6,2-5.4c-16.4,1.2-32.9,2.5-49.5,3.8c-3.1,0.2-4.5,1.6-4.1,5.2c8-1,16-2,24.2-3c0,5.2,0,9.4,0,14.3
	C289.1,546.7,285.3,546.2,280.6,545.7z"/>
<path id="XMLID_66_" class="st0" d="M362.4,464c7.5,1.4,8.2,0.9,8.3-6.4c0.1-7,0.2-14,0.2-21c0-10,0-20,0-29.9
	c0-2.9-1.1-4.8-4.3-4.8c-3,0-4.2,1.7-4.2,4.5C362.4,425.5,362.4,444.6,362.4,464z"/>
<path id="XMLID_65_" class="st0" d="M482.8,543.6c0-12.3,0-24.4,0-36.8c-2,0.1-3.7,0.2-4.6,0.2c0,11.6,0.1,22.5,0,33.4
	C478.1,543.7,479.4,544.6,482.8,543.6z"/>
<path id="XMLID_64_" class="st0" d="M415.8,543.6c0-12.3,0-24.3,0-36.4c-2,0-3.6,0-4.6,0c0,11.3,0.1,22.3-0.1,33.2
	C411.1,543.6,412.3,544.6,415.8,543.6z"/>
<path id="XMLID_63_" class="st0" d="M148.8,543.6c0-12.2,0-24.3,0-36.5c-1.9,0-3.6,0-4.6,0c0,11.3,0.1,22.2-0.1,33.1
	C144.1,543.5,145.2,544.6,148.8,543.6z"/>
<path id="XMLID_62_" class="st0" d="M545.2,507c0,11.5-0.1,22.4,0,33.3c0,3.6,0.3,3.6,4.6,3c0-12,0-24,0-36.3
	C548,507,546.4,507,545.2,507z"/>
<path id="XMLID_61_" class="st0" d="M201.3,514.1c10.1-0.9,19.5-1.7,28.9-2.5c0.7-3.6-0.9-4.3-4.1-4.2c-2.3,0.1-5.7-0.5-6.7-2
	c-2.3-3.5-4.3-2.9-7-1.3c0.3,1.4,0.6,2.7,0.8,3.8C209.3,510.2,203.1,506.8,201.3,514.1z"/>
<path id="XMLID_60_" class="st0" d="M93,528.7c3.5,3.9,6.7,7.7,10.2,11.2c1,1,2.8,1.1,4.3,1.6c0.1-1.8,1.1-4.1,0.3-5.3
	c-2-3-4.9-5.4-7.3-8.1C97.9,525.1,95.5,525.1,93,528.7z"/>
<path id="XMLID_59_" class="st0" d="M148.7,555.2c0-2.7,0-5.1,0-7.6c-1.8,0-3.2,0-4.8,0c0,2.6,0,5,0,7.6
	C145.6,555.2,147.2,555.2,148.7,555.2z"/>
<path id="XMLID_58_" class="st0" d="M415.9,547.7c-1.9,0-3.3,0-5,0c0,2.6,0,5,0,7.6c1.8,0,3.3,0,5,0
	C415.9,552.6,415.9,550.3,415.9,547.7z"/>
<path id="XMLID_57_" class="st0" d="M482.7,555.2c0-2.7,0-5.1,0-7.6c-1.8,0-3.2,0-4.8,0c0,2.6,0,5,0,7.6
	C479.6,555.2,481.2,555.2,482.7,555.2z"/>
<path id="XMLID_56_" class="st0" d="M544.9,547.7c0,2.6,0,5,0,7.6c1.8,0,3.3,0,4.8,0c0-2.7,0-5.1,0-7.6
	C547.9,547.7,546.5,547.7,544.9,547.7z"/>
<path id="XMLID_46_" d="M406.8,0c-3.4,5.1-6.9,10-10.1,15.2c-2.2,3.6-3.8,7.6-5.5,11.5c-3,6.6-6.2,13.2-8.7,20
	c-2.8,7.6-5,15.4-7.5,23.1c-2,6-3.9,12-6.3,17.9c-0.5,1.3-3,2.5-4.5,2.5c-6.8-0.2-13.6-1.2-20.3-1.4c-15.2-0.4-30.5-0.7-45.8-0.6
	c-7,0-14,0.9-20.9,1.7c-15.8,1.8-30.8,6.3-45.3,12.7c-6.1,2.7-12.6,4.5-18.2,7.9c-9.7,5.9-20.1,10.7-28.1,19.2
	c-6.6,6.9-13.6,13.4-20.1,20.4c-2.2,2.3-3.5,5.5-5.4,8.2c-2.8,4-6.3,7.6-8.6,11.9c-13.2,24-22.4,49.1-19.5,77.2
	c2.5,24.6,11.1,46.2,28,64.8c7.7,8.5,16.2,15.7,25.5,21.9c7.1,4.7,15,8.2,22.8,11.8c8.4,3.9,16.8,8.4,25.7,10.6
	c15.5,3.7,31.2,7.1,47.1,8.1c19.4,1.3,39,1.1,58.3-0.4c17-1.3,33.9-4.2,50.1-10.2c9.4-3.5,19.2-6.1,28-10.8
	c7-3.7,12.7-9.9,18.9-15.2c2.1-1.8,3.7-4.1,5.5-6.2c4.5-5.1,7.9-10.9,11.7-16.4c8.9-12.8,12.7-27.5,17.3-41.8
	c4.1-12.6,3.6-25.8,3.6-39c0-19.4-5.4-37.7-13.8-54.6c-6.2-12.4-13.2-25.1-23.9-34.8c-11.3-10.3-22.8-20.5-33.9-31
	c-1.4-1.3-2-5.2-1.1-7c5.3-10.6,12.5-20.5,16.6-31.5c6.5-17.5,16.3-34.4,14.7-54.2c-0.3-3.8-1.4-7.4-2.1-11.2c3.7,0,7.3,0,11,0
	c2.6,9,2.8,18.2,0.8,27.2c-1.8,8-4.5,15.8-7.1,23.6c-2.3,6.9-4.6,13.8-7.8,20.3c-3.7,7.7-8.7,14.8-12.6,22.4c-2.5,4.9-3.8,5,1.9,9.1
	c13.9,9.9,25.7,22.2,36,35.8c3.3,4.3,6.5,8.7,9.8,13.1c0.4,0.5,1.1,0.9,1.3,1.5c4.9,11,10.8,21.7,14.4,33.1
	c3.1,9.7,3.4,20.3,5.1,30.4c3.3,19.2-0.8,37.9-4.4,56.4c-1.6,8.3-6.1,16.2-9.9,24c-3.6,7.3-6.9,14.8-12.1,21.4
	c-9.2,11.6-18.7,22.4-31.3,30.6c-13.9,9-29.8,12.5-44.9,17.9c-1.2,0.4-3,1.4-3.1,2.3c-0.1,1.2,0.9,2.8,1.9,3.7
	c6.6,6.1,10.9,13.5,13.3,22c3.7,13.2,7.8,26.4,10.7,39.8c1.8,8.4,2,17.1,2.3,25.7c0.1,4.1-2.8,5-8.3,3.6
	c-1.8-15.9-2.8-31.8-5.7-47.4c-1.8-9.9-5.3-19.8-11.4-28.3c-1.4-2-2.5-4.3-3.3-6.6c-2.3-6.3-10.3-11.2-16.8-10
	c-23.1,4-46.3,4.9-69.6,3.5c-10-0.6-20-0.9-29.8-2.2c-7.7-1-15.2-3.1-22.8-5c-3.1-0.8-5-0.4-7.1,2.5c-1.6,2.3-4.8,4-7.6,4.9
	c-14.2,4.5-29,4.7-43.7,6c-15,1.3-28.9-3.1-43.2-6.1c-10.2-2.1-20.4-4.5-30.5-7.3c-11.6-3.2-23.4-2.7-35.2-2.3
	c-7.8,0.2-15.6,0.7-23.5,0.9c-4.2,0.1-9,2.3-12.3,6.5c8,1.4,15.4,2.9,22.8,3.7c5.3,0.6,10.7,0,16,0.1c3.6,0.1,6.4,3.3,6.1,6.9
	c-1.6,18.5,9.5,22,24.2,17.9c3.3-0.9,6.4-3,9.8-3.6c4.1-0.8,8.4-0.9,12.6-0.9c13,0,26,0.2,39,0.4c17.7,0.3,35.2,2,52.2,7.3
	c4.2,1.3,8.1,4.4,11.7,7.1c3.4,2.5,6.4,5.7,9.6,8.6c0.1,0.1,0.3,0.2,0.4,0.3c5.6,11.6,14.1,21.8,16.2,34.9c0.1,0.4-0.2,0.9-0.5,1.7
	c-1.3-0.1-2.6-0.5-3.8-0.3c-4.4,0.7-5.3-1.7-6.2-5.5c-2.6-10.9-8.1-20.2-15.9-28.5c-10.7-11.3-24.2-15.4-38.8-16.2
	c-22.9-1.3-45.9-1.9-68.9-2.2c-4.5-0.1-9,3.1-13.7,3.9c-6.5,1.2-13.2,2.8-19.6,2c-9.9-1.2-14.8-8.5-16.4-18
	c-0.3-1.8-0.5-3.6-0.7-5.8c-6.2-0.5-12.3-0.9-18.4-1.4c-7.6-0.6-15.2-1.6-21.9-6c-3.6-2.4-5.4-6.8-3.9-10.7
	c2.2-5.7,9.3-10.6,15.6-10.7c17.8-0.1,35.7-0.8,53.5,0c9,0.4,17.8,3.6,26.7,5.3c16.1,3,31.2,10.8,48.1,9.7
	c12.9-0.9,25.9-1.2,38.8-2.2c4.4-0.4,8.6-2.3,12.8-3.7c0.8-0.3,1.3-1.6,1.9-2.4c-0.7-0.5-1.4-1.3-2.3-1.6c-5.3-2-10.7-3.6-15.8-6
	c-14-6.6-27.4-14.3-39.7-23.7c-10.5-8.1-18.9-18.2-26.4-29.1c-8.3-12-13.4-25.6-16.7-39.4c-2.9-11.9-3.1-24.7-2.9-37.1
	c0.3-22.2,10-41.7,20.2-60.7c9.6-17.8,21.9-34,38.2-46.2c8.4-6.3,16-14.1,26.5-17.8c9.5-3.3,18.1-9.2,27.5-13
	c7.1-2.9,14.9-4.2,22.2-6.5c1.2-0.4,2.7-2.3,2.8-3.5c1-12.6,1.1-25.3,2.8-37.7c1.4-10.4,4.5-20.6,7.1-30.9c1-4,2.7-7.7,4.1-11.6
	c4.3,0,8.7,0,13,0c-2,4.1-4.1,8.1-6,12.3c-6,12.6-7.8,26.2-9.4,39.8c-1,9.1-0.2,18.5-0.2,27.9c1,0.1,2,0.4,2.9,0.3
	c11.2-1.3,22.4-2.8,33.6-3.9c3.9-0.4,5.6-1.9,6-5.7c0.7-6.6,1.4-13.2,2.7-19.7c3.3-17.1,5.8-34.1-0.6-51c4.3,0,8.7,0,13,0
	c0.5,5,1.7,9.9,1.5,14.9c-0.3,10.9-0.7,21.9-2,32.8c-1.2,9.4-3.8,18.6-5.8,27.9c13.6,1.1,26.5,2.2,39.1,3.3c1.4-4.2,2.5-8.2,4-12
	c3.2-8.6,7.5-16.9,9.8-25.8c2.8-11.1,7.7-20.9,14-30.3c2-3,2.4-7.1,3.6-10.7C396.8,0,401.8,0,406.8,0z"/>
<path id="XMLID_40_" d="M208.1,551.6c6.8,0.8,6.8,0.8,6.8-5.8c0-4,0-7.9,0-12.4c-3.5,0.3-6.2,0.5-9.1,0.8c-0.3-5.2-0.7-10.1-0.8-15
	c0-0.9,1.2-2.4,1.9-2.5c5.7-0.7,11.5-1.2,17.3-1.4c1.1,0,2.2,1.4,3.6,2.3c0.4-0.6,0.9-2,1.5-2c8.7-0.2,7.4-7.7,9.3-12.8
	c0.2-0.6,0.5-1.2,0.8-2.2c1.7,0.5,3.2,0.9,5.1,1.4c-0.8,3.8-1.6,7.3-2.5,11.5c2.8-0.2,5.1-0.3,8.2-0.5c-1.5-3.2-2.8-5.8-4.3-8.8
	c1.3-0.8,2.6-1.7,4.3-2.7c2.4,3.6,6.8,6.2,2.5,11.4c1.7,0.2,3.1,0.4,4.9,0.6c0.1,1.3,0.2,2.6,0.4,4.3c-3.5,0-6.8,0-10.8,0
	c-0.4,10.2-0.8,20-1,29.7c0,1.1,1.5,2.1,2.4,3.2c1-1.1,2.4-2,3-3.3c0.6-1.3,0.4-2.9,0.7-6c2.3,2.1,5.2,3.5,5,4.7
	c-0.3,3-1.1,7.3-3.2,8.5c-7.5,4.5-13.8,0.5-13.8-8.3c0-8.9,0-17.9,0-26.4c-2.2,11.8-4.6,24.2-7,36.8c-4.4-0.1-6.2-2.3-4.7-6.8
	c-6.6,0.7-4.3-5.8-7.5-8.3c-0.2,3.2-0.3,6.2-0.5,9.2c-0.2,4.4-2.8,5.8-6.9,6c-4.5,0.3-5.4-2.2-5.5-5.8L208.1,551.6z M229.4,543.6
	c1.7-8.9,3.2-16.6,4.8-24.7c-2.5,0.4-4.1,0.7-5.5,1c0,4.3,0,8.2,0,12c-8.4,0.9-8.4,0.9-7.9,4.6c1.5-0.3,3-0.6,4.6-1
	C226.6,538,227.6,540.2,229.4,543.6z M223.6,527.5c-1.2-2.9-1.5-6.4-3.3-7.5c-1.8-1.1-5.9-0.7-7.4,0.7c-1.5,1.5-1.1,5-1.7,8.2
	C215.7,528.4,219.1,528,223.6,527.5z"/>
<path id="XMLID_37_" d="M350.1,544.9c-2.1,2.8-3.7,5.6-5.8,7.8c-1,1-2.8,1.2-4.3,1.8c0-1.8-0.7-3.9,0-5.2c1.6-2.9,3.8-5.4,5.6-7.7
	c-0.7-4.9-8.3-5.1-6.3-11.2c1.3-4.1,2.4-8.3,3.8-12.9c-1.4-0.1-2.6-0.2-4.5-0.4c0.5-1.5,0.9-3.7,1.4-3.8c6.2-0.6,6.6-6,8.5-10.6
	c1.8,0.5,3.3,0.9,4.9,1.4c-0.8,2.5-1.4,4.7-2.1,6.9c7.6,1.4,7.6,1.4,7.9,9.9c2.1-0.9,2.1-0.9,3.9-13.1c1.3-0.2,2.7-0.5,4.6-0.8
	c0,3.8,0,7.2,0,10.6c5.2-0.1,5.1-0.1,5.1-5.4c0-3,0-5.9,0-9.2c1.5,0.1,3.1,0.2,5,0.4c0.2,4,0.4,7.7,0.6,11.3
	c0.6,0.3,0.9,0.7,1.1,0.6c8.7-0.4,10.1,0.9,10.4,9.6c0.1,3.2,0.6,6.5-0.3,9.4c-0.5,1.9-2.9,3.8-4.9,4.4c-1.4,0.5-3.5-1-5.1-2.2
	c5.6-3.2,6.5-7,3.7-16.6c-3.2-0.7-4.9,0.2-4.8,3.9c0.2,6.8,0,13.6,0,20.7c-2.1,0.1-3.5,0.2-5.4,0.4c0-7.7,0-15.1,0-22.6
	c-4.3,0-6.4,1.2-6.1,5.8c0.4,5.8,0.1,11.7,0.1,17.5c0,3.5,1.6,5.3,5.2,5c2.5-0.2,5-0.2,7.5-0.4c5.6-0.6,5.6-0.6,6.5-7.4
	c1.9,1.4,4.2,2.2,4.6,3.6c0.8,2.9,0.7,6.9-3.1,7.3c-7.1,0.7-14.2,0.8-21.3,0.4c-3.5-0.2-4.6-3.6-4.6-6.8c-0.1-7,0-13.9,0-20.9
	c-0.5-0.3-0.9-0.6-1.4-0.9c-1.2,1.2-2.6,2.4-3.5,3.7c-0.6,0.9-0.6,2.3-1.1,3.3c-3.1,4.9-2.7,9.1,2.2,12.7c0.9,0.7,1.7,2.2,1.8,3.4
	c0.1,0.9-0.7,2.4-1.5,2.9c-0.6,0.3-2.2-0.3-2.9-0.9C353.6,549.1,352.1,547.1,350.1,544.9z M354.6,515.6c-8.2,0.7-6.5,6.9-8.3,10.5
	c-1.6,3.2-3,7.1,3.1,9.3C351,529.2,352.7,522.9,354.6,515.6z"/>
<path id="XMLID_36_" d="M90.1,521.2c-5,5.8-6,12.4-0.1,19.5c2.1,2.5,3.2,5.8,4.9,8.7c1.6,2.6,1.3,5-1.5,6.2c-0.7,0.3-3-1.7-3.8-3.1
	c-2.8-4.6-5.3-9.5-8.3-15.1c-2.9,6.4-5.2,11.9-7.9,17.2c-0.8,1.5-3.2,3.6-4.1,3.3c-3-1-2.7-3.6-1.5-6.2c2.7-5.5,5-11.3,8.1-16.6
	c1.7-3,1.3-5.1-0.5-7.6c-2.2-3.1-4.1-6.4-6.2-9.7c2.8-3.6,5-3.7,7.2,0.2c1.2,2.2,2.7,4.1,4.6,6.9c3-5.4,5.7-10.4,8.4-15.3
	c-0.3-0.4-0.6-0.9-0.9-1.3c-6.7,1.2-13.5,2.3-20.3,3.5c-1-3.2,0.2-5,3.2-5.5c5.6-0.9,11.1-2.1,16.8-2.4c7.2-0.4,9.2,3,6.1,9.7
	c-0.3,0.7-0.6,1.5-1.1,2.6c6.5-0.6,12.6-1.1,19.1-1.7c0-4,0-7.9,0-12.4c1.5-0.1,3.2-0.2,5.5-0.3c0.4,4.1,0.7,8,1.1,12.2
	c1.5,0.3,3.1,0.6,4.7,0.9c2.5,5-2.3,3.5-4.6,4.7c0,9.5-0.2,18.9,0,28.4c0.2,10.5-5.4,10.6-13.1,9.8c-1.3-0.1-2.3-2.5-3.9-4.3
	c10.6-1.6,10.7-1.6,10.8-11.7c0.1-7.1,0-14.3,0-22.3C105.3,520.2,98.3,520.6,90.1,521.2z"/>
<path id="XMLID_35_" d="M280.6,545.7c4.7,0.5,8.5,1,12.8,1.5c0-4.9,0-9.1,0-14.3c-8.3,1-16.2,2-24.2,3c-0.4-3.6,1-4.9,4.1-5.2
	c16.6-1.2,33.1-2.5,49.5-3.8c1.8,3.8,1.6,5.4-2,5.4c-5.8-0.1-11.7-0.2-17.5,0.2c-1.4,0.1-3.7,1.7-3.9,2.9c-0.5,3.3,2,2.8,4.3,2.7
	c4.5-0.2,9-0.3,13.5-0.1c1.4,0.1,2.8,1.6,4.1,2.5c-0.2,0.5-0.5,1-0.7,1.4c-5.6,0.3-11.2,0.9-16.8,1c-3.1,0.1-4.8,1-4.2,4.9
	c6.4,1.3,13,2.7,19.6,4c3.6,0.7,4.8,2.5,3.5,6.1c-9.3-1.7-18.6-3.5-27.9-5.2c-3.8-0.7-7.7-0.8-11.3-1.7c-4.5-1.2-7.2,0.1-9,4.3
	c-0.5,1.1-2.3,1.6-3.5,2.4c-0.5-1.9-2.1-4.3-1.4-5.5c2.5-4.6,5.7-9,8.8-13.3c2.9-4,3-4,7.8-1.1C284.4,540.1,282.8,542.5,280.6,545.7
	z"/>
<path id="XMLID_31_" d="M320.5,522.7c-15.1,0.9-29.1,1.7-43.8,2.5c0.3-3.5,0.8-6.9,0.8-10.3c0-2.2,2-5-1.6-6.4
	c0.8-1.5,1.6-4.3,2.5-4.4c11.6-0.9,23.1-1.8,34.7-1.9c1.9,0,4.8,3.3,5.4,5.5C319.9,512.4,319.9,517.5,320.5,522.7z M282.7,518.8
	c0.4,0.4,0.7,0.9,1.1,1.3c9.9-0.5,19.8-1,29.7-1.5c0.3-0.4,0.6-0.7,1-1.1c-1.2-1.1-2.4-3.2-3.5-3.1c-8.5,0.3-16.9,0.9-25.4,1.7
	C284.5,516.2,283.6,517.9,282.7,518.8z M313.3,510.4c-2.8-5-10.5-5.7-25.7-3.2c-1.4,0.2-2.7,1.6-4,2.4c0.2,0.3,0.5,0.6,0.7,0.8
	C293.7,510.4,303.2,510.4,313.3,510.4z"/>
<path id="XMLID_30_" d="M366.4,464c0-19.4,0-38.5,0-57.6c0-2.7,1.2-4.5,4.2-4.5c3.2,0,4.3,1.9,4.3,4.8c0,10,0,20,0,29.9
	c0,7-0.1,14-0.2,21C374.6,464.9,373.9,465.4,366.4,464z"/>
<path id="XMLID_29_" d="M482.8,543.6c-3.5,1-4.7,0.1-4.7-3.2c0.1-10.9,0-21.8,0-33.4c0.9,0,2.6-0.1,4.6-0.2
	C482.8,519.3,482.8,531.3,482.8,543.6z"/>
<path id="XMLID_28_" d="M415.8,543.6c-3.5,1-4.7,0-4.7-3.2c0.1-10.9,0.1-21.8,0.1-33.2c1,0,2.7,0,4.6,0
	C415.8,519.3,415.8,531.3,415.8,543.6z"/>
<path id="XMLID_27_" d="M148.8,543.6c-3.6,1-4.7-0.2-4.7-3.3c0.1-10.9,0.1-21.8,0.1-33.1c1,0,2.7,0,4.6,0
	C148.8,519.3,148.8,531.4,148.8,543.6z"/>
<path id="XMLID_26_" d="M545.2,507c1.2,0,2.8,0,4.6,0c0,12.3,0,24.3,0,36.3c-4.3,0.6-4.5,0.6-4.6-3
	C545.1,529.4,545.2,518.5,545.2,507z"/>
<path id="XMLID_25_" d="M201.3,514.1c1.8-7.3,8-3.9,11.8-6.2c-0.2-1.1-0.5-2.4-0.8-3.8c2.7-1.6,4.8-2.2,7,1.3c1,1.5,4.4,2.1,6.7,2
	c3.3-0.1,4.8,0.6,4.1,4.2C220.8,512.4,211.4,513.2,201.3,514.1z"/>
<path id="XMLID_24_" d="M208.2,552.4c-0.8,1.2-1.7,2.4-2.6,3.8c-3.6-0.6-5.1-2.6-3.7-5.9c2-4.5,4.3-8.9,6.7-13.7
	c1.9,1,3.2,1.7,4.8,2.5c-1.9,4.7-3.6,9.1-5.4,13.4C208.1,552.6,208.2,552.4,208.2,552.4z"/>
<path id="XMLID_23_" d="M93,528.7c2.5-3.5,4.9-3.5,7.4-0.6c2.4,2.7,5.3,5.1,7.3,8.1c0.8,1.2-0.1,3.5-0.3,5.3
	c-1.4-0.5-3.3-0.6-4.3-1.6C99.7,536.3,96.5,532.5,93,528.7z"/>
<path id="XMLID_22_" d="M148.7,555.2c-1.6,0-3.1,0-4.8,0c0-2.6,0-4.9,0-7.6c1.7,0,3.1,0,4.8,0C148.7,550.1,148.7,552.5,148.7,555.2z
	"/>
<path id="XMLID_21_" d="M415.9,547.7c0,2.7,0,4.9,0,7.6c-1.7,0-3.3,0-5,0c0-2.6,0-4.9,0-7.6C412.5,547.7,413.9,547.7,415.9,547.7z"
	/>
<path id="XMLID_20_" d="M482.7,555.2c-1.6,0-3.1,0-4.8,0c0-2.6,0-4.9,0-7.6c1.7,0,3.1,0,4.8,0C482.7,550.1,482.7,552.5,482.7,555.2z
	"/>
<path id="XMLID_19_" d="M544.9,547.7c1.7,0,3.1,0,4.8,0c0,2.5,0,4.8,0,7.6c-1.5,0-3.1,0-4.8,0C544.9,552.7,544.9,550.3,544.9,547.7z
	"/>
<path id="XMLID_15_" d="M301.9,230.3c11.1,0.8,19.7,1.5,28.3,2c5.1,0.3,7.9,2.8,9,7.5c2.9,12.9,5.8,25.8,8.5,38.8
	c2.3,11.2,4.4,22.4,6.5,33.6c0.2,1.3,0.4,2.6,0.4,3.9c0.4,10.3-4.3,13.7-14.4,11.4c-4.9-1.1-10.2-1.4-15.3-1.4
	c-5.9,0.1-11.8,1.4-17.8,1.5c-11.9,0.2-23.8-0.1-35.7-0.3c-0.7,0-1.4-0.4-2-0.3c-10,2.2-13.6-4.5-17-11.8c-2.5-5.2,1.4-9.2,2.1-13.8
	c0-0.2,0.1-0.3,0.2-0.4c6.8-9.2,5.4-19.2,3.7-29.6c-1.4-8.5-0.6-17,1.7-25.6c2.4-9.2,9-12.4,16.9-13.6
	C286.1,230.9,295.2,230.8,301.9,230.3z M347.1,321.9c0.2-2.2,1.1-5.4,0.8-8.5c-1-11.5-5.2-16.2-15.1-17.3c-1.5-0.2-3.2,0.3-4.7,0.7
	c-3.4,0.9-6.8,1.9-10.3,2.8c-2.9,0.7-5.8,1.3-8.7,1.7c-3.4,0.5-7,1.6-10.1,0.7c-4.5-1.2-8.4-0.7-12.5,1.1c-3.2,1.4-6.2,1.4-8.7-1.3
	c-3.7-4-7.6-3.3-12.2-1.6c-4.2,1.6-4.6,5.1-5.7,8.5c-1.3,4,1.5,10.9,5.5,11.4c7.3,1,14.4,3.8,22,0.6c2.7-1.2,6.5-0.1,9.7,0.1
	c3.1,0.2,6.2,0.9,9.3,0.9c8.1-0.1,16-3.3,24.3-1.5C335.6,321.2,340.6,321.3,347.1,321.9z M334.7,248.7c-1-3.2-1.6-5.7-2.7-7.9
	c-0.6-1.2-2.2-2.7-3.3-2.7c-17.2-0.2-34.5-0.4-51.7,0c-7.5,0.2-11.5,5.5-10.7,12.4C289.1,256.5,311.8,257.3,334.7,248.7z"/>
<path id="XMLID_14_" d="M233,152.9c12.5-0.7,22.9,3.1,33,9.1c6.4,3.8,12.3,7.4,15.4,14.3c0.7,1.5-0.2,3.7-0.3,5.5
	c-1.8-0.3-4-0.1-5.2-1.1c-3.9-3.3-6.8-8-11.1-10.5c-6-3.5-12.7-6.6-19.5-7.8c-7.4-1.3-15.3-0.9-22.9-0.2c-7,0.7-13.3,3.5-17.4,10
	c-1.8,2.8-5.1,4.7-7.1,7.5c-3.5,4.9-6.5,10.3-9.7,15.4c-1.4,2.2-2.9,5-6.2,3c-3.2-1.9-2.5-4.3-1-7.2c6.9-13.2,15.1-25.2,28.3-32.8
	C216.8,153.7,225.1,152,233,152.9z"/>
<path id="XMLID_13_" d="M408.6,185.3c-1,1.3-1.9,3.5-3,3.5c-1.6,0.1-3.8-0.8-4.8-2c-8.6-10.1-17.2-20.1-30.6-24.1
	c-9.6-2.9-19.3-2.1-28.5,0.6c-3.8,1.1-6.9,5.4-9.8,8.6c-2.7,3-4.9,6.6-7.2,10c-3.5,5.2-8.1,5.1-13.5-0.1c-1.6-1.5-3.7-2.6-4.9-4.4
	c-0.9-1.2-1.3-3.4-0.8-4.7c0.4-0.9,2.8-1.8,4-1.5c1.7,0.3,3.3,1.5,4.6,2.8c3.6,3.4,6.2,1.6,7.7-1.7c3.8-8.5,11.1-13.5,18.7-17.3
	c4.8-2.4,11-2.5,16.5-2.5c18.4,0.1,32.7,8.6,44.1,22.6c1.5,1.8,3.3,3.3,4.7,5.2C406.9,181.6,407.5,183.4,408.6,185.3z"/>
<path id="XMLID_12_" d="M240.4,217.8c7.2,0,14.3-0.1,21.5,0.1c1.4,0,3.1,0.9,4,2c0.6,0.8,0.5,3.1-0.1,3.6c-0.9,0.7-2.6,0.3-4,0.3
	c-10.1,0-20.3,0-30.4,0c-5.3,0-10.6-0.1-15.9-0.5c-1.1-0.1-2.1-1.4-3.2-2.1c1.1-0.8,2.2-2.3,3.3-2.3c8.3-0.2,16.6-0.1,25-0.1
	C240.4,218.4,240.4,218.1,240.4,217.8z"/>
<path id="XMLID_11_" d="M385.4,225.8c-10.4-0.5-20.8-0.9-31.2-1.4c-4.6-0.2-9.3-0.4-13.9-1c-1.3-0.2-2.3-2-3.4-3.1
	c1.4-0.8,2.8-2.3,4.1-2.3c13.6,0.6,27.2,1.5,40.8,2.1C385.3,220.3,386.4,221.8,385.4,225.8z"/>
<path id="XMLID_10_" d="M244.4,190.4c2.8,0.5,5.3,1.5,5.4,5.4c0.1,4-2,6.5-5.8,6.4c-3.7-0.1-5.4-2.1-5.7-6
	C237.9,191.8,240.8,191.1,244.4,190.4z"/>
<path id="XMLID_9_" d="M343.2,194.9c0.4-3.6,3.6-4.6,6.7-4c1.9,0.4,4.6,2.9,4.8,4.7c0.5,3.6-1.4,6.2-5.7,6.3
	C344.5,202,343.5,199.2,343.2,194.9z"/>
</svg>
