<?xml version="1.0" encoding="utf-8"?>
<!-- Generator: Adobe Illustrator 19.0.0, SVG Export Plug-In . SVG Version: 6.00 Build 0)  -->
<svg version="1.1" id="图层_1" xmlns="http://www.w3.org/2000/svg" xmlns:xlink="http://www.w3.org/1999/xlink" x="0px" y="0px"
	 viewBox="0 0 595.3 595.3" style="enable-background:new 0 0 595.3 595.3;" xml:space="preserve">
<style type="text/css">
	.st0{fill:#FFFFFF;}
</style>
<path id="XMLID_59_" class="st0" d="M561.7,0c0,198.6,0,397.2,0,595.9"/>
<path id="XMLID_57_" class="st0" d="M272.4,537.9c0.1,0.3,0.2,0.6,0.3,0.9c-5.1,3.3-10.2,6.7-15.3,10c-2.2,1.4-3.9,3.1-2.2,5.5
	c0.4,0.6,3.5-0.1,4.9-0.9c6-3.7,11.8-7.5,17.5-11.5c2.4-1.6,4.3-1.7,6.7-0.1c6.8,4.5,13.7,8.7,20.7,13.2c2.9-2.6,2.4-4.9-0.6-6.8
	c-5.5-3.6-11.1-7.1-17.6-11.2c6.9-0.4,12.6-0.7,18.4-1c1.2-3.5-0.6-3.8-3.1-3.6c-4.7,0.2-9.3,0.2-14,0.5c-3.3,0.2-4.7-1-3.7-5.3
	c6.2,0,12.7,0.1,19.1-0.1c1.1,0,2.2-1.3,3.2-1.9c-1.1-0.6-2.2-1.7-3.3-1.8c-5.5-0.1-11,0.1-16.5,0c-1,0-2-1.1-3-1.7
	c1-0.8,1.9-2.3,2.9-2.3c4.3-0.4,8.6-0.3,13-0.6c1-0.1,1.8-1.2,2.7-1.8c-0.9-0.5-1.7-1.5-2.6-1.5c-4-0.1-8,0.2-12,0
	c-1.4-0.1-2.8-1.3-4.2-1.9c1.3-0.6,2.6-1.6,3.9-1.7c5.8-0.2,11.6-0.1,17.7-0.1c0-1.5,0.1-3.2,0-3.2c-3.8-0.6-7.7-1-11-1.4
	c-0.6-1.3-1.2-3.3-1.6-3.3c-1.9,0.1-4.3,0.3-5.5,1.5c-3.5,3.2-10.1,3.5-13.3-0.1c-2.2-2.5-4.2-2.3-6.5-0.3c0.3,1.1,0.6,2.2,1,3.4
	c-10.2,1-10.2,1-10.9,5.3c2.9-0.3,5.6-0.6,8.4-0.9c3-0.2,6-0.6,9-0.5c1.2,0.1,2.4,1.2,3.7,1.9c-0.2,0.5-0.5,1-0.7,1.6
	c-3.5,0.3-6.9,0.6-10.4,0.8c-7.1,0.6-7.3,0.7-8,4.9c6.2-0.6,12.4-1.2,18.5-1.8c0.3,0.7,0.5,1.3,0.8,2c-1.4,0.9-2.7,2.3-4.2,2.6
	c-5.1,0.8-10.3,0.9-15.3,1.8c-1.6,0.3-3,2-4.5,3.1c0.3,0.4,0.6,0.8,0.9,1.2c7.4-0.8,14.7-1.7,22.4-2.5c0,1.8,0,3.2,0,5
	c-5.7,0.6-11.3,1.1-16.9,1.8c-2.3,0.3-5.2,0.3-4.5,4.6C262.1,539,267.2,538.5,272.4,537.9z"/>
<path id="XMLID_56_" class="st0" d="M63.7,524.4c-1.6,2.7-2.7,4.6-3.8,6.6c-4.3,7.7-8.9,15.2-12.8,23.1c-0.8,1.6,0.7,4.3,1.1,6.5
	c1.5-1.1,3.5-1.8,4.4-3.3c5.9-10,11.6-20.2,17.4-30.2c2.7-4.6,4.1-4.6,6.9-0.1c6.5,10.2,12.9,20.6,19.4,30.8c1,1.6,1.8,5,4.5,2.6
	c1.2-1,1.6-4.4,0.8-5.9c-2.7-5.3-6-10.3-9.2-15.4c-3.1-5-6.4-9.8-10.3-15.8c7.6,0,14,0,20.2,0c1.4-4,0.1-5.2-3.2-5.1
	c-3.5,0.2-7,0-10.5,0c-4.2,0-8.3,0-13.1,0c2.8-4.6,5.3-8.7,7.7-12.6c-4.4-3.3-7-2-9.1,2.1c-1.2,2.4-3,4.4-4.1,6.8
	c-1.6,3.5-4.2,4.7-7.8,4.8c-4.1,0.2-8.3,0.8-12.4,1.1c-3.4,0.3-4,2.2-3.2,5.3C52.1,525.5,57.5,525,63.7,524.4z"/>
<path id="XMLID_55_" class="st0" d="M161.4,517.6c-10.2,0-19.8,0-29.6,0c0.3-1.9,0.6-3.8,1.2-7.3c-3.1,1.4-6.5,1.9-6.9,3.3
	c-2.5,8.1-4.4,16.5-6.5,25.2c1.7,0,2.4,0,3,0c10.6-0.7,21.2-1.6,31.8-2.1c1.7-0.1,5,1,5.1,1.8c0.4,5,0.5,10.2-0.3,15.1
	c-0.1,0.8-5.5,0.6-8.5,1c-0.3,0-0.5,0.3-1.9,1.2c1.6,1.6,3,4,4.5,4.1c9.3,0.8,13.7,1.1,13.4-10.7c0-1.8,0-3.7,0-5.5
	c-0.1-10.3-1.6-11.8-11.8-11.9c-8.9,0-17.9,0-26.7,0c1.8-11.3,0.9-8.5,10.6-9.5c7.4-0.8,14.9-0.2,22.6-0.2
	C161.4,520.4,161.4,519.1,161.4,517.6z"/>
<path id="XMLID_54_" class="st0" d="M198.7,434.7c-0.3,0-0.6,0-0.9,0c0-9.3,0.2-18.6-0.2-28c-0.1-1.5-2.7-2.9-4.1-4.4
	c-1.3,1.4-3.8,2.7-3.8,4.1c-0.1,18.3,0.2,36.6,0.3,54.9c0,3.7,1.6,4.9,5.2,4.6c3.8-0.3,3.6-2.8,3.6-5.3
	C198.7,452,198.7,443.3,198.7,434.7z"/>
<path id="XMLID_53_" class="st0" d="M114.9,520.8c5.1,0.5,5.4,0.5,5.7-5.1c0.2-4.2,2-5.4,5.8-5.5c9.5-0.2,18.9-0.8,28.4-1
	c9.5-0.2,9.6,0,8.4,9.4c0,0.2,0.3,0.5,1,1.6c1.8-1.1,4.4-1.8,5.2-3.4c3.1-6.3-0.5-11.9-7.5-12c-9.6-0.1-19.3,0-28.9,0.3
	c-5.5,0.2-11,0.8-16.3,1.7c-1.5,0.2-3.7,2.3-3.7,3.5C112.9,513.6,114,516.9,114.9,520.8z"/>
<path id="XMLID_52_" class="st0" d="M111.1,551.3c15.8-0.7,29.8-1.3,43.9-2.1c0.8,0,1.5-1.5,2.3-2.4c-0.9-0.7-1.9-1.9-2.8-1.9
	c-12.6,0.5-25.2,1.1-37.8,2.1C115,547.1,113.5,549.3,111.1,551.3z"/>
<path id="XMLID_51_" class="st0" d="M327.6,545.6c0-12.3,0-24.3,0-36.8c-2,0.1-3.7,0.2-4.6,0.2c0,11.6,0.1,22.5,0,33.4
	C322.9,545.6,324.1,546.6,327.6,545.6z"/>
<path id="XMLID_50_" class="st0" d="M394.6,545.6c0-12.3,0-24.3,0-36.8c-2,0.1-3.7,0.2-4.6,0.2c0,11.6,0.1,22.5-0.1,33.4
	C389.9,545.7,391.2,546.6,394.6,545.6z"/>
<path id="XMLID_49_" class="st0" d="M456.7,545.8c2.1,0,3.3,0,4.8,0c0-12.4,0-24.6,0-37c-2,0.1-3.5,0.2-4.8,0.3
	C456.7,521.4,456.7,533.2,456.7,545.8z"/>
<path id="XMLID_48_" class="st0" d="M221.4,545.2c3.8-1.6,5.4-3.7,3.4-7.4c-1.9-3.5-3.9-6.9-5.6-10.5c-2.1-4.2-4.4-4.3-7.4-1.1
	C214.9,532.5,218.1,538.6,221.4,545.2z"/>
<path id="XMLID_47_" class="st0" d="M327.3,549.7c-1.5,0-3,0-4.6,0c0,2.7,0,5.1,0,7.4C328.4,557.6,328.7,557.1,327.3,549.7z"/>
<path id="XMLID_46_" class="st0" d="M389.6,557.2c5.8,0.5,6.1,0,4.7-7.4c-1.5,0-3,0-4.7,0C389.6,552.4,389.6,554.6,389.6,557.2z"/>
<path id="XMLID_45_" class="st0" d="M461.5,557.3c0-2.8,0-5.2,0-7.7c-1.8,0-3.2,0-4.9,0c0,2.6,0,5,0,7.7
	C458.3,557.3,459.7,557.3,461.5,557.3z"/>
<path id="XMLID_35_" d="M353.7,0c-5.3,9.1-11.5,17.8-15.8,27.3c-5.8,13-10.5,26.5-15.2,40c-2.2,6.2-3.1,12.8-5.2,19
	c-0.6,1.7-3.3,3.7-5,3.6c-8.2-0.4-16.5-1.4-24.7-2.1c-1.7-0.2-3.3-0.5-4.9-0.6c-21.5-1-43,0.1-64.2,3.3c-13.7,2.1-26.7,8.2-40.2,12
	c-12.6,3.5-23.1,11-34.1,17.4c-5.4,3.2-9.9,8.1-14.7,12.3c-9.3,8.1-18.2,16.6-23.9,27.9c-1.7,3.4-5.4,5.8-7,9.3
	c-6.6,13.9-14.9,27.3-17.7,42.7c-2.8,15.6-2.7,31.3-0.2,47.2c2.5,15.9,9.5,29.8,18.4,42.4c10.1,14.2,23,25.7,38.7,34.2
	c13.4,7.3,27.3,13.4,41.8,17.8c10.9,3.2,22.2,5.4,33.5,6.8c15.1,1.9,30.4,3.3,45.7,3.6c26.6,0.6,52.8-3,78.1-11.1
	c9.5-3,19-6.8,27.6-11.8c9-5.3,16.8-12.4,23.7-20.5c9.6-11.2,16.9-23.8,22.3-37.3c9-22.5,12.3-46.2,9.7-70.5
	c-1.7-15.4-7.2-29.7-13-43.9c-1-2.5-3.3-4.4-4.7-6.7c-5.2-8.7-9.7-18-17-25.1c-9.3-9.1-18.9-17.8-28.4-26.7
	c-2.5-2.3-5.9-3.9-7.9-6.6c-1.3-1.7-1.7-5.3-0.8-7.2c3.5-7.5,7.8-14.7,11.7-22c8-14.8,13.3-30.6,17.9-46.7c2.7-9.4,2-18.7-0.6-27.9
	c3.7,0,7.3,0,11,0c3.4,12,1.8,24-1.4,35.7c-2.6,9.3-6.3,18.2-10,27.1c-3.3,8.1-7,16-10.8,23.9c-1.5,3.2-3.6,6.2-5.7,9.2
	c-2.1,3-0.3,4.6,1.9,6c17.7,11.7,30.9,27.7,43.2,44.7c7.5,10.4,11.7,22.5,17.6,33.7c2.2,4.1,2.7,9.1,3.5,13.8
	c1.8,10.5,4.1,21,4.6,31.5c0.4,9-1.2,18.2-2.2,27.3c-0.5,4.3-1.8,8.4-2.3,12.7c-1.3,11.9-7.2,22-12.4,32.2c-3.5,6.8-7,13.8-11.5,20
	c-4.8,6.5-10.5,12.6-16.5,18.1c-5.9,5.5-12.2,10.7-19.1,14.8c-6.6,3.9-14.2,6.3-21.4,9.2c-2.4,1-4.9,1.7-7.9,2.8
	c2.1,4,6,4.5,9.5,5.4c9.9,2.7,19.9,1.7,29.7-0.5c33.1-7.5,62-22.9,86.6-46.4c23.3-22.3,41.1-48.6,54.7-77.7
	c5.6-12,9.7-24.7,14.5-37.1c0.7-1.7,1.1-3.6,2.1-5c1.9-2.5,4.7-6.8,6.2-6.5c3.6,0.9,8,3.3,9.8,6.4c4.6,7.5,2.3,15.8,0.1,23.7
	c-0.3,1.1-0.7,2.3-1.3,3.2c-3.4,5.4-3.2,9.6,1.9,14.6c7,6.9,10.6,16.2,8.1,26c-1.5,6-5.8,11.4-9.5,16.6c-4.7,6.7-10.6,11.7-18,15.9
	c-8.4,4.7-15,12.4-22.8,18.3c-19.6,14.8-39.2,29.5-59.1,43.9c-18.5,13.3-38.7,23.6-59.4,32.8c-14.7,6.5-30,11.7-45.1,17
	c-5.1,1.8-8.6,5.1-12.2,8.7c-12,12.1-16.6,27.2-18.2,43.6c-0.1,0.8-0.2,1.6-0.4,2.8c-2.5,0.3-4.9,0.5-7.7,0.8
	c-0.8-8.8-0.6-17,3.2-24.7c3.7-7.6,7.1-15.5,11.7-22.5c3.2-4.8,8.4-8.2,12.3-12.5c3.8-4.1,8.9-4.4,13.7-5.9
	c10.1-3.3,20.1-7,29.7-11.5c15.6-7.2,31.4-14.4,46.3-23c16.3-9.5,32-20.1,47.1-31.3c17.2-12.7,33.3-26.8,50-40.1
	c3.3-2.7,7.6-4.2,10.7-7c4.9-4.4,9.7-9.1,13.5-14.4c8-11.1,7.7-19.3-2.5-28.9c-6.9-6.5-6.4-12.4-3.2-20c2-4.7,2.9-9.8,4.1-14.8
	c0.3-1.1-0.2-2.4-1.4-3.6c-2.4,5.8-5,11.5-7.1,17.3c-9.7,27.2-23.6,52.1-41.2,74.7C472,330,444,353.2,409.2,367
	c-17.2,6.8-35.1,11.9-53.8,11.3c-8.7-0.3-17-3.3-23.1-10.4c-1-1.2-3.7-2-5.2-1.6c-28.8,8-58.2,8.3-87.7,7.4
	c-11.3-0.4-22.5-2-33.7-3.5c-9.1-1.3-16,2.8-19.4,11.7c-1.2,3.2-3.8,5.8-5.4,8.8c-6,11.6-9.1,24-10.6,36.9
	c-1.2,10.5-2.8,20.9-4,31.4c-0.1,0.8,0.7,1.8,1.1,2.8c-2,0.6-4,1.1-6.2,1.8c-4.5-5.4-2.9-11.7-2-17.6c1.9-12.7,3.5-25.6,7-38
	c3.8-13.2,7.3-27.1,18.2-37.1c3.8-3.5,3.4-4.2-1.4-5.9c-12.3-4.3-24.9-8-36.7-13.6c-11.2-5.3-22-11.9-32-19.3
	c-13.1-9.7-23.1-22.6-31.3-36.5c-4.3-7.3-6.4-15.8-9.2-23.9c-6.2-17.5-6.7-35.6-4.4-53.7c1.2-9.4,4.5-18.6,7.8-27.6
	c2.8-7.7,6.5-15.1,10.7-22.2c8.1-13.5,15.9-27.3,28.4-37.4c7.5-6.1,14.7-12.7,22.4-18.5c16.9-12.9,35.8-21.7,56.7-26.3
	c3.3-0.7,6.5-2,9.9-3.1c0.8-9.1,1.6-18.1,2.3-27.2c1.1-14.9,2.9-29.6,8-43.7c1.4-4,2.9-8,4.3-12.1c4,0,8,0,12,0
	c-1.8,3.4-4.2,6.7-5.3,10.3c-2.3,7.1-4.3,14.3-5.9,21.5c-1.5,6.8-2.9,13.7-3.3,20.7c-0.6,9.1-0.1,18.2-0.1,28.1
	c3.2-0.6,5.8-1.3,8.4-1.6c9.6-1,19.2-2,28.8-2.8c3.4-0.3,4.9-1.7,5.3-5.2c0.7-6.9,1.5-13.8,2.8-20.6c3.2-16.9,5.7-33.7-0.6-50.4
	c4.3,0,8.7,0,13,0c4.8,25.7,0.3,50.8-6.2,75.3c13.4,1.2,26,2.3,38.7,3.4c2.9-7.9,5.8-15.7,8.5-23.5c2.5-7.2,4.2-14.8,7.2-21.7
	c3.4-7.7,8.1-14.9,11.9-22.5c1.7-3.4,2.7-7.3,4-10.9C343.7,0,348.7,0,353.7,0z"/>
<path id="XMLID_29_" d="M210.1,528.6c-2.3-0.9-3.4-1.4-5.1-2.1c0,10.1,0,20,0,30c-7.6,1-14.7,1.9-22.5,3c0-10.4,0.1-20.5-0.1-30.5
	c0-2.3-1.3-4.5-1.7-6.8c-0.3-1.5-0.9-3.5-0.3-4.6c2.3-4.2,4.8-8.4,7.7-12.2c0.8-1,3.5-0.5,6.4-0.8c-1.6,3-2.5,4.7-3.4,6.3
	c3.5,0.4,7.7-0.2,10.1,1.5c2.3,1.7,2.9,5.9,4.2,8.9c2.1-4.2,4.6-8.8,6.7-13.6c1.7-4,4-4.4,7.4-1.9c-1,2.3-2,4.7-3,7
	c4.4,0,8.3-0.1,12.3,0c3.8,0.1,6.7,2.1,6.9,5.9c0.4,11.8,0.6,23.6,0.3,35.4c-0.2,5.1-11.5,8.9-15.4,5.4c-0.9-0.8-1-2.5-1.5-3.8
	c0.8-0.3,1.1-0.6,1.4-0.5c9.3,1,10.5,2,10.5-10.5c0-7.3-0.3-14.6-0.3-21.9c0-4.1-1.9-5.6-5.9-5.5
	C217.4,517.4,210.5,518.2,210.1,528.6z M199,535c-3.2,0.5-6,0.7-8.7,1.4c-1,0.2-2.3,1.6-2.4,2.5c-0.2,4.7-0.1,9.4-0.1,14.4
	c3.4-0.2,5.9-0.2,8.3-0.7c1.1-0.2,2.7-1.6,2.7-2.5C199.2,545.3,199,540.5,199,535z M188.1,531.5c3-0.3,5.6-0.1,7.9-0.9
	c1.3-0.5,3-2.6,2.9-3.9c-0.3-3.7-1.5-7.3-2.3-10.9c0,0-0.3,0-0.5,0c-4.4-0.5-7,1.8-7.3,6.3C188.6,525,188.3,528,188.1,531.5z"/>
<path id="XMLID_28_" d="M272.4,537.9c-5.1,0.5-10.3,1.1-15.6,1.6c-0.8-4.3,2.1-4.3,4.5-4.6c5.6-0.7,11.2-1.2,16.9-1.8
	c0-1.7,0-3.1,0-5c-7.7,0.9-15.1,1.7-22.4,2.5c-0.3-0.4-0.6-0.8-0.9-1.2c1.5-1.1,2.9-2.8,4.5-3.1c5.1-0.9,10.3-1,15.3-1.8
	c1.5-0.2,2.8-1.7,4.2-2.6c-0.3-0.7-0.5-1.3-0.8-2c-6.2,0.6-12.3,1.2-18.5,1.8c0.7-4.3,0.9-4.4,8-4.9c3.5-0.3,6.9-0.6,10.4-0.8
	c0.2-0.5,0.5-1,0.7-1.6c-1.2-0.7-2.4-1.8-3.7-1.9c-3-0.1-6,0.2-9,0.5c-2.8,0.2-5.6,0.6-8.4,0.9c0.8-4.3,0.8-4.3,10.9-5.3
	c-0.3-1.2-0.7-2.3-1-3.4c2.4-1.9,4.4-2.2,6.5,0.3c3.1,3.6,9.8,3.3,13.3,0.1c1.3-1.2,3.6-1.3,5.5-1.5c0.4,0,1,2,1.6,3.3
	c3.3,0.4,7.1,0.8,11,1.4c0.1,0,0,1.8,0,3.2c-6.1,0-11.9-0.1-17.7,0.1c-1.3,0-2.6,1.1-3.9,1.7c1.4,0.7,2.8,1.8,4.2,1.9
	c4,0.2,8-0.1,12,0c0.9,0,1.7,1,2.6,1.5c-0.9,0.6-1.8,1.8-2.7,1.8c-4.3,0.3-8.7,0.2-13,0.6c-1,0.1-1.9,1.5-2.9,2.3c1,0.6,2,1.7,3,1.7
	c5.5,0.1,11-0.1,16.5,0c1.1,0,2.2,1.1,3.3,1.8c-1.1,0.7-2.1,1.9-3.2,1.9c-6.4,0.2-12.9,0.1-19.1,0.1c-1,4.2,0.3,5.5,3.7,5.3
	c4.6-0.3,9.3-0.2,14-0.5c2.6-0.1,4.4,0.2,3.1,3.6c-5.8,0.3-11.5,0.6-18.4,1c6.5,4.1,12.1,7.6,17.6,11.2c3,1.9,3.4,4.2,0.6,6.8
	c-7-4.5-13.9-8.7-20.7-13.2c-2.4-1.6-4.4-1.5-6.7,0.1c-5.8,4-11.6,7.8-17.5,11.5c-1.4,0.8-4.4,1.5-4.9,0.9c-1.7-2.4,0-4.1,2.2-5.5
	c5.1-3.3,10.2-6.7,15.3-10C272.5,538.5,272.5,538.2,272.4,537.9z"/>
<path id="XMLID_27_" d="M63.7,524.4c-6.2,0.6-11.5,1-17.1,1.5c-0.8-3.1-0.2-5,3.2-5.3c4.1-0.4,8.3-1,12.4-1.1
	c3.6-0.1,6.2-1.4,7.8-4.8c1.1-2.4,2.9-4.4,4.1-6.8c2.1-4.1,4.7-5.4,9.1-2.1c-2.4,3.9-4.9,8-7.7,12.6c4.7,0,8.9,0,13.1,0
	c3.5,0,7,0.1,10.5,0c3.4-0.1,4.7,1,3.2,5.1c-6.2,0-12.6,0-20.2,0c3.9,5.9,7.2,10.8,10.3,15.8c3.2,5.1,6.5,10.1,9.2,15.4
	c0.8,1.5,0.3,4.9-0.8,5.9c-2.7,2.3-3.4-1-4.5-2.6c-6.5-10.2-12.9-20.6-19.4-30.8c-2.8-4.5-4.2-4.5-6.9,0.1
	c-5.9,10-11.5,20.2-17.4,30.2c-0.9,1.4-2.9,2.2-4.4,3.3c-0.4-2.2-1.9-4.9-1.1-6.5c3.9-7.9,8.5-15.4,12.8-23.1
	C60.9,529.1,62.1,527.1,63.7,524.4z"/>
<path id="XMLID_26_" d="M161.4,517.6c0,1.5,0,2.7,0,4.6c-7.7,0-15.2-0.6-22.6,0.2c-9.7,1-8.7-1.8-10.6,9.5c8.9,0,17.8,0,26.7,0
	c10.2,0,11.7,1.6,11.8,11.9c0,1.8,0,3.7,0,5.5c0.2,11.8-4.1,11.5-13.4,10.7c-1.5-0.1-2.9-2.6-4.5-4.1c1.3-0.8,1.6-1.1,1.9-1.2
	c3-0.3,8.4-0.2,8.5-1c0.8-4.9,0.7-10.1,0.3-15.1c-0.1-0.8-3.3-1.9-5.1-1.8c-10.6,0.5-21.2,1.4-31.8,2.1c-0.6,0-1.3,0-3,0
	c2.2-8.7,4-17.1,6.5-25.2c0.4-1.4,3.8-1.9,6.9-3.3c-0.6,3.5-0.9,5.4-1.2,7.3C141.6,517.6,151.2,517.6,161.4,517.6z"/>
<path id="XMLID_25_" d="M198.7,434.7c0,8.6,0,17.3,0,25.9c0,2.5,0.2,5-3.6,5.3c-3.6,0.3-5.2-0.9-5.2-4.6
	c-0.1-18.3-0.4-36.6-0.3-54.9c0-1.4,2.5-2.7,3.8-4.1c1.4,1.5,4.1,2.9,4.1,4.4c0.4,9.3,0.2,18.6,0.2,28
	C198.1,434.7,198.4,434.7,198.7,434.7z"/>
<path id="XMLID_24_" d="M114.9,520.8c-0.8-3.9-1.9-7.2-2-10.5c0-1.2,2.2-3.3,3.7-3.5c5.4-0.9,10.9-1.5,16.3-1.7
	c9.6-0.3,19.3-0.4,28.9-0.3c7,0.1,10.6,5.7,7.5,12c-0.8,1.6-3.4,2.3-5.2,3.4c-0.7-1.1-1-1.4-1-1.6c1.2-9.4,1.1-9.6-8.4-9.4
	c-9.5,0.2-18.9,0.8-28.4,1c-3.8,0.1-5.6,1.3-5.8,5.5C120.3,521.3,120,521.2,114.9,520.8z"/>
<path id="XMLID_23_" d="M111.1,551.3c2.5-2,3.9-4.2,5.6-4.3c12.6-1,25.2-1.5,37.8-2.1c0.9,0,1.8,1.2,2.8,1.9
	c-0.8,0.8-1.5,2.3-2.3,2.4C140.9,549.9,126.8,550.5,111.1,551.3z"/>
<path id="XMLID_22_" d="M327.6,545.6c-3.5,1-4.7,0-4.7-3.2c0.1-10.9,0-21.8,0-33.4c0.9,0,2.6-0.1,4.6-0.2
	C327.6,521.3,327.6,533.3,327.6,545.6z"/>
<path id="XMLID_21_" d="M394.6,545.6c-3.5,1-4.7,0-4.7-3.2c0.1-10.9,0.1-21.8,0.1-33.4c0.9,0,2.6-0.1,4.6-0.2
	C394.6,521.3,394.6,533.3,394.6,545.6z"/>
<path id="XMLID_20_" d="M456.7,545.8c0-12.5,0-24.4,0-36.7c1.3-0.1,2.9-0.2,4.8-0.3c0,12.5,0,24.7,0,37
	C460,545.8,458.8,545.8,456.7,545.8z"/>
<path id="XMLID_19_" d="M221.4,545.2c-3.3-6.6-6.5-12.7-9.7-19c3-3.2,5.4-3.1,7.4,1.1c1.7,3.6,3.7,7,5.6,10.5
	C226.8,541.5,225.3,543.6,221.4,545.2z"/>
<path id="XMLID_18_" d="M327.3,549.7c1.4,7.4,1,7.9-4.6,7.4c0-2.3,0-4.7,0-7.4C324.3,549.7,325.8,549.7,327.3,549.7z"/>
<path id="XMLID_17_" d="M389.6,557.2c0-2.5,0-4.8,0-7.4c1.7,0,3.2,0,4.7,0C395.7,557.1,395.4,557.7,389.6,557.2z"/>
<path id="XMLID_16_" d="M461.5,557.3c-1.8,0-3.2,0-4.9,0c0-2.7,0-5,0-7.7c1.7,0,3.1,0,4.9,0C461.5,552.1,461.5,554.5,461.5,557.3z"
	/>
<path id="XMLID_12_" d="M256.2,232.2c8,0.5,16,0.8,23.9,1.5c7.2,0.6,8.9,2.7,10.3,9.6c3.5,16.8,7.3,33.5,10.8,50.3
	c1.7,8.1,3.3,16.2,4,24.4c0.7,9-4.4,12.2-13.3,10.7c-6.8-1.1-14-0.8-20.9-0.9c-7.4-0.1-14.9,0-22.3,0.1c-6.8,0.1-13.5,0.5-20.3,0.5
	c-3.1,0-6.3-0.6-9.4-0.9c-3.2-0.3-7.7,0.6-9.4-1.2c-3.1-3.1-5.6-7.7-6.4-12c-0.7-3.7,0.5-8.5,2.5-11.7c6-9.3,5.9-19.1,4-29.2
	c-1.6-8.5-0.9-16.7,1.1-25.1c2.1-9.2,8.2-13.5,16.7-14.5c9.5-1.2,19.1-1.6,28.7-2.4C256.2,231.7,256.2,231.9,256.2,232.2z
	 M296.5,323.3c3.3-3.8,3.4-3.8,2.4-9c-1.2-6.3-0.8-13.4-9.3-15.4c-4.5-1.1-8.6-3.6-13,0.2c-1.2,1-3.4,1-5.1,1.3
	c-4.3,0.9-8.7,1.9-13,2.5c-2.6,0.4-5.5,1.1-7.8,0.3c-4.6-1.7-8.7-1.4-12.9,0.7c-3.1,1.5-6.1,1.5-8.7-1.1c-4.4-4.4-8.7-3.6-13.9-1
	c-4.9,2.4-4.7,7-5,10.6c-0.2,2.8,2.6,7.8,4.8,8.4c6.6,1.5,13.8,2.2,20.5,1.5c4.6-0.5,8.9-1.7,13.5,0c2,0.8,4.5,1.2,6.6,0.9
	c6.5-0.9,12.9-3,19.3-3C282.1,320.2,289.2,322.1,296.5,323.3z M286.5,250.9c-1.7-4.2-2.5-6.8-3.9-9c-0.7-1.1-2.4-2.4-3.6-2.4
	c-15.3-0.4-30.6-0.7-45.8-0.6c-5.6,0-11.3,0.8-15,6.1c-2.8,4-1.9,7.9,2.8,8.3c13.4,1.3,26.8,2.8,40.1,2.6
	C269.3,255.9,277.5,252.8,286.5,250.9z"/>
<path id="XMLID_11_" d="M184.3,163.7c-8.4-0.3-17.3-0.8-23.6,5.5c-6.9,6.9-14.8,13.2-19,22.6c-1,2.3-2,4.8-3.7,6.3
	c-1.2,1.1-4,1.5-5.4,0.9c-1-0.5-2.1-3.7-1.5-4.8c7.1-13.9,15.6-26.9,29.7-34.8c8.4-4.7,17.9-5.6,27.5-5c10.5,0.7,19.6,4.3,28.8,9.4
	c6.7,3.7,12.1,7.8,15.4,14.5c0.6,1.3,0.1,3.7-0.8,5c-0.4,0.6-3.4,0.2-4.5-0.7c-3.2-2.5-6.3-5.3-9.1-8.3
	c-7.5-8.1-17.2-10.6-27.7-10.7C188.3,163.7,186.3,163.7,184.3,163.7z"/>
<path id="XMLID_10_" d="M257.5,171.9c3.5,1.9,7.1,3.8,11.4,6.2c2.2-2.8,4.9-5.8,7.2-9c4.7-6.7,10.9-11.4,18.7-13.2
	c15.3-3.5,29.5-1.3,43,8.1c7.4,5.1,12.7,11.6,18.5,17.9c1,1,2,2.6,1.9,3.8c0,1.8-1.1,3.5-1.7,5.3c-1.7-0.9-3.7-1.4-5-2.7
	c-9.3-9.4-17.3-20.5-31.2-23.8c-8.9-2.1-18-2.3-26.6,0.5c-4.3,1.4-7.9,5.8-11.3,9.2c-2.7,2.8-4.8,6.3-7.1,9.6
	c-3.4,4.8-9.1,4.6-13.7-0.5c-1.3-1.5-3.5-2.4-4.5-4c-1.1-1.7-1.3-4-1.9-6C256.1,172.8,256.8,172.4,257.5,171.9z"/>
<path id="XMLID_9_" d="M191.4,219.2c7.2,0,14.3-0.1,21.5,0.1c1.3,0,3,1,3.8,2.1c0.6,0.8,0.7,3.1,0.1,3.6c-0.9,0.7-2.5,0.3-3.9,0.3
	c-3.5,0-7-0.2-10.4-0.2c-11.7,0-23.3,0-34.9-0.2c-1.5,0-2.9-1.2-4.4-1.9c1.5-1,2.9-2.9,4.4-2.9c8-0.3,16-0.1,23.9-0.1
	C191.4,219.7,191.4,219.4,191.4,219.2z"/>
<path id="XMLID_8_" d="M288.1,224.9c-0.7-4.4,0.7-5.8,4.2-5.6c13.4,0.9,26.8,1.6,40.2,2.6c1.4,0.1,2.7,2,4.1,3
	c-1.4,0.7-2.9,1.9-4.2,1.9C317.7,226.3,303,225.6,288.1,224.9z"/>
<path id="XMLID_7_" d="M189.4,197.9c-0.2-4.6,2.3-5.9,5.7-5.8c3.5,0.1,6.1,1.5,5.9,5.6c-0.2,4.1-2.4,6-6.4,5.9
	C190.6,203.5,189.2,201,189.4,197.9z"/>
<path id="XMLID_6_" d="M300,203.3c-4.4,0.4-5.9-2.4-6-5.8c-0.2-4.1,3-5.2,6.4-5.3c3.6-0.1,5.5,1.9,5.5,5.5
	C305.8,201.8,303.5,203.4,300,203.3z"/>
</svg>
