<?xml version="1.0" encoding="utf-8"?>
<!-- Generator: Adobe Illustrator 19.0.0, SVG Export Plug-In . SVG Version: 6.00 Build 0)  -->
<svg version="1.1" id="图层_1" xmlns="http://www.w3.org/2000/svg" xmlns:xlink="http://www.w3.org/1999/xlink" x="0px" y="0px"
	 viewBox="0 0 595.3 595.3" style="enable-background:new 0 0 595.3 595.3;" xml:space="preserve">
<style type="text/css">
	.st0{fill:#FFFFFF;}
</style>
<path id="XMLID_77_" class="st0" d="M578.7,5c0,198.9,0,397.9,0,596.9"/>
<path id="XMLID_72_" class="st0" d="M356.7,540.8c6.3,0,12.4,0.1,18.5-0.1c1.3,0,2.6-1.2,3.8-1.9c-1.3-0.8-2.6-2.1-4-2.2
	c-5.3-0.2-10.7,0.2-16,0c-0.9,0-1.9-1.2-2.8-1.9c0.9-0.7,1.8-1.8,2.7-1.9c4.1-0.3,8.3-0.2,12.5-0.6c1.1-0.1,2.1-1.3,3.2-1.9
	c-1.1-0.6-2.2-1.7-3.4-1.8c-3.8-0.2-7.7,0.2-11.5,0.1c-1.3-0.1-2.5-1.2-3.8-1.8c1.2-0.6,2.3-1.6,3.5-1.6c6-0.2,11.9-0.1,19-0.1
	c-3-7.5-8.9-2.5-11.6-4.4c-0.9-1.6-1.6-3.7-2.2-3.7c-1.9,0-4.2,0.4-5.4,1.6c-3.4,3.2-9.6,3.3-13,0.2c-1.2-1.1-3.4-1.8-5-1.6
	c-0.8,0.1-1.3,2.7-2.1,4.5c-3,1.1-8.3-1.2-10.5,5.1c6.8-0.4,12.6-0.9,18.4-1.1c1.1,0,2.3,1,3.7,1.7c-6.7,4.4-15.2-0.9-19.6,6.8
	c5.2,0.1,10.3-0.5,15.4-0.9c1.2-0.1,2.4,0.8,3.6,1.3c-1.1,0.9-2.1,2.4-3.3,2.6c-5.1,0.8-10.3,1.1-15.4,1.7c-2.5,0.3-4.9,1-4.1,4.7
	c6.5-0.7,12.9-1.2,19.3-2.1c3.7-0.5,3.7,1.3,3.4,4.3c-6,0.7-11.8,1.3-17.5,1.9c-2.7,0.3-4.9,1-4.1,4.8c5.3-0.6,10.5-1.2,15.7-1.8
	c-5.1,4.3-10.6,7.7-15.7,11.5c-1.2,0.9-1.2,3.3-1.7,5c1.5-0.1,3.3,0.3,4.5-0.4c5.8-3.6,11.6-7.2,17.1-11.3c3.4-2.5,6.1-2.2,9.4,0.1
	c5.3,3.7,10.8,7.2,16.3,10.6c1.1,0.7,2.8,0.3,4.2,0.4c-0.2-1.6,0-3.6-0.8-4.8c-1-1.4-2.8-2.3-4.4-3.3c-4.4-2.8-8.8-5.5-14.1-8.7
	c6.9-0.3,12.6-0.6,18.2-0.9c1.1-3.8-0.6-4.2-3.2-4c-4.6,0.3-9.3,0.3-14,0.6C357,546.1,355.8,544.8,356.7,540.8z"/>
<path id="XMLID_71_" class="st0" d="M215.5,440.2c-0.2,0-0.4,0-0.7,0c0-8.6,0-17.3,0-25.9c0-3,0.2-6.4-4.3-6.3
	c-4.1,0.1-3.9,3.2-3.9,6.1c0,16,0,31.9,0.1,47.9c0,2.6,0.2,5.4,1,7.9c0.4,1.4,2.3,3.1,3.7,3.2c1.2,0.1,2.8-1.7,3.7-3
	c0.6-1,0.5-2.6,0.5-3.9C215.5,457.5,215.5,448.8,215.5,440.2z"/>
<path id="XMLID_69_" class="st0" d="M313,539c-0.5-0.4-0.9-0.7-1.4-1.1c-10.6,0-21.2-0.2-31.8,0.1c-6.3,0.2-12.5,1.3-18.8,2.1
	c-3.3,0.4-4.4,2.4-4.2,4.8c17.9-0.8,35.6-1.6,53.2-2.6C311.1,542.2,312,540.1,313,539z"/>
<path id="XMLID_68_" class="st0" d="M471.7,519.6c-2.1,0.1-3.8,0.2-5,0.3c0,12.7,0,24.7,0,36.9c2,0,3.3,0,5,0
	C471.7,544.5,471.7,532.4,471.7,519.6z"/>
<path id="XMLID_67_" class="st0" d="M532.6,557c2.3-0.1,3.6-0.2,5.2-0.3c0-12.5,0-24.6,0-36.7c-2.1,0-3.8,0-5.2,0
	C532.6,532.3,532.6,544.2,532.6,557z"/>
<path id="XMLID_66_" class="st0" d="M466.6,568.2c5.9,0.9,6.8-0.6,4.6-8c-1.5,0.1-3,0.2-4.6,0.3
	C466.6,563.5,466.6,565.9,466.6,568.2z"/>
<path id="XMLID_65_" class="st0" d="M532.5,568.3c6.1,0.8,7-0.8,4.7-8.1c-1.5,0.1-3,0.2-4.7,0.3
	C532.5,563.4,532.5,565.7,532.5,568.3z"/>
<path id="XMLID_55_" d="M370.7,5c-3.5,5.1-7.3,10-10.4,15.4c-2.5,4.3-4.3,9.1-6.3,13.6c-2.7,6-5.8,11.8-7.9,18
	c-2.8,8.1-4.8,16.6-7.2,24.9c-1.5,5.2-2.8,10.5-4.8,15.5c-0.5,1.3-3.2,2.7-4.7,2.6c-8.6-0.6-17.1-1.8-25.6-2.6c-4-0.4-8-0.5-12-0.3
	c-18.7,1-37.6,1.3-56.2,3.4c-12.3,1.4-24.5,4.9-35.9,10.6c-7.1,3.6-15,5.6-22.1,9.4c-9.6,5.2-19.4,10.4-27.3,18.3
	c-6.9,7-15,13.2-20.7,21.1c-5.7,8.1-13.1,15.3-16.5,25.2c-2.3,6.6-6.1,12.7-9.2,19c-4.9,10-7.1,20.7-7.8,31.6
	c-1.1,16.5,0,32.8,5.7,48.6c5.1,14,12.9,26.1,22.6,37.6c10.7,12.7,24,21.6,38.3,28.8c13.2,6.7,27.2,12.9,41.5,16
	c29.7,6.6,59.9,10.8,90.5,7.3c16.8-1.9,33.7-3.9,50.1-7.5c10.2-2.3,19.6-8.2,29.7-11.7c16.8-5.9,26.7-19.9,38.2-31.9
	c1.1-1.1,1.4-2.9,2.2-4.3c7.5-12.4,12.9-25.5,17.5-39.3c7-21,7.3-41.9,4.1-63c-2-13.7-6.1-27.4-13.6-39.4
	c-6.3-10.2-11.6-21.4-20.3-29.9c-9.7-9.5-19.8-18.5-29.8-27.7c-2.1-2-5.1-3.3-6.5-5.7c-1.2-1.9-1.6-5.3-0.7-7.3
	c3.4-7.1,7.4-13.9,11.2-20.9c8.7-15.9,14.9-32.8,18.9-50.4c1.5-6.5-0.1-13.7-0.4-20.6c-0.1-1.5-0.5-2.9-0.8-4.4c3.7,0,7.3,0,11,0
	c2.2,8.8,2.9,17.7,0.7,26.6c-2.5,9.8-5,19.6-8.5,29c-2.5,6.8-6.6,13-10,19.5c-1,1.9-1.6,4-2.6,5.9c-2,3.9-3.8,8.1-6.3,11.7
	c-2.9,4.1-2.9,6.5,1.1,9.4c17.4,12.4,31.4,27.8,43.1,45.5c8,12.2,14.5,25,19.3,38.6c2.8,8,3.7,16.8,4.5,25.4
	c0.9,9.5,2.7,18.9,1,28.7c-2.2,12.7-2.3,25.8-7.4,37.8c-4.8,11.3-9.1,22.9-15.4,33.3c-5.9,9.6-13.3,18.3-22.1,26
	c-18.9,16.5-27.9,18.8-47.5,26c1.9,4.3,5.8,4.6,9.3,4.8c29.9,1.7,56.5-7,79.8-26c15.8-12.9,26.6-29.3,34.8-47.6
	c12.9-28.6,18.4-58.9,20.4-90c0.4-6.4,4.4-8.6,10.3-5.9c8.2,3.8,13.2,13.1,12.3,23.6c-0.3,4.1-1.1,8.3-2.1,12.3
	c-0.8,3.3-0.2,4.4,3.4,5.3c8.3,2,17.3,4.6,19.2,14.2c1.2,6,0.1,13-1.8,19c-1.9,6-6,11.3-9.3,16.8c-0.7,1.2-1.9,2.5-3.2,3.1
	c-13.8,6.3-20.8,18.8-27.6,31c-8.1,14.5-19.3,26.2-31.7,36.7c-18.8,16-40.4,27.6-62.8,37.5c-14.9,6.6-30.8,11.1-46,17.2
	c-3.9,1.5-7.2,5-10.2,8.1c-11.3,11.8-16.6,26.2-17.6,42.4c-0.2,2.5-0.4,4.6-3.8,4.7c-3.2,0.1-5-1.3-4.6-4.3
	c0.9-7.1,1.4-14.5,3.7-21.2c2.7-7.5,6.3-15.1,11.2-21.4c5.4-6.8,12.7-12,19.2-17.9c13-0.8,24.3-7.2,36-12
	c26-10.6,50.5-23.9,71.9-42.2c11.6-9.9,21.1-21.8,28.8-35.2c5.3-9.2,12.9-17.1,19.6-25.5c0.9-1.1,2.2-2.1,3.5-2.7
	c9.3-4.2,12.1-12.9,15.3-21.5c3.8-10.3-0.2-13.8-10.6-17.6c-1.4-0.5-2.9-0.6-4.4-0.8c-8-1.2-9.8-4.5-8-12.4
	c1.4-6.1,1.9-12.4,2.2-18.7c0.1-2.4-1.7-4.9-2.7-7.3c-0.5,0.1-1.1,0.2-1.6,0.3c-0.6,4.5-1.2,8.9-1.6,13.4
	c-1.7,19.8-6.1,39.1-12.6,57.9c-9.7,28.2-24.6,53.3-48.8,71.5c-20.4,15.3-43.7,23.3-69.5,24.2c-8,0.3-15.4-0.8-22.6-4
	c-1.3-0.6-2.8-1.7-3.4-3c-1.5-3.3-3.7-4-6.8-3c-17.6,5.5-35.8,7.2-54.1,7.3c-20.8,0.1-41.6-1.3-62.3-2.1c-0.7,0-1.3-0.2-2-0.3
	c-9-2.4-15.9-0.6-20.6,6.9c-4,6.3-6.9,13.3-9.9,20.2c-7.7,18.3-8.8,37.8-10.2,57.3c-0.1,1.1-0.9,2.1-1,3.2c-0.1,1,0.4,2.1,0.6,3.4
	c-1.8,0.4-3.7,0.9-5.8,1.4c-4.8-5.3-2.7-11.8-1.9-17.5c1.8-13.1,3.3-26.4,7.1-39c3.8-12.9,7.4-26.5,18.2-36.3
	c3.6-3.2,2.9-4.1-1.5-5.6c-13.1-4.5-26.5-8.4-39-14.2c-10.6-5-20.7-11.5-30-18.7c-12.7-9.8-23.6-21.9-30.8-36.1
	c-11-21.9-16.9-45.2-15-70.4c1.6-22,10.4-41.2,20.6-59.8c6.6-12,13.9-24.1,24.7-33.3c8.1-6.8,16.2-13.6,24.5-20.3
	c14-11.3,29.9-18.9,47.2-23.9c6.7-1.9,13.3-3.8,19.9-5.7c1.8-28.5,3-56.7,14.6-83.1c4.3,0,8.7,0,13,0c-1,1.9-1.8,3.9-2.9,5.7
	c-5.2,8.6-7.7,18.2-9.6,27.9c-1.2,5.9-2.5,11.8-2.8,17.7c-0.5,9.5-0.1,19.1-0.1,29.2c2.9-0.5,5.4-1.1,8-1.4
	c8.9-0.9,17.8-1.8,26.7-2.4c4.7-0.3,7.5-1.7,7.8-7.2c0.3-6.2,1.4-12.4,2.6-18.6c3.1-17,5.6-34-0.6-50.8c4.3,0,8.7,0,13,0
	c4.7,25.7,0.5,50.7-6.1,75.4c13.3,1.2,26.1,2.3,38.5,3.4c1.8-4.7,3.5-9.1,5.2-13.5c3.2-8.4,6.3-16.9,9.4-25.4
	c2.9-7.8,5.7-15.7,9.1-23.3c2.5-5.7,5.9-11.1,8.9-16.6C361.4,5,366.1,5,370.7,5z"/>
<path id="XMLID_49_" d="M214.4,539c0.9-2.9,0.3-4.4-2.9-4c-5.4,0.6-10.8,1.2-16.2,1.8c-0.3-0.5-0.6-1.1-0.9-1.6
	c1.5-1.1,3-2.9,4.7-3.2c6-1,12.2-1.6,18.1-2.3c-0.1-2.1-0.2-4.2-0.3-6.7c-2.3,0.2-4.9,0.3-7.7,0.5c0.3,1.6,0.8,2.9,0.5,4
	c-0.2,1-1.1,2.1-2,2.6c-0.6,0.3-2-0.1-2.6-0.6c-2-1.6-2.3-6.3-6-4.4c-2.2,1.1-3.4,4.2-5.1,6.4c-0.3,0.4-0.7,0.7-1.2,1.3
	c-3.9-1.2-5-3.4-2.6-6.9c1.8-2.8,3.5-5.7,5.6-8.3c1-1.2,2.9-2.4,4.3-2.2c1.2,0.2,2.2,2.2,4,4c4.3,0,9.7,0,14.9,0
	c2.4-1.3,5-2.9,7.7-4.1c0.4-0.2,1.8,1.8,3.5,3.6c4.1-0.2,9.5-0.4,14.9-0.7c0.9,4.3,0.9,4.3-8.1,4.9c0,0.6,0.3,1.3,0.1,1.8
	c-0.6,1.4-1.1,3-2.2,3.8c-0.5,0.4-2.6-0.7-3.4-1.6c-4.2-5.1-6.9-4.7-9.6,2c5.5,2.4,12.8-2.6,17,3.6c1.7,2.5,1.6,6.1,2.5,10.2
	c-6.3,0-11.4,0.1-16.5,0c-3.5-0.1-4.4,1.4-3.3,5c4.8,0,9.6-0.1,14.4,0c6.1,0.2,8.5,4.1,7.8,12.9c-0.3,4.7-3.2,6.6-8.9,6.2
	c-3.1-0.2-4.6-1.6-4.1-4.8c2.3-1.3,7,1.7,6.8-4c-0.1-4.1-1.5-6.3-5.9-6.1c-3.3,0.1-6.6,0-10.4,0c0,6.8,0,12.7,0,18.9
	c-2.1,0-3.7,0-5.9,0c0-5.3,0-10.5,0-17.1c-4.5,3.6-7.9,6.3-11.3,9.1c-3.4,2.9-6.7,5.9-10.2,9c-3.6-2.7-3.6-5.2-0.4-7.8
	c3.8-3.2,7.7-6.4,12.8-10.6c-5.3,0.5-9.2,1-13.7,1.4c0-4-0.3-7.9,0.2-11.7c0.1-1,2.3-2.2,3.7-2.4C202.5,540.2,208.5,539.6,214.4,539
	z M199.8,549.6c4.3-0.4,8.3-0.8,12.2-1c3.4-0.2,3.8-1.8,2.6-4.5C202.9,543.4,199.7,544.4,199.8,549.6z M221.3,534.2
	c-0.3,0.4-0.7,0.8-1,1.2c1,1.1,2,3.1,3.2,3.2c3.5,0.3,7.1-0.2,10.7-0.3c0.1-0.6,0.2-1.1,0.2-1.7C231,532,225.8,534.8,221.3,534.2z"
	/>
<path id="XMLID_43_" d="M165.4,540.1c4.7,2.7,8,4.6,11.4,6.4c3.7,1.9,4.1,4.4,1.2,8c-3.9-2.2-7.9-4.5-12.3-7
	c0.5,8.2,0.9,15.6,1.3,23.3c-2.3,0-4,0-6.5,0c1.3-8.5-3.1-17,0.3-26.1c-8.7-5.9-9.7-5.9-20,1.5c1.1,0.9,2.1,1.7,3.2,2.5
	c-3.8,6.8-7.4,13.5-11.3,20c-0.6,1.1-2.4,1.5-3.6,2.2c-0.7-1.8-2.6-4-2-5.2c2-4.5,4.8-8.7,7.3-13c0.4-0.7,0.7-1.4,0.6-2.7
	c-3.3,2.2-6.7,4.4-10.3,6.8c-2.5-3.4-2.8-5.9,0.8-8.1c3-1.8,5.8-3.7,9.8-6.2c-3,0.1-4.9,0.2-7.4,0.4c0.3-5.1,0.7-10,0.6-14.9
	c0-1.3-1-2.9-2-3.9c-1.8-1.9-1-4.7,2.1-5.5c3.7-1,7.5-1.7,11.3-2c8.4-0.6,16.9-0.9,25.4-1.1c5.2-0.1,7.9,3.1,8.4,8
	c0.6,5.2,0.9,10.5,1.4,16.1C171.9,539.8,169.3,539.9,165.4,540.1z M168.6,534.9c-0.2-1.8-0.3-3.2-0.4-4.5c-11-1.9-14.1-0.8-13,5.1
	C159.6,535.3,164,535.1,168.6,534.9z M148.6,531.3c-11.9-0.8-14.5,0.4-13.1,5.9c4-0.4,8.1-0.8,12.5-1.3
	C148.1,534.4,148.3,533,148.6,531.3z M147.8,525.8c0-1.6,0-3.1,0-4.6c-10.9-0.1-12.4,0.6-12,5.9
	C139.8,526.6,143.7,526.2,147.8,525.8z M154.6,524.7c4.8,0,8.8,0,13.5,0c-3.6-6.7-8.9-3.7-13.8-4.4
	C154.5,522.1,154.6,523.5,154.6,524.7z"/>
<path id="XMLID_38_" d="M432.2,567.2c7.1-0.5,7.3-0.5,7.3-7.9c0.1-12.6,0-25.2,0-38.6c-5.9,0.8-10.6,1.4-15.4,2
	c-0.6,0.1-1.5,0.6-1.5,0.9c-0.3,6.1-5.6,11.6-2.2,18.2c0.8,1.5,1.2,3.3,2.9,4.8c-0.2-3.7-0.7-7.3-0.5-11c0.1-1.9,1.3-4.6,2.7-5.2
	c8.1-3.6,12.5-0.9,13,7.8c0.3,4.3,0,8.6,0,13.4c-4.9,0.7-10.1,1.4-15.1,2.1c-1.6,8.3-2.3,8.9-10.4,9.1c0,2.9,0,5.8,0,9
	c-2,0-3.5,0-5,0c0-14.5,0-28.7,0-43c0-1.6,0.4-3.7-0.4-4.7c-3-4-0.8-5.8,2.7-6.7c3.9-1,7.9-3.1,11.8,0.6c0.5,0.5,2.1-0.1,3.2-0.2
	c6.9-0.7,13.8-1.3,21.8-2.1c-0.9,3.4-2.1,5.9-2.2,8.5c-0.1,5.6,0.5,11.3,0.5,16.9c0,8.3-0.2,16.6-0.4,24.9c-0.1,4.3-2.9,6-7,6.1
	C434.8,572.1,431.9,571.8,432.2,567.2z M432.5,533.8c-0.9,0-1.9,0-2.8,0c-0.4,4.5-0.7,9.1-1.2,14.2c2.1-0.4,3.5-0.6,5.2-0.9
	C433.2,542.4,432.9,538.1,432.5,533.8z M415,541.9c-0.7,0.1-1.4,0.2-2,0.3c0,4.1-0.1,8.2,0.1,12.3c0,1,1.1,2,1.6,3
	c0.8-1,2.2-2.2,2.1-3.1C416.4,550.2,415.6,546.1,415,541.9z M417,521.3c-0.7-0.2-1.5-0.3-2.2-0.5c-0.4,3.5-0.9,6.9-1.3,10.4
	c0.4,0.1,0.8,0.2,1.2,0.2C415.4,528.1,416.2,524.7,417,521.3z"/>
<path id="XMLID_35_" d="M63,571c0-11.4,0-22.5,0-33.9c-2.3,0.3-4.4,0.6-6.5,0.9c0.3-5.1,0.3-5.1,6.8-7c1.9-11.1,1.9-11.1,7.4-10.1
	c0,1.4,0,2.9,0,4.4c0,1.5-0.2,2.9-0.3,4.4c6.8,0.9,6.7,0.9,7.3-5.2c0.3-2.9,0.7-5.9,1.1-9c2,0,3.6,0,5.9,0c-0.3,4.4-0.7,8.8-1,13.3
	c4.8,0,9.2,0,13.9,0c0-4.6,0-8.9,0-13.3c2,0,3.8,0,5.9,0c0.3,4.3,0.6,8.4,1,12.7c2.7,0.2,5.1,0.5,7.4,0.7c0.6,4.4,0.6,4.4-7.3,5.4
	c0,6.7,0,13.5,0,20.8c-9.4,0.6-18.4,1.1-27.8,1.7c0-7.1,0-14,0-21.5c-2.4,0.2-4.5,0.3-7.1,0.5c0,9.8,0,19.4,0,29c14,0,28.2,0,42.7,0
	c0,1.4,0,2.8,0,4.2C96.1,569.6,79.9,570.2,63,571z M98,550.4c0-5.6,0-10.8,0-16c-4.1,0-7.9-0.2-11.7,0.1c-1.2,0.1-3,1.7-3.1,2.7
	c-0.3,4.5-0.1,9.1-0.1,13.9C88.2,550.9,93,550.6,98,550.4z"/>
<path id="XMLID_34_" d="M356.7,540.8c-0.9,4,0.3,5.2,3.5,5c4.6-0.3,9.3-0.3,14-0.6c2.7-0.2,4.4,0.3,3.2,4
	c-5.6,0.3-11.3,0.6-18.2,0.9c5.2,3.3,9.7,6,14.1,8.7c1.5,1,3.4,1.8,4.4,3.3c0.8,1.2,0.6,3.2,0.8,4.8c-1.4-0.1-3.1,0.2-4.2-0.4
	c-5.5-3.4-11-6.9-16.3-10.6c-3.3-2.3-6-2.6-9.4-0.1c-5.5,4-11.3,7.7-17.1,11.3c-1.1,0.7-3,0.3-4.5,0.4c0.5-1.7,0.5-4.1,1.7-5
	c5.1-3.8,10.6-7.2,15.7-11.5c-5.2,0.6-10.4,1.2-15.7,1.8c-0.7-3.8,1.4-4.5,4.1-4.8c5.8-0.6,11.5-1.3,17.5-1.9
	c0.3-2.9,0.3-4.8-3.4-4.3c-6.4,0.9-12.8,1.4-19.3,2.1c-0.9-3.7,1.5-4.4,4.1-4.7c5.1-0.6,10.3-0.9,15.4-1.7c1.2-0.2,2.2-1.7,3.3-2.6
	c-1.2-0.5-2.5-1.4-3.6-1.3c-5.1,0.3-10.2,1-15.4,0.9c4.4-7.7,12.9-2.5,19.6-6.8c-1.4-0.7-2.6-1.8-3.7-1.7
	c-5.8,0.2-11.6,0.7-18.4,1.1c2.2-6.3,7.5-4.1,10.5-5.1c0.8-1.8,1.2-4.4,2.1-4.5c1.6-0.2,3.8,0.4,5,1.6c3.4,3.1,9.7,2.9,13-0.2
	c1.3-1.2,3.6-1.5,5.4-1.6c0.6,0,1.3,2.1,2.2,3.7c2.7,1.9,8.6-3.1,11.6,4.4c-7.1,0-13.1-0.1-19,0.1c-1.2,0-2.4,1.1-3.5,1.6
	c1.3,0.6,2.5,1.8,3.8,1.8c3.8,0.2,7.7-0.2,11.5-0.1c1.1,0,2.3,1.1,3.4,1.8c-1.1,0.7-2.1,1.8-3.2,1.9c-4.1,0.4-8.3,0.2-12.5,0.6
	c-1,0.1-1.8,1.3-2.7,1.9c0.9,0.7,1.8,1.9,2.8,1.9c5.3,0.1,10.7-0.2,16,0c1.4,0,2.7,1.4,4,2.2c-1.3,0.6-2.5,1.8-3.8,1.9
	C369.1,541,362.9,540.8,356.7,540.8z"/>
<path id="XMLID_33_" d="M215.5,440.2c0,8.6,0,17.3,0,25.9c0,1.3,0.1,2.9-0.5,3.9c-0.9,1.3-2.5,3.1-3.7,3c-1.3-0.1-3.2-1.8-3.7-3.2
	c-0.8-2.5-0.9-5.2-1-7.9c-0.1-16-0.1-31.9-0.1-47.9c0-2.9-0.2-6,3.9-6.1c4.5-0.1,4.3,3.2,4.3,6.3c0,8.6,0,17.3,0,25.9
	C215.1,440.2,215.3,440.2,215.5,440.2z"/>
<path id="XMLID_30_" d="M405.7,562.5c-6.2,0.9-11.2,1.7-16.6,2.5c0-11.1,0-22,0-32.9c0-1,0.6-2.3,0.1-2.9c-3.3-5.3,0-6.7,4.2-7.6
	c6.3-1.4,10.1,0.2,10.4,5C404.8,538.4,405.1,550.3,405.7,562.5z M395,558.8c2.5,0.4,4.6,0.2,4.5-3.6c-0.3-8.4-0.4-16.9-0.8-25.3
	c-0.1-1.4-1.2-2.7-1.9-4.1c-0.6,0.2-1.2,0.3-1.8,0.5C395,537,395,547.6,395,558.8z"/>
<path id="XMLID_29_" d="M313,539c-1,1.2-1.9,3.3-2.9,3.3c-17.7,1-35.4,1.8-53.2,2.6c-0.2-2.4,0.8-4.4,4.2-4.8
	c6.3-0.7,12.5-1.9,18.8-2.1c10.6-0.3,21.2-0.1,31.8-0.1C312.1,538.3,312.6,538.6,313,539z"/>
<path id="XMLID_28_" d="M471.7,519.6c0,12.8,0,24.9,0,37.2c-1.7,0-3,0-5,0c0-12.2,0-24.2,0-36.9
	C467.9,519.8,469.6,519.7,471.7,519.6z"/>
<path id="XMLID_27_" d="M532.6,557c0-12.8,0-24.7,0-37c1.4,0,3.2,0,5.2,0c0,12.1,0,24.2,0,36.7C536.2,556.8,534.8,556.9,532.6,557z"
	/>
<path id="XMLID_26_" d="M466.6,568.2c0-2.4,0-4.8,0-7.7c1.6-0.1,3.1-0.2,4.6-0.3C473.4,567.6,472.5,569.1,466.6,568.2z"/>
<path id="XMLID_25_" d="M532.5,568.3c0-2.6,0-4.9,0-7.7c1.7-0.1,3.2-0.2,4.7-0.3C539.5,567.5,538.6,569.1,532.5,568.3z"/>
<path id="XMLID_21_" d="M276.2,237.6c7.8,0.5,14.3,0.9,20.8,1.4c6.3,0.4,8.8,2.2,10.1,8.1c1.8,7.7,3,15.5,4.7,23.2
	c1.3,5.8,3.1,11.5,4.2,17.4c2.3,12,4.8,24,6.3,36.1c1,8.7-4.3,11.9-12.9,10.5c-6.9-1.1-14-1-21-1.1c-7.9-0.1-15.8,0-23.6,0.1
	c-6.3,0.1-12.6,0.8-18.9,0.8c-5.5,0-10.9-0.5-16.4-0.9c-0.8-0.1-1.7-0.2-2.4-0.6c-3.9-2.2-7.9-14.8-6.2-19.1c1.9-4.7,5-9.2,5.7-14.1
	c1-6.4,1-13.2,0-19.7c-1.4-9.6-1-18.9,1.5-28.1c1.4-5,4.6-8.9,10.4-10.9C251.4,236.3,264.5,237.5,276.2,237.6z M314.9,328.7
	c0.3-2.2,1-5.1,0.8-8c-0.3-4.3-0.2-9-2.1-12.6c-2.5-4.9-14.8-6.5-19.8-3.6c-1.4,0.8-3,1.1-4.6,1.5c-4.8,1-9.6,2-14.5,2.7
	c-2.4,0.4-4.9,0.1-7.4,0.1c-4,0.1-8.3-0.6-12,0.4c-4.2,1.2-7.4,1.3-10.8-1.9c-3.7-3.5-9.5-3.5-13.8,1c-2.4,2.6-3.1,7.7-3,11.6
	c0.1,2.4,2.8,6.5,4.8,6.8c6.9,1,14.1,1.4,21.1,0.8c4.3-0.4,8.3-1.4,12.6,0.2c2,0.8,4.9,1.5,6.5,0.7c6.1-3.1,13.4,1.6,19.1-3.2
	c0.3-0.2,1.2,0.4,1.8,0.5c2.4,0.5,4.8,1,7.2,1.3C305.1,327.6,309.2,328,314.9,328.7z M303.2,255.3c-4.6-10-4.6-10-14.2-10.9
	c-1.2-0.1-2.3-0.4-3.5-0.3c-13.8,0.3-27.5,0.2-41.2,1c-7.2,0.4-10.4,4.9-10.2,12.3C257.1,263.1,280,264.3,303.2,255.3z"/>
<path id="XMLID_20_" d="M202.8,168.8c-8.9-0.1-17.3-0.9-24.1,4.9c-4.6,3.9-9.1,8.3-12.9,13c-4.1,5.2-7,11.2-10.9,16.5
	c-0.8,1.2-3.9,1.7-5.3,1.1c-1.1-0.5-2.2-3.8-1.5-4.8c5.8-9.3,10.5-19.4,18.9-27.1c13.3-12.1,28.9-14.8,46-12
	c7.9,1.3,14.7,5.1,21.8,8.9c6.5,3.5,11.6,7.6,14.6,14.1c0.7,1.4-0.3,3.6-0.5,5.4c-1.6-0.3-3.5-0.2-4.6-1.1c-2.5-1.8-4.8-4-6.9-6.3
	C227.8,171,215.6,167.9,202.8,168.8z"/>
<path id="XMLID_19_" d="M285.8,183.5c1.5-1.7,3.3-2.9,4.1-4.5c3.8-8.4,10.9-14.3,18.7-16.9c8-2.7,17.5-3,25.9-1.7
	c14.4,2.3,26.1,10.3,35,22.1c1.9,2.5,4.4,4.6,5.6,7.3c0.7,1.6-0.1,5-1.4,5.9c-1.5,1.1-3.5,0-5.4-2.2c-8.3-9.8-16.6-20-29.9-23.6
	c-9.5-2.6-19.3-2.6-28.5,0.4c-4.1,1.3-7.3,5.6-10.5,9c-2.5,2.6-4.4,5.7-6.3,8.8c-3.3,5.5-8.4,5.9-13.9,1.1c-1.9-1.7-4.2-3.1-5.6-5.1
	c-0.8-1.1-0.8-3.5-0.1-4.8c0.4-0.8,3-1.3,4.1-0.8C280.3,179.6,282.7,181.4,285.8,183.5z"/>
<path id="XMLID_18_" d="M234,230.3c-9.8,0-18.7,0-27.6,0c-7.3,0-14.6,0.1-21.9,0c-1.5,0-2.9-1.3-4.4-2c1.4-0.9,2.7-2.4,4.1-2.5
	c15.4-0.6,30.8-1.2,46.3-1.3C234.7,224.4,234.2,227.9,234,230.3z"/>
<path id="XMLID_17_" d="M305.1,230c-0.4-4.2,0.6-5.8,4-5.6c13.2,0.9,26.5,1.7,39.7,2.5c3.2,0.2,5.8,0.5,4.3,5.7
	C337.4,231.8,321.3,230.9,305.1,230z"/>
<path id="XMLID_16_" d="M217.7,200.4c0.2,5.8-1.6,8.4-5.6,8.6c-3.9,0.2-5.5-2.1-5.7-5.9c-0.2-4,1.8-5.6,5.2-5.7
	C214.9,197.2,217.5,198.5,217.7,200.4z"/>
<path id="XMLID_15_" d="M316.2,208.5c-4.5,0.6-4.7-3.1-5.1-6.1c-0.3-2.9,3.5-5.8,7.2-4.8c1.9,0.6,4.3,3.3,4.5,5.2
	C323,206.6,320.8,209.2,316.2,208.5z"/>
</svg>
