<?xml version="1.0" encoding="utf-8"?>
<!-- Generator: Adobe Illustrator 19.0.0, SVG Export Plug-In . SVG Version: 6.00 Build 0)  -->
<svg version="1.1" id="图层_1" xmlns="http://www.w3.org/2000/svg" xmlns:xlink="http://www.w3.org/1999/xlink" x="0px" y="0px"
	 viewBox="0 0 595.3 595.3" style="enable-background:new 0 0 595.3 595.3;" xml:space="preserve">
<style type="text/css">
	.st0{fill:#FFFFFF;}
</style>
<path id="XMLID_68_" class="st0" d="M106.5,510.3c0.3,1.1,0.6,2.2,1,3.4c-10.2,1-10.2,1-10.9,5.1c5.8-0.4,11.6-1,17.4-1.2
	c1.1,0,2.3,1.2,3.5,1.9c-0.2,0.5-0.4,1.1-0.6,1.6c-3.5,0.3-6.9,0.5-10.4,0.8c-7.1,0.6-7.3,0.7-7.9,4.9c6.2-0.6,12.4-1.2,18.5-1.8
	c0.3,0.7,0.5,1.3,0.8,2c-1.4,0.9-2.7,2.3-4.2,2.6c-5.1,0.8-10.3,0.9-15.3,1.8c-1.6,0.3-3,2-4.5,3.1c0.3,0.4,0.6,0.8,0.9,1.2
	c7.4-0.8,14.7-1.6,22.4-2.5c0,1.8,0,3.2,0,5c-5.7,0.6-11.3,1.1-16.9,1.8c-2.3,0.3-5.2,0.3-4.5,4.6c5.3-0.6,10.4-1.1,15.6-1.6
	c-0.5,1.4-1.3,1.9-2.1,2.4c-4.3,2.8-8.6,5.7-13,8.4c-2.2,1.4-3.9,3.1-2.2,5.5c0.4,0.6,3.5,0,4.9-0.9c4.7-2.8,9.5-5.6,13.7-9.1
	c5-4.1,9.3-4.2,14.5-0.2c5.3,4.1,11.2,7.4,16.8,11.1c3.2-3.3,1.9-5.4-1-7.2c-5.4-3.4-10.8-6.9-17.2-10.9c6.9-0.4,12.6-0.7,18.3-1
	c0.1-3.8,0.1-3.7-3.1-3.6c-4.7,0.2-9.3,0.2-14,0.5c-3.3,0.2-4.7-1-3.7-5.3c6.2,0,12.7,0.1,19.1-0.1c1.1,0,2.2-1.3,3.3-1.9
	c-1.1-0.6-2.2-1.8-3.3-1.8c-5.5-0.1-11,0.1-16.5-0.1c-1,0-2-1.4-3-2.1c1-0.7,1.9-1.8,2.9-1.9c4.1-0.3,8.3-0.2,12.5-0.6
	c1.1-0.1,2.2-1.2,3.3-1.8c-1-0.5-2-1.5-3.1-1.5c-3.7-0.1-7.3,0.2-11,0c-1.6-0.1-3.1-1.2-4.7-1.9c1.5-0.6,2.9-1.6,4.4-1.7
	c5.6-0.2,11.3-0.1,17.2-0.1c0-1.4,0.1-3.2,0-3.2c-3.8-0.6-7.7-1-10.7-1.4c-1-1.6-1.8-3.5-2.4-3.4c-1.7,0.1-3.9,0.5-5.1,1.6
	c-3.5,3.2-10.1,3.5-13.3-0.1C110.9,508.1,108.9,508.3,106.5,510.3z"/>
<path id="XMLID_66_" class="st0" d="M399.2,556.2c0.7,4.6,0.7,4.6,4.5,4.8c9,0.6,10.9-1.2,11.1-10.2c0-2.2-0.1-4.3,0-6.5
	c0.3-5.1-0.3-9.7-5.5-11.9c0.8-6.4,1.7-12.3,2.3-18.3c0.5-5.5-1.8-8.6-7.2-8.6c-6.9,0-13.9,0.8-20.8,1.6c-2.9,0.4-4.6,2.3-3.6,5.3
	c7.2-0.9,14.1-1.9,21-2.3c1.4-0.1,4.3,2.1,4.3,3.1c-0.4,6.5-1.5,13-2.4,19.3c-5.6,0.6-10.1,1-15.2,1.5c0.8-6.6,1.6-12.6,2.5-20
	c-2.8,1.4-6.1,2.1-6.3,3.3c-1.3,7.6-2,15.2-2.9,23.5c4.1-0.8,6.8-1.4,9.6-1.9c2.9-0.5,5.9-0.9,8.9-1.3c8.4-1.1,9.3-0.4,9.1,8.2
	C408.5,557.5,409.7,555.9,399.2,556.2z"/>
<path id="XMLID_64_" class="st0" d="M244.3,523.5c0.7,1.4,1.3,2.6,1.8,3.7c3.7,7.7,5.2,15.7,3.4,24.2c-0.7,3.2-2.2,4.7-5.5,4.2
	c-1.1-0.2-2.2,0-3.4,0c-0.4,3.9,1.1,5.4,4.7,5.5c6.8,0.2,10-1.9,10.2-8.6c0.2-8.8-0.7-17.6-1.2-26.6c4.8-2.7,10.8-5.7,16.3-9.3
	c1.9-1.2,4-4.9,3.4-6.3c-0.9-2-4.2-4.3-6.4-4.2c-11.6,0.2-23.2,1.1-34.8,1.9c-3.3,0.2-5.1,2.1-3.8,6.2c12.4-3.5,24.9-5.7,38.6-3.2
	C260.8,517.9,252.5,520.3,244.3,523.5z"/>
<path id="XMLID_63_" class="st0" d="M375.4,466.5c5-0.9,7-3.2,7-7.6c0-15,0.2-30,0.4-45c0-2.9-0.8-5-4-5.1c-3.4-0.1-4.5,2-4.5,5.2
	c0,15.2-0.2,30.3-0.1,45.5C374.1,461.8,375,464.2,375.4,466.5z"/>
<path id="XMLID_61_" class="st0" d="M439.6,546.5c0-12.3,0-24.3,0-36.8c-2,0.1-3.7,0.2-4.6,0.2c0,11.5,0.1,22.5-0.1,33.4
	C434.9,546.5,436.1,547.5,439.6,546.5z"/>
<path id="XMLID_60_" class="st0" d="M502,509.9c0,11.5-0.1,22.4,0,33.3c0,3.6,0.3,3.6,4.6,3.1c0-12,0-24.1,0-36.4
	C504.8,509.9,503.3,509.9,502,509.9z"/>
<path id="XMLID_59_" class="st0" d="M572.6,546.5c0-12.2,0-24.3,0-36.5c-1.9,0-3.6,0-4.6,0c0,11.3,0.1,22.2-0.1,33.1
	C567.9,546.4,569,547.5,572.6,546.5z"/>
<path id="XMLID_58_" class="st0" d="M439.7,550.6c-1.7,0-3.2,0-5,0c0,2.6,0,4.9,0,7.5c1.8,0,3.3,0,5,0
	C439.7,555.7,439.7,553.6,439.7,550.6z"/>
<path id="XMLID_57_" class="st0" d="M501.6,558c5.7,0.5,6,0,4.7-7.4c-1.5,0-3,0-4.7,0C501.6,553.2,501.6,555.5,501.6,558z"/>
<path id="XMLID_56_" class="st0" d="M572.5,558.2c0-2.8,0-5.2,0-7.7c-1.8,0-3.2,0-4.9,0c0,2.6,0,5,0,7.7
	C569.3,558.2,570.7,558.2,572.5,558.2z"/>
<path id="XMLID_45_" d="M22.7,237.9c2.1-2.8,3.8-5.9,6.2-8.2c4.9-4.5,9-3,10.1,3.6c3.9,22.5,13.5,42.2,28.3,59.5
	c13.1,15.4,28.8,27.7,45.9,38.4c23.7,14.7,49.2,25.3,75.6,33.9c10.2,3.3,20.7,5.8,31.2,8.4c5.8,1.4,11-0.6,12.9-4.6
	c-3.5-1.4-7-2.6-10.4-4.2c-7.1-3.3-14.3-6.5-21.1-10.3c-8.5-4.7-17.1-9.4-24.8-15.2c-8.2-6.2-15.6-13.4-21.9-21.8
	c-18-23.9-26.6-50.8-25.9-80.6c0.4-15.1,3.7-29.5,10.5-43c3.3-6.7,5.5-14,9.3-20.3c8-13.1,15.5-26.7,27.4-36.9
	c8-6.9,15.8-14.1,24.5-20.1c8.2-5.8,16.9-11.2,26.1-15c12.2-5.1,25.1-8.5,37.7-12.8c1.1-0.4,2.3-2.2,2.4-3.5
	c1-12.7,1.2-25.5,2.7-38.2c1-8.8,3.5-17.5,5.8-26.1c1.4-5.4,3.7-10.6,5.6-15.9c4.3,0,8.7,0,13,0c-3.5,8.8-7.6,17.4-10.5,26.4
	c-2.4,7.3-4.1,15.1-4.7,22.7c-0.8,10.2-0.2,20.5-0.2,30.8c0.5,0.1,1,0.3,1.5,0.3c12.4-1.3,24.8-2.6,37.1-4.2
	c1.4-0.2,3.2-2.8,3.5-4.5c1.2-6.4,1.4-12.9,2.8-19.2c3.9-17.4,5-34.8,0.6-52.2c4,0,8,0,12,0c4.5,25.7-0.3,50.7-6.2,75.5
	c13.5,1.1,26.4,2.2,39.3,3.3c0.3-1.4,0.3-2.6,0.7-3.7c2.7-8,5.3-16,8.1-23.9c2.7-7.6,5.2-15.3,8.6-22.7c4.5-9.7,9.7-19.1,14.5-28.6
	c4.7,0,9.3,0,14,0c-2.8,4.4-6.2,8.6-8.4,13.3c-6.3,13.8-12.7,27.6-18.1,41.7c-4,10.3-6.4,21.2-9.8,31.7c-0.5,1.5-3.1,3.2-4.7,3.2
	c-7.4-0.2-14.9-1.2-22.3-1.4c-14.9-0.4-29.9-0.7-44.8-0.5c-8.1,0.1-16.3,1.1-24.4,2.2c-13.3,1.7-26.2,5.3-38.5,10.8
	c-7.2,3.3-15.1,5.2-21.9,9.2c-10.3,6-21.1,11.4-29.4,20.5c-6.1,6.7-13,12.6-19.2,19.2c-2.3,2.4-3.5,5.9-5.6,8.6
	c-12.1,15.8-20.6,33.5-25.2,52.7c-3.4,13.9-4.1,28.3-1.1,42.5c1.8,8.4,3.4,16.9,5.6,25.2c0.9,3.2,3.2,6,4.8,9.1
	c9.1,17.5,21.5,32,38.1,42.9c9.5,6.2,19.8,11,29.7,16.4c16.3,9,34,11.2,51.6,14.5c25.6,4.7,51.4,4.8,77,2c18.2-2,36.4-5.3,53.8-11.6
	c8-2.9,16.4-5.4,23.7-9.7c6.9-4,12.6-10,18.7-15.3c2.2-1.9,4.1-4.3,5.8-6.7c3.9-5.3,7.5-10.8,11.3-16.1c7.6-10.7,11-23.1,15.3-35.4
	c6.8-19.4,7.1-39,4.6-58.6c-2.3-18.1-7.8-35.5-18.4-50.8c-5.2-7.6-9.7-15.9-15.9-22.6c-8.7-9.4-18.5-17.8-28-26.4
	c-2.8-2.5-6.3-4.4-8.6-7.2c-1.3-1.6-1.7-5-0.9-6.8c3.4-7.3,7.7-14.1,11.3-21.4c6.5-13.1,12.9-26.3,19-39.7c1.3-2.9,1.6-6.5,1.4-9.7
	c-0.6-8.7-1.7-17.4-2.6-26.2c3.7,0,7.3,0,11,0c0.3,8.8,1.6,17.6,0.6,26.3c-0.8,7.6-3.5,15.1-6.3,22.2c-3.8,9.5-8.4,18.7-12.7,27.9
	c-3.2,6.7-6.6,13.2-9.6,20c-0.5,1.2,0.4,4,1.5,4.7c16.9,11.5,30.2,26.5,42,42.8c9.4,12.8,16.3,27.1,21.3,42.1c3,9,3,19,4.8,28.4
	c3.7,19.8-0.7,39.1-4.2,58.4c-1.4,7.9-6,15.2-9.2,22.7c-4.8,11.3-11.2,21.6-19.1,30.9c-14.6,17.3-32.7,29.1-54.6,35
	c-6,1.6-11.9,3.9-19,6.2c1.1,1.9,2,4,3.4,5.6c5.5,6.4,10.3,13.1,12.5,21.4c1.9,7.2,5.1,14,6.5,21.3c2.4,11.8,3.9,23.8,5.8,35.8
	c0.1,0.5,0,1,0,1.5c-0.2,4.3-0.4,8.5-7.2,6.5c-0.7-3.7-1.5-7.8-2.1-11.9c-1.3-10-1.9-20.2-4-30.1c-2.2-10.5-5.3-20.7-11.5-29.8
	c-1.3-1.9-2.5-3.9-3.3-6.1c-2.6-6.9-10.4-11.8-17.5-10.5c-22.6,4.2-45.3,4.6-68.2,3.6c-10.3-0.5-20.6-1-30.9-2.2
	c-7.4-0.9-14.6-2.8-21.8-4.8c-3.6-1-5.9-0.8-8,2.5c-3.1,4.9-13.6,8.3-19.2,6.8c-11.7-3.2-23.5-5.9-35.1-9.4
	c-24-7.4-46.8-17.4-68.8-29.7C97.8,333,81.1,321,66.7,306c-14.1-14.8-24.9-31.8-32.1-51c-1.3-3.5-2-7.3-3.5-10.8
	c-2.1,5.9-0.8,11.6,1.9,16.6c2.6,4.7,2.2,8.9,1,13.8c-2,8.2-3.7,16.5-4.9,24.9c-1,6.9,0.6,9.1,6.8,12.1c4,1.9,7.2,5,12.7,2.7
	c2.3-0.9,6.9,1.9,9.6,4.1c8.4,6.8,16.3,14.1,24.6,21.1c13.9,11.7,28.9,21.8,45.1,29.8c21.8,10.8,44,20.8,66.3,30.8
	c10.1,4.6,20.7,8.2,31,12.2c0.9,0.4,2.2,1,2.8,0.7c5.1-2.7,7.3,1.8,10.2,4.1c2.6,2,5,4.3,7.2,6.7c2,2.3,3.6,4.9,5.2,7.5
	c1.2,2,1.8,4.3,3.1,6.2c6.4,8.7,10.2,18.3,10.3,29.2c0,1.4-0.4,2.8-0.7,4.4c-2.7-0.5-4.7-0.8-6.1-1.1c-2.7-8.6-4.5-17.1-7.8-24.9
	c-5.2-11.9-13.8-20-26.6-24.7c-23.8-8.8-47.1-18.7-70.4-28.8c-13-5.7-25.7-12.3-38.1-19.4c-16.8-9.6-32.6-20.7-46.9-34
	c-2.5-2.4-5.2-4.7-7.8-6.9c-3-2.6-5.6-6.1-10.6-2.9c-1.2,0.8-4.3-1-6.2-2.1c-4.1-2.3-7.8-5.2-13.1-5.1c-4.8,0.1-6-4.5-7.1-8.4
	c0-10.7,0-21.3,0-32c1.8-7,5.1-14,0-21C22.7,252.6,22.7,245.2,22.7,237.9z"/>
<path id="XMLID_39_" d="M347.3,532.8c-4.5,0.4-8.7,0.7-12.7,1c0,6.1,0.3,11.7-0.1,17.2c-0.4,7.6-4.2,10.6-11.8,10
	c-3.2-0.2-4.4-1.7-4.1-4.8c10-1.1,10.9-2.2,10.2-12.9c-0.2-2.9-0.6-5.8-1-9.2c-5.9,0.8-11.3,1.6-16.8,2.4c-0.2-0.4-0.3-0.9-0.5-1.3
	c-1,2.4-2.4,4.7-2.9,7.2c-0.3,1.4,0.5,3.3,1.3,4.6c1.3,2.1,3.7,3.6,4.5,5.8c0.6,1.4-0.8,3.5-1.6,6.5c-3.4-3.8-5.7-6.4-8.4-9.4
	c-2.6,3.4-4.8,6.7-7.5,9.6c-0.8,0.9-2.7,0.8-4,1.2c-0.2-1.6-1.2-3.7-0.6-4.7c2.2-3.5,5-6.6,7.3-9.5c-1.3-5-8.9-5.1-7.5-11.2
	c1-4.4,2.4-8.6,3.6-13c-1.2-0.5-3-0.7-3.4-1.6c-0.4-0.8,0.4-3.2,1-3.4c6.2-1.5,6.2-7,8.1-11.4c0.1-0.3,0.5-0.5,1.1-1
	c1.4,0.3,3.1,0.7,5,1.2c-0.9,2.8-1.6,5.1-2.4,7.4c0.4,0.3,0.7,0.6,1,0.7c9.8,1,10,1.3,7.7,11.1c-0.5,2.1-1,4.2-1.6,6.7
	c5-0.8,9.6-1.6,14.8-2.4c-0.7-2.3-1.3-4.4-1.9-6.6c4.9-3.7,9.6-7.2,14.4-10.8c-0.1-0.4-0.2-0.9-0.3-1.3c-4.1,0.2-8.3,0.2-12.4,0.8
	c-4,0.5-8,1.6-12,2.4c-0.4-0.5-0.7-1-1.1-1.4c1.5-1.5,2.9-3.9,4.6-4.2c7.6-1,15.2-1.6,22.8-1.9c1.4-0.1,3.9,1.4,4.2,2.6
	c0.4,1.8,0,4.5-1.2,5.8c-2.7,2.9-6.1,5.1-9.1,7.8c-1.1,1.1-1.8,2.7-2.6,4.1c1.6,0.7,3.1,1.9,4.8,2.1c2.6,0.3,5.3,0.1,8-0.1
	C347.9,528.4,348,530.2,347.3,532.8z M308.9,519.8c-4.5-1.6-7-0.5-7.9,3.6c-0.7,2.7-1.3,5.5-2.5,8c-1.9,4.4-0.1,6.8,4.5,8.8
	C305,533.3,306.9,526.6,308.9,519.8z"/>
<path id="XMLID_38_" d="M106.5,510.3c2.4-2,4.4-2.2,6.5,0.3c3.1,3.6,9.8,3.3,13.3,0.1c1.2-1.1,3.3-1.5,5.1-1.6
	c0.6,0,1.3,1.9,2.4,3.4c3,0.4,6.8,0.8,10.7,1.4c0.1,0,0,1.8,0,3.2c-5.9,0-11.6-0.1-17.2,0.1c-1.5,0.1-2.9,1.1-4.4,1.7
	c1.6,0.7,3.1,1.8,4.7,1.9c3.6,0.3,7.3-0.1,11,0c1,0,2,1,3.1,1.5c-1.1,0.6-2.1,1.7-3.3,1.8c-4.1,0.3-8.3,0.2-12.5,0.6
	c-1,0.1-1.9,1.2-2.9,1.9c1,0.7,2,2.1,3,2.1c5.5,0.2,11-0.1,16.5,0.1c1.1,0,2.2,1.2,3.3,1.8c-1.1,0.7-2.2,1.9-3.3,1.9
	c-6.4,0.2-12.9,0.1-19.1,0.1c-1,4.3,0.4,5.5,3.7,5.3c4.6-0.3,9.3-0.3,14-0.5c3.2-0.1,3.2-0.1,3.1,3.6c-5.7,0.3-11.4,0.6-18.3,1
	c6.4,4.1,11.8,7.5,17.2,10.9c2.8,1.8,4.1,3.9,1,7.2c-5.6-3.6-11.5-7-16.8-11.1c-5.2-4-9.4-3.9-14.5,0.2c-4.2,3.5-9,6.3-13.7,9.1
	c-1.4,0.8-4.4,1.5-4.9,0.9c-1.7-2.4,0-4.2,2.2-5.5c4.4-2.7,8.7-5.6,13-8.4c0.8-0.5,1.5-1.1,2.1-2.4c-5.1,0.5-10.3,1.1-15.6,1.6
	c-0.8-4.3,2.1-4.3,4.5-4.6c5.6-0.7,11.2-1.2,16.9-1.8c0-1.7,0-3.1,0-5c-7.7,0.9-15.1,1.7-22.4,2.5c-0.3-0.4-0.6-0.8-0.9-1.2
	c1.5-1.1,2.9-2.8,4.5-3.1c5.1-0.9,10.3-1,15.3-1.8c1.5-0.2,2.8-1.7,4.2-2.6c-0.3-0.7-0.5-1.3-0.8-2c-6.2,0.6-12.3,1.2-18.5,1.8
	c0.7-4.3,0.9-4.4,7.9-4.9c3.5-0.3,6.9-0.5,10.4-0.8c0.2-0.5,0.4-1.1,0.6-1.6c-1.2-0.7-2.4-1.9-3.5-1.9c-5.8,0.2-11.6,0.7-17.4,1.2
	c0.7-4.2,0.7-4.2,10.9-5.1C107.2,512.5,106.8,511.4,106.5,510.3z"/>
<path id="XMLID_34_" d="M186.5,541.3c-7.6,6.1-14.7,11.9-21.8,17.6c-1.5,1.2-3,3.9-5.2,1c-1.9-2.4-0.6-4.3,1.5-5.9
	c6-4.6,12-9.3,17.7-14.7c-6.8,0.8-13.6,1.7-20.4,2.5c0.1-4.6,0.3-5,4.2-5.6c5.4-0.7,10.9-1.2,16.4-1.5c3.2-0.2,4.9-1.1,4.4-4.8
	c-0.2-1.3,1.6-2.9,2.5-4.3c0.4,0.2,0.8,0.3,1.1,0.5c0.2-3.3,0.4-6.6,0.5-9.9c0-1,0.3-2.1,0-3c-1.9-6.3-1.9-6.5,4.6-7.2
	c4-0.4,8-0.6,11.9-0.7c3.8-0.1,5.9,2.1,6.4,5.7c0.6,4.1,0.8,8.2,1.3,12.8c-4.3,0.3-8.3,0.6-12.5,1c1.9,2.9,3.6,5.4,5.7,8.6
	c2.5,0.3,6,0.7,9.5,1.3c0.2,0,0,2.1,0,3.5c-7.3,0-14.2,0-21.1,0c-0.2,0.3-0.4,0.7-0.6,1c1.6,1.2,3.1,2.5,4.7,3.7
	c4.9,4,10,7.8,14.6,12c1.1,1,0.6,3.6,0.9,5.5c-1.7-0.3-3.8,0-4.9-0.9C200.9,553.6,193.9,547.5,186.5,541.3z M205.1,519.8
	c0.1-9.4-0.7-10.3-7.3-9.8c-4.2,0.4-5,2.5-3.7,10.3C197.6,520.1,201.2,519.9,205.1,519.8z M197.2,524.7c-3.3,0.3-5.8,0.5-8.5,0.8
	c0.4,3.1,0.7,5.5,1,8.4c2.8-0.1,5.4-0.3,8.7-0.4c-1.8-2.3-2.9-3.7-4-5.2C195.2,527.2,195.9,526.3,197.2,524.7z"/>
<path id="XMLID_33_" d="M399.2,556.2c10.5-0.3,9.2,1.3,9.4-10.5c0.1-8.6-0.7-9.2-9.1-8.2c-3,0.4-5.9,0.8-8.9,1.3
	c-2.8,0.5-5.5,1.1-9.6,1.9c0.9-8.2,1.6-15.9,2.9-23.5c0.2-1.2,3.5-1.9,6.3-3.3c-0.9,7.4-1.7,13.4-2.5,20c5.1-0.5,9.6-1,15.2-1.5
	c0.8-6.3,1.9-12.8,2.4-19.3c0.1-1-2.9-3.2-4.3-3.1c-6.9,0.4-13.8,1.5-21,2.3c-1-2.9,0.7-4.9,3.6-5.3c6.9-0.8,13.9-1.6,20.8-1.6
	c5.4,0,7.7,3.1,7.2,8.6c-0.6,6-1.5,11.9-2.3,18.3c5.2,2.1,5.8,6.8,5.5,11.9c-0.1,2.2,0,4.3,0,6.5c-0.2,9.1-2.1,10.9-11.1,10.2
	C400,560.8,400,560.8,399.2,556.2z"/>
<path id="XMLID_30_" d="M377.9,546.4c8.6-0.6,17.1-1.2,25.5-1.8c2.8-0.2,4.1,0.8,3.1,3.7c-15.8,1.7-31.6,3.5-47.3,5.2
	c0-10.1,0.1-20.3-0.1-30.6c0-2.3-1.2-4.6-1-6.9c0.1-1.8,1.1-4.7,2.3-5c3.5-0.9,7.2-1.2,10.8-1c3.5,0.2,5,2.7,5.2,6.2
	C376.9,526.5,377.4,536.6,377.9,546.4z M367.2,514.2c-0.6,0.4-1.3,0.8-1.9,1.3c0,10.7,0,21.4,0,32.3c2.1-0.1,4-0.3,6.2-0.4
	c0-5.2,0.1-10,0-14.8c-0.2-5-0.4-10-1.1-14.9C370.2,516.4,368.3,515.4,367.2,514.2z"/>
<path id="XMLID_29_" d="M244.3,523.5c8.1-3.2,16.5-5.6,23.5-12.4c-13.8-2.5-26.2-0.3-38.6,3.2c-1.3-4.1,0.5-6,3.8-6.2
	c11.6-0.9,23.2-1.7,34.8-1.9c2.2,0,5.5,2.2,6.4,4.2c0.6,1.4-1.6,5-3.4,6.3c-5.5,3.7-11.5,6.6-16.3,9.3c0.4,8.9,1.3,17.8,1.2,26.6
	c-0.1,6.8-3.4,8.9-10.2,8.6c-3.6-0.1-5.2-1.7-4.7-5.5c1.2,0,2.3-0.1,3.4,0c3.3,0.5,4.9-1,5.5-4.2c1.7-8.5,0.3-16.5-3.4-24.2
	C245.6,526.1,245,524.9,244.3,523.5z"/>
<path id="XMLID_28_" d="M375.4,466.5c-0.4-2.3-1.3-4.7-1.3-7c-0.1-15.1,0.1-30.3,0.1-45.5c0-3.2,1.1-5.3,4.5-5.2
	c3.2,0.1,4,2.2,4,5.1c-0.2,15-0.4,30-0.4,45C382.4,463.3,380.4,465.6,375.4,466.5z"/>
<path id="XMLID_25_" d="M161.8,527c0-3.8,0-7.1,0-10.4c0-1,0.4-2.1,0.2-2.9c-1.9-5.9-1.7-6.3,4.5-6.8c3.8-0.3,7.6-0.7,11.4-0.8
	c3.5-0.1,5.6,1.8,5.9,5.4c0.5,4.6,0.9,9.2,1.4,14.2C177.2,526,169.7,526.5,161.8,527z M167.9,521.3c3.8,0,7.1,0,11.2,0
	c-1.8-4.1,1.9-10-4.7-10.8C168.5,509.7,167.3,512.1,167.9,521.3z"/>
<path id="XMLID_24_" d="M439.6,546.5c-3.5,1-4.7,0-4.7-3.2c0.1-10.9,0.1-21.8,0.1-33.4c1,0,2.6-0.1,4.6-0.2
	C439.6,522.2,439.6,534.2,439.6,546.5z"/>
<path id="XMLID_23_" d="M502,509.9c1.3,0,2.8,0,4.6,0c0,12.3,0,24.4,0,36.4c-4.3,0.6-4.5,0.6-4.6-3.1
	C501.9,532.3,502,521.4,502,509.9z"/>
<path id="XMLID_22_" d="M572.6,546.5c-3.6,1-4.7-0.2-4.7-3.3c0.1-10.9,0.1-21.8,0.1-33.1c1,0,2.7,0,4.6,0
	C572.6,522.3,572.6,534.3,572.6,546.5z"/>
<path id="XMLID_21_" d="M439.7,550.6c0,2.9,0,5,0,7.5c-1.7,0-3.2,0-5,0c0-2.6,0-4.9,0-7.5C436.5,550.6,438,550.6,439.7,550.6z"/>
<path id="XMLID_20_" d="M501.6,558c0-2.5,0-4.8,0-7.4c1.7,0,3.2,0,4.7,0C507.6,558.1,507.3,558.6,501.6,558z"/>
<path id="XMLID_19_" d="M572.5,558.2c-1.8,0-3.2,0-4.9,0c0-2.7,0-5,0-7.7c1.7,0,3.1,0,4.9,0C572.5,553,572.5,555.4,572.5,558.2z"/>
<path id="XMLID_15_" d="M309.3,237.1c11.4,0.7,22.2,1.4,33,2.1c4.7,0.3,7.6,2.7,8.6,7.3c2.9,12.9,5.9,25.8,8.6,38.8
	c2.4,11.5,4.5,23.1,6.7,34.6c0.3,1.5,0.3,3,0.3,4.5c0,8.3-4.3,11.8-12.4,10.5c-5.7-0.9-11.4-1.8-17.1-1.9
	c-5.8-0.1-11.5,0.9-17.3,1.4c-0.2,0-0.3,0.1-0.5,0.1c-11.9-0.1-23.8-0.2-35.7-0.4c-1.3,0-2.7-0.5-4-0.4c-5.9,0.8-10.2-0.7-12.5-6.8
	c-1.9-4.8-5.7-9.2-1.5-14.7c0.7-1,0.3-2.8,1-3.8c6.8-9.3,5.4-19.5,4.2-30c-0.9-7.6-0.2-15.5,0.9-23.2c1.6-10.6,6.9-15.1,17.5-16.4
	C295.9,238.1,302.9,237.7,309.3,237.1z M358.7,329.5c0.3-2.7,1.2-5.6,1-8.5c-0.8-11.8-4.3-16-15-17.9c-1.7-0.3-3.7,0.7-5.5,1.1
	c-8.9,1.8-17.8,3.7-26.8,5.5c-0.6,0.1-1.3-0.2-1.9-0.5c-4-2-7.8-1.1-11.5,0.7c-3.7,1.8-6.9,1.5-9.9-1.6c-3-3.1-6.3-3.1-10.4-1.7
	c-4.8,1.6-5.9,5.2-7,9.2c-1.1,3.9,1.9,11.1,5.8,11.5c7.1,0.8,14.3,3.5,21.6,0.4c2.1-0.9,5-1.1,7.3-0.6c5.3,1.4,10.4,3.1,15.8,0.4
	c0.9-0.4,2.3,0.2,3.4,0.1c2.7-0.3,5.5-0.7,8.2-1.1c0.9-0.2,1.9-1.1,2.7-1C343.5,326.6,350.5,328,358.7,329.5z M346.8,255.5
	c-0.9-2.3-1.8-3.8-2-5.4c-0.5-4.1-2.6-5.8-6.7-5.2c-0.8,0.1-1.6-0.2-2.5-0.2c-15.7,0.1-31.5-0.2-47.2,0.4
	c-7.4,0.3-11.1,5.5-10.3,12.4C300.9,263.3,323.6,264.3,346.8,255.5z"/>
<path id="XMLID_14_" d="M245.7,159.1c11.7,0,22,3.7,32,9.5c6.4,3.7,12.3,7.6,15.5,14.3c0.7,1.6-0.2,3.9-0.4,5.9
	c-1.7-0.5-3.8-0.5-5.1-1.5c-5.7-4.4-10.7-9.7-16.7-13.6c-9.3-6.1-20.2-5.2-30.8-5.1c-9.8,0.1-17.5,3.7-24.2,11.3
	c-5.8,6.6-11.9,12.6-15.1,21c-0.4,1.1-1.1,2.3-2,2.8c-1.6,0.8-4.3,1.9-5,1.2c-1.2-1.2-2.3-3.9-1.7-5.4c1.4-3.6,3.7-6.9,5.6-10.3
	c7.2-12.9,17.6-22.4,31.3-27.6C234.1,159.5,240.1,159.8,245.7,159.1z"/>
<path id="XMLID_13_" d="M330.3,183.7c1.8-2.8,3.4-5.3,5-7.7c12-17.4,33.3-20.3,51.6-13.2c12.7,4.9,22.4,13.5,30.5,24.2
	c0.7,0.9,1.8,1.9,1.8,2.9c0,1.9-0.6,3.9-0.9,5.8c-2-0.6-4.7-0.6-5.8-1.9c-8.5-10.2-17.2-20.2-30.6-24c-9.6-2.7-19.6-2.2-29,0.7
	c-3.5,1.1-6.4,5-9,8.1c-2.8,3.2-5,6.9-7.4,10.5c-3.2,4.9-6.8,5.1-12.4,0.5c-2.1-1.7-4.5-3.2-6.2-5.3c-0.9-1.1-1.4-4-0.7-4.7
	c1-1,3.6-1.5,5-0.9C324.9,179.7,327.2,181.7,330.3,183.7z"/>
<path id="XMLID_12_" d="M251.9,224.7c7.2,0,14.3-0.1,21.5,0.1c1.4,0,3.3,0.7,4.1,1.7c0.7,0.9,0.1,2.8,0.1,4.2
	c-1.4-0.1-2.8-0.2-4.1-0.2c-11.6,0-23.3,0.2-34.9,0.2c-3.8,0-7.6-0.2-11.4-0.5c-1.1-0.1-2-1.1-3.1-1.7c1-0.9,1.9-2.5,3-2.7
	c2.9-0.5,5.9-0.5,8.9-0.5c5.3-0.1,10.6,0,16,0C251.9,225,251.9,224.9,251.9,224.7z"/>
<path id="XMLID_11_" d="M380.1,232.2c-9.1-0.6-18.2-1.1-27.3-2c-1.5-0.1-2.9-1.7-4.3-2.7c1.5-1,2.9-2.8,4.4-2.7
	c13.8,0.6,27.6,1.4,41.3,2.5c1.2,0.1,2.3,2,3.5,3.1c-1.2,0.8-2.4,2.1-3.6,2.1c-4.7,0-9.3-0.3-14-0.6
	C380.1,232,380.1,232.1,380.1,232.2z"/>
<path id="XMLID_10_" d="M256.7,197.5c2.3,0.4,4.9,1.3,5,5.2c0.1,4.1-1.9,6.4-5.8,6.3c-3.5,0-5.8-1.9-5.8-5.8
	C250.1,199.2,252.1,197.5,256.7,197.5z"/>
<path id="XMLID_9_" d="M360,209c-4.1,0.4-5-3.2-5.1-6.4c-0.1-4.1,3.6-5.2,6.7-4.7c2,0.3,4.6,2.7,5.1,4.5
	C367.5,206.2,364.6,208.9,360,209z"/>
</svg>
